<?xml version="1.0" standalone="no"?>
<!DOCTYPE svg PUBLIC "-//W3C//DTD SVG 1.1//EN" "http://www.w3.org/Graphics/SVG/1.1/DTD/svg11.dtd" >
<svg>
<metadata>
Created by FontForge 20090914 at Wed Mar 22 03:50:07 2017
 By www-data
Copyright (C) 2009, Created by Canfei.(canfei@hotmail.com) Published by aifont.com. All rights reserved.
</metadata>
<defs>
<font id="AFLaplandPro-Thin" horiz-adv-x="833" >
  <font-face 
    font-family="AF Lapland Pro Thin"
    font-weight="200"
    font-stretch="normal"
    units-per-em="1000"
    panose-1="2 0 0 0 0 0 0 0 0 0"
    ascent="750"
    descent="-250"
    x-height="500"
    cap-height="679"
    bbox="-46 -275.001 1171 935"
    underline-thickness="50"
    underline-position="-50"
    unicode-range="U+0020-U+FB02"
  />
<missing-glyph horiz-adv-x="295" 
 />
    <glyph glyph-name=".notdef" horiz-adv-x="295" 
 />
    <glyph glyph-name="space" unicode=" " horiz-adv-x="295" 
 />
    <glyph glyph-name="space" unicode="&#xa0;" horiz-adv-x="295" 
 />
    <glyph glyph-name="exclam" unicode="!" horiz-adv-x="180" 
d="M77 675h17v-526h-17v526zM77 89h17v-89h-17v89z" />
    <glyph glyph-name="quotedbl" unicode="&#x22;" horiz-adv-x="328" 
d="M144 679l17 -1l-76 -194l-18 2zM232 679l17 -1l-76 -194l-18 2z" />
    <glyph glyph-name="numbersign" unicode="#" horiz-adv-x="587" 
d="M389 433l-23.5 -96l-23.5 -96h140v-16h-143l-55 -234l-18 1l56 233h-142l-56 -234l-17 1l56 233h-121v16h124c8 34 16 66 24 96s15.667 62 23 96h-131v16h134l57 235l17 -1l-57 -234h142l57 235l18 -1l-56 -234h129v-16h-134zM372 433h-142l-23.5 -96l-23.5 -96h143z" />
    <glyph glyph-name="dollar" unicode="$" horiz-adv-x="480" 
d="M243 360c24 -6 48.1641 -14.002 72.4971 -24.002s46.166 -22.667 65.499 -38s34.833 -34 46.5 -56s16.834 -48 15.501 -78c-1.33301 -29.333 -7.5 -54.833 -18.5 -76.5s-25.5 -39.5 -43.5 -53.5s-38.833 -24.667 -62.5 -32s-48.834 -11.333 -75.501 -12v-93h-16v93
c-15.333 2 -31.333 5.33301 -48 10s-32.5 11.334 -47.5 20.001s-28.667 19.667 -41 33s-21.833 30 -28.5 50v-111h-16v199h16c2 -31.333 7.33301 -57.666 16 -78.999s20.334 -39 35.001 -53s31.5 -25 50.5 -33s40.167 -14 63.5 -18v339
c-26.667 6.66699 -50.667 14.5 -72 23.5s-40 20.167 -56 33.5s-28.667 29.166 -38 47.499s-15.333 40.5 -18 66.5c0 24.667 4.16699 48 12.5 70s20.5 40.833 36.5 56.5s35.333 27.834 58 36.501s48.334 12.667 77.001 12v99h16v-100
c34.667 -5.33301 63.334 -16.833 86.001 -34.5s40.334 -38.167 53.001 -61.5v88h17v-156h-16c-2 14 -5.83301 28.833 -11.5 44.5s-14 30.5 -25 44.5s-25 26.167 -42 36.5s-37.5 17.5 -61.5 21.5v-315zM226.997 676.998c-25.333 0.666992 -48.3311 -3.00195 -68.998 -11.002
s-38.334 -19 -53.001 -33s-25.834 -30.833 -33.501 -50.5s-11.5 -40.5 -11.5 -62.5c2.66699 -25.333 8 -46.166 16 -62.499s19 -30.166 33 -41.499s30.833 -20.833 50.5 -28.5s42.167 -15.5 67.5 -23.5v313zM242.999 6.99609c22.667 0 44.835 3.33496 66.502 10.002
s41 16.5 58 29.5s30.833 29.333 41.5 49s16.667 42.5 18 68.5c1.33301 25.333 -2.83398 47.666 -12.501 66.999s-23.167 36.166 -40.5 50.499s-37.333 26.5 -60 36.5s-46.334 18.667 -71.001 26v-337z" />
    <glyph glyph-name="percent" unicode="%" horiz-adv-x="815" 
d="M367 558c0 -20 -3.83301 -39 -11.5 -57s-18.167 -33.833 -31.5 -47.5s-29 -24.334 -47 -32.001s-37 -11.5 -57 -11.5s-39 3.83301 -57 11.5s-33.833 18.334 -47.5 32.001s-24.334 29.5 -32.001 47.5s-11.5 37 -11.5 57s3.83301 39 11.5 57s18.334 33.667 32.001 47
s29.5 23.833 47.5 31.5s37 11.5 57 11.5s39 -3.83301 57 -11.5s33.667 -18.167 47 -31.5s23.833 -29 31.5 -47s11.5 -37 11.5 -57zM220 427c37.333 0 68 12.667 92 38c25.333 24 38 55 38 93c0 37.333 -12.667 68 -38 92c-24 25.333 -54.667 38 -92 38
c-38 0 -69 -12.667 -93 -38c-25.333 -24 -38 -54.667 -38 -92c0 -38 12.667 -69 38 -93c24 -25.333 55 -38 93 -38zM577 295c20 0 39 -3.83301 57 -11.5s33.667 -18.167 47 -31.5s23.833 -29 31.5 -47s11.5 -37.333 11.5 -58c0 -20 -3.83301 -39 -11.5 -57
s-18.167 -33.667 -31.5 -47s-29 -23.833 -47 -31.5s-37 -11.5 -57 -11.5s-39 3.83301 -57 11.5s-33.5 18.167 -46.5 31.5s-23.333 29 -31 47s-11.5 37 -11.5 57c0 20.667 3.83301 40 11.5 58s18 33.667 31 47s28.5 23.833 46.5 31.5s37 11.5 57 11.5zM670 55
c25.333 24 38 54.667 38 92c0 38 -12.667 69 -38 93c-12 12 -25.833 21.333 -41.5 28s-32.834 10 -51.501 10c-18 0 -34.833 -3.33301 -50.5 -10s-29.834 -16 -42.501 -28c-11.333 -11.333 -20.5 -24.833 -27.5 -40.5s-10.5 -33.167 -10.5 -52.5c0 -18 3.5 -35 10.5 -51
s16.167 -29.667 27.5 -41c12.667 -12 26.834 -21.333 42.501 -28s32.5 -10 50.5 -10c18.667 0 35.834 3.33301 51.501 10s29.5 16 41.5 28zM562 699l-305 -692l-17 2l306 692z" />
    <glyph glyph-name="ampersand" unicode="&#x26;" horiz-adv-x="739" 
d="M562 419l-109.998 -231.998l201 -194l-11 -12l-197 191l-50 -90c-20.667 -32 -45.667 -56.667 -75 -74s-59 -26 -89 -26c-26 0 -50.5 5 -73.5 15s-43.167 23.5 -60.5 40.5s-31 37.167 -41 60.5s-15 48 -15 74c0 32 7.16699 61.667 21.5 89s34.166 49.666 59.499 66.999
l33 19l33 18l36 21l-64 62c-9.33301 12 -19 25.5 -29 40.5s-15 34.5 -15 58.5c0 20 3.83301 38.5 11.5 55.5s18 32 31 45s28.167 23.167 45.5 30.5s35.666 11 54.999 11s37.666 -3.66699 54.999 -11s32.5 -17.5 45.5 -30.5s23.333 -28 31 -45s11.5 -35.5 11.5 -55.5
c0 -11.333 -1.33301 -22.5 -4 -33.5s-6.66699 -21.167 -12 -30.5c-4 -6.66699 -12 -14.834 -24 -24.501s-25 -19.5 -39 -29.5s-27.667 -19.167 -41 -27.5s-23.666 -14.5 -30.999 -18.5l189 -184l111 237h106v-17h-95zM239.002 395.002l24.4961 14.499
c13 7.66699 26.833 16.334 41.5 26.001s28.5 19.667 41.5 30s21.5 18.833 25.5 25.5c5.33301 7.33301 8.83301 16 10.5 26s2.5 20 2.5 30c0 18 -3.33301 34.5 -10 49.5s-15.667 28.5 -27 40.5c-11.333 11.333 -24.666 20.166 -39.999 26.499s-31.666 9.5 -48.999 9.5
s-33.666 -3.16699 -48.999 -9.5s-28.666 -15.166 -39.999 -26.499c-11.333 -12 -20.333 -25.5 -27 -40.5s-10 -31.5 -10 -49.5c0 -19.333 4 -35.5 12 -48.5s16.333 -24.5 25 -34.5zM431.998 185.001l-195 188.999l-108 -61c-22 -15.333 -39.333 -35.333 -52 -60
s-19 -51.667 -19 -81c0 -24 4.5 -46.5 13.5 -67.5s21.5 -39.167 37.5 -54.5c15.333 -15.333 33.5 -27.666 54.5 -36.999s43.5 -14 67.5 -14c26.667 0 53.5 8.16699 80.5 24.5s50.167 38.5 69.5 66.5z" />
    <glyph glyph-name="quotesingle" unicode="'" horiz-adv-x="150" 
d="M54 675h17v-103h-17v103z" />
    <glyph glyph-name="parenleft" unicode="(" horiz-adv-x="202" 
d="M148 663c-30 -50 -52.833 -102.333 -68.5 -157s-23.5 -111 -23.5 -169s7.83301 -114.333 23.5 -169s38.5 -106.667 68.5 -156l-18 -2c-30 48 -52.667 99.5 -68 154.5s-23 112.5 -23 172.5s7.83301 117.5 23.5 172.5s38.5 107.5 68.5 157.5z" />
    <glyph glyph-name="parenright" unicode=")" horiz-adv-x="226" 
d="M85 665c30 -48.667 52.667 -100.5 68 -155.5s23 -112.5 23 -172.5s-7.66699 -117.5 -23 -172.5s-38 -106.5 -68 -154.5l-17 2c30 49.333 52.833 101.333 68.5 156s23.5 111 23.5 169s-7.83301 114.167 -23.5 168.5s-38.167 105.833 -67.5 154.5z" />
    <glyph glyph-name="asterisk" unicode="*" horiz-adv-x="428" 
d="M225 514l66.499 -39.501c23 -13.667 45.167 -26.167 66.5 -37.5l-11 -13l-131 75v-152h-16v152l-65.5 -38c-22.333 -13.333 -44.166 -25.666 -65.499 -36.999l-11 13l132 77l-66 38.5l-66 38.5l11 13l131 -76v153h16v-153l65.5 38.5l65.5 37.5l11 -13z" />
    <glyph glyph-name="plus" unicode="+" horiz-adv-x="537" 
d="M262 508h17v-393h-17v393zM74 303v16h392v-16h-392z" />
    <glyph glyph-name="comma" unicode="," horiz-adv-x="145" 
d="M57 73h20l-43 -124h-20z" />
    <glyph glyph-name="hyphen" unicode="-" horiz-adv-x="430" 
d="M46 273v17h334v-17h-334z" />
    <glyph glyph-name="period" unicode="." horiz-adv-x="133" 
d="M25 101h17v-100h-17v100z" />
    <glyph glyph-name="slash" unicode="/" horiz-adv-x="306" 
d="M239 696h18l-228 -715h-19z" />
    <glyph glyph-name="zero" unicode="0" horiz-adv-x="534" 
d="M0 476c0 31.333 6 60.833 18 88.5s28.167 51.667 48.5 72s44.166 36.5 71.499 48.5s56.666 18 87.999 18s60.833 -6 88.5 -18s51.834 -28.167 72.501 -48.5s37 -44.333 49 -72s18 -57.167 18 -88.5v-257c0 -31.333 -6 -60.833 -18 -88.5s-28.333 -51.667 -49 -72
s-44.834 -36.5 -72.501 -48.5s-57.167 -18 -88.5 -18s-60.666 6 -87.999 18s-51.166 28.167 -71.499 48.5s-36.5 44.333 -48.5 72s-18 57.167 -18 88.5v257zM78 625c-19.333 -19.333 -34.5 -41.666 -45.5 -66.999s-16.5 -52.666 -16.5 -81.999v-257
c0 -30 5.5 -57.333 16.5 -82s26.167 -46.667 45.5 -66s41.5 -34.5 66.5 -45.5s52.167 -16.5 81.5 -16.5c30 0 57.667 5.5 83 16.5s47.666 26.167 66.999 45.5s34.333 41.333 45 66s16 52 16 82v257c0 29.333 -5.33301 56.666 -16 81.999s-25.667 47.666 -45 66.999
s-41.666 34.333 -66.999 45s-53 16 -83 16c-29.333 0 -56.5 -5.33301 -81.5 -16s-47.167 -25.667 -66.5 -45z" />
    <glyph glyph-name="one" unicode="1" horiz-adv-x="348" 
d="M264 17v-17h-268v17h126v641h-110v17h126v-658h126z" />
    <glyph glyph-name="two" unicode="2" horiz-adv-x="508" 
d="M319 340c21.333 21.333 38.335 43.6709 51.002 67.0039s19 49.666 19 78.999c0 26 -4.66699 50.5 -14 73.5s-22 43 -38 60s-35.167 30.333 -57.5 40s-46.5 14.5 -72.5 14.5c-28 0 -54 -5.66699 -78 -17s-44.5 -26.833 -61.5 -46.5s-29.833 -42.334 -38.5 -68.001
s-11.667 -52.834 -9 -81.501h-17c-2.66699 30.667 0.833008 59.834 10.5 87.501s23.667 52 42 73s40.666 37.667 66.999 50s54.5 18.5 84.5 18.5c28 0 54.167 -5.16699 78.5 -15.5s45.166 -24.833 62.499 -43.5s31.333 -40.334 42 -65.001s16 -51.334 16 -80.001
c0 -32 -6.83301 -60.5 -20.5 -85.5s-32.167 -49.167 -55.5 -72.5l-306 -311h386v133h16v-150h-429v12z" />
    <glyph glyph-name="three" unicode="3" horiz-adv-x="478" 
d="M359 529c0 -34 -9.66309 -64.1699 -28.9961 -90.5029s-44.333 -45.166 -75 -56.499c21.333 -6 41 -15.167 59 -27.5s33.667 -27 47 -44s23.666 -36 30.999 -57s11 -43.167 11 -66.5c0 -28 -5.33301 -54.333 -16 -79s-25.334 -46.167 -44.001 -64.5
s-40.167 -32.833 -64.5 -43.5s-50.5 -16 -78.5 -16s-54.333 5.5 -79 16.5s-46.167 25.833 -64.5 44.5s-32.833 40.667 -43.5 66s-16 52.666 -16 81.999h16c0 -28 4.83301 -53.5 14.5 -76.5s23.167 -43.167 40.5 -60.5s37 -30.833 59 -40.5s46.333 -14.5 73 -14.5
c25.333 0 49.333 4.83301 72 14.5s42.334 23.167 59.001 40.5c17.333 17.333 30.833 37 40.5 59s14.5 46 14.5 72s-4.83301 50.333 -14.5 73s-23.167 42.334 -40.5 59.001c-16.667 17.333 -36.334 30.833 -59.001 40.5s-46.667 14.5 -72 14.5h-51v17h51
c18.667 0 36.834 3 54.501 9s33.5 16.333 47.5 31c26.667 25.333 40 58 40 98c0 40.667 -13.333 73.667 -40 99c-12.667 12.667 -27.334 22.667 -44.001 30s-34.667 11 -54 11c-20 0 -38.333 -3.66699 -55 -11s-31.334 -17.333 -44.001 -30s-22.667 -28 -30 -46
s-11 -37.667 -11 -59h-17c0 22.667 4.16699 43.834 12.5 63.501s19.666 36.834 33.999 51.501s31 26.167 50 34.5s39.167 12.5 60.5 12.5s41.333 -4.16699 60 -12.5s35 -19.5 49 -33.5s25.167 -30.5 33.5 -49.5s12.5 -39.167 12.5 -60.5z" />
    <glyph glyph-name="four" unicode="4" horiz-adv-x="551" 
d="M363 148v-131h108v-17h-229v17h105v131h-350v14l349 517h17v-514h108v-17h-108zM347 165v484l-164.5 -241.5l-164.5 -242.5h329z" />
    <glyph glyph-name="five" unicode="5" horiz-adv-x="527" 
d="M13 200c1.33301 -28.667 7.83203 -55.5 19.499 -80.5s27 -46.667 46 -65s41 -32.833 66 -43.5s51.5 -16 79.5 -16c30 0 57.833 5.5 83.5 16.5s48.167 26.167 67.5 45.5s34.166 41.5 44.499 66.5s15.5 52.5 15.5 82.5s-5.16699 57.667 -15.5 83
s-25.166 47.666 -44.499 66.999s-41.833 34.5 -67.5 45.5s-53.5 16.5 -83.5 16.5c-34 0 -65.667 -7.66699 -95 -23s-54 -35.666 -74 -60.999l-14 1l63 340h318v-17h-304l-26 -143.5c-8 -45 -17 -93.167 -27 -144.5c20.667 20.667 44.334 36.667 71.001 48s56 17 88 17
c31.333 0 60.833 -6 88.5 -18s51.834 -28.333 72.501 -49s37 -45 49 -73s18 -57.667 18 -89s-6 -60.833 -18 -88.5s-28.333 -51.667 -49 -72s-44.834 -36.5 -72.501 -48.5s-57.167 -18 -88.5 -18c-30 0 -58.5 5.66699 -85.5 17s-50.667 27 -71 47s-36.833 43.333 -49.5 70
s-19.667 55.667 -21 87h16z" />
    <glyph glyph-name="six" unicode="6" horiz-adv-x="536" 
d="M226 445c32 0 61.832 -6.00098 89.499 -18.001s52 -28.333 73 -49s37.5 -45 49.5 -73s18 -57.667 18 -89c0 -32 -6 -61.833 -18 -89.5s-28.5 -52 -49.5 -73s-45.333 -37.5 -73 -49.5s-57.5 -18 -89.5 -18c-31.333 0 -61 6 -89 18s-52.333 28.5 -73 49.5
s-37 45.333 -49 73s-18 57.5 -18 89.5c0 23.333 4.16699 46.833 12.5 70.5s18.5 44.834 30.5 63.501l111.5 168l111.5 169h19l-187 -283c38.667 27.333 82.334 41 131.001 41zM376.999 63.999c19.333 20 34.5 42.833 45.5 68.5s16.5 53.5 16.5 83.5s-5.5 57.667 -16.5 83
s-26.167 47.666 -45.5 66.999s-41.833 34.666 -67.5 45.999s-53.5 17 -83.5 17s-57.667 -5.66699 -83 -17s-47.666 -26.666 -66.999 -45.999s-34.666 -41.666 -45.999 -66.999s-17 -53 -17 -83s5.66699 -57.833 17 -83.5s26.666 -48.5 45.999 -68.5
c19.333 -19.333 41.666 -34.333 66.999 -45s53 -16 83 -16s57.833 5.33301 83.5 16s48.167 25.667 67.5 45z" />
    <glyph glyph-name="seven" unicode="7" horiz-adv-x="453" 
d="M368 658h-351v-137h-17v154h384v-20l-307 -662h-19z" />
    <glyph glyph-name="eight" unicode="8" horiz-adv-x="486" 
d="M1 185c0 23.333 3.83105 45.666 11.498 66.999s18.334 40.5 32.001 57.5s30 31.667 49 44s39.833 21.5 62.5 27.5c-34 10.667 -61.667 29.5 -83 56.5s-32 57.5 -32 91.5c0 22 4.5 42.5 13.5 61.5s21.333 35.667 37 50s34 25.666 55 33.999s43.5 12.5 67.5 12.5
s46.333 -4.16699 67 -12.5s38.834 -19.666 54.501 -33.999s28 -31 37 -50s13.5 -39.5 13.5 -61.5c0 -34 -10.667 -64.5 -32 -91.5s-49 -45.833 -83 -56.5c22.667 -6 43.5 -15.167 62.5 -27.5s35.5 -27 49.5 -44s24.833 -36.167 32.5 -57.5s11.5 -43.666 11.5 -66.999
c0 -28.667 -5.5 -55.334 -16.5 -80.001s-26.167 -46.167 -45.5 -64.5s-42 -32.833 -68 -43.5s-53.667 -16 -83 -16c-30 0 -57.833 5.33301 -83.5 16s-48.167 25.167 -67.5 43.5s-34.5 39.833 -45.5 64.5s-16.5 51.334 -16.5 80.001zM16.998 185
c0 -26 5.16699 -50.333 15.5 -73s24.333 -42.5 42 -59.5s38.5 -30.333 62.5 -40s49.667 -14.5 77 -14.5c26.667 0 52 4.83301 76 14.5s45 23 63 40s32.167 36.833 42.5 59.5s15.5 47 15.5 73s-5.16699 50.167 -15.5 72.5s-24.5 42 -42.5 59s-39 30.333 -63 40
s-49.333 14.5 -76 14.5c-27.333 0 -53 -4.83301 -77 -14.5s-44.833 -23 -62.5 -40s-31.667 -36.667 -42 -59s-15.5 -46.5 -15.5 -72.5zM56.998 529c0 -19.333 4.16699 -37.333 12.5 -54s19.666 -31.5 33.999 -44.5s31 -23.167 50 -30.5s39.167 -11 60.5 -11
s41.5 3.66699 60.5 11s35.5 17.5 49.5 30.5s25.167 27.833 33.5 44.5s12.5 34.667 12.5 54s-4.16699 37.5 -12.5 54.5s-19.5 32 -33.5 45s-30.5 23.333 -49.5 31s-39.167 11.5 -60.5 11.5s-41.5 -3.83301 -60.5 -11.5s-35.667 -18 -50 -31s-25.666 -28 -33.999 -45
s-12.5 -35.167 -12.5 -54.5z" />
    <glyph glyph-name="nine" unicode="9" horiz-adv-x="540" 
d="M230 231c-32 0 -61.833 6 -89.5 18s-51.834 28.5 -72.501 49.5s-37 45.5 -49 73.5s-18 57.667 -18 89c0 32 6 61.833 18 89.5s28.333 51.834 49 72.501s44.834 37 72.501 49s57.5 18 89.5 18c31.333 0 61 -6 89 -18s52.5 -28.333 73.5 -49s37.5 -44.834 49.5 -72.501
s18 -57.5 18 -89.5c0 -23.333 -4.33301 -47 -13 -71s-18.667 -45 -30 -63l-112 -168l-112 -169h-18l186 282c-18.667 -13.333 -39 -23.5 -61 -30.5s-45.333 -10.5 -70 -10.5zM80 612c-19.333 -19.333 -34.666 -41.833 -45.999 -67.5s-17 -53.5 -17 -83.5
s5.66699 -57.667 17 -83s26.666 -47.666 45.999 -66.999s41.666 -34.666 66.999 -45.999s53 -17 83 -17s57.833 5.66699 83.5 17s48.167 26.666 67.5 45.999s34.5 41.666 45.5 66.999s16.5 53 16.5 83s-5.5 57.833 -16.5 83.5s-26.167 48.167 -45.5 67.5
s-41.833 34.5 -67.5 45.5s-53.5 16.5 -83.5 16.5s-57.667 -5.5 -83 -16.5s-47.666 -26.167 -66.999 -45.5z" />
    <glyph glyph-name="colon" unicode=":" horiz-adv-x="143" 
d="M54 0h-17v100h17v-100zM54 166h-17v100h17v-100z" />
    <glyph glyph-name="semicolon" unicode=";" horiz-adv-x="133" 
d="M34 -59h-18l22 110h17zM54 107h-17v90h17v-90z" />
    <glyph glyph-name="less" unicode="&#x3c;" horiz-adv-x="431" 
d="M320 586l-259 -260l259 -259l-10 -11l-272 270l271 272z" />
    <glyph glyph-name="equal" unicode="=" horiz-adv-x="486" 
d="M57 303v16h363v-16h-363zM57 146v17h363v-17h-363z" />
    <glyph glyph-name="greater" unicode="&#x3e;" horiz-adv-x="369" 
d="M50 598l270 -272l-271 -270l-11 11l260 259l-260 260z" />
    <glyph glyph-name="question" unicode="?" horiz-adv-x="474" 
d="M213 159c0 28.667 4.66699 54.332 14 76.999s21.166 43.667 35.499 63s30 38 47 56s33.167 37.333 48.5 58c22.667 30 34 65 34 105c0 24.667 -4.83301 47.834 -14.5 69.501s-22.667 40.334 -39 56.001s-35.333 28 -57 37s-44.167 13.5 -67.5 13.5
c-26 0 -49.833 -5 -71.5 -15s-40.167 -23.333 -55.5 -40s-27.333 -36 -36 -58s-13 -45 -13 -69h-18c0 27.333 5.16699 53.166 15.5 77.499s24.333 45.5 42 63.5s38.167 32.333 61.5 43s48.333 16 75 16s51.834 -5.16699 75.501 -15.5s44.334 -24.333 62.001 -42
s31.667 -38.167 42 -61.5s15.5 -48.333 15.5 -75c0 -21.333 -3 -42.166 -9 -62.499s-15.667 -38.166 -29 -53.499l-48 -54.5c-16.667 -18.333 -31.834 -37.333 -45.501 -57s-25 -40.334 -34 -62.001s-13.5 -44.834 -13.5 -69.501h-17zM213 91.998h16v-92h-16v92z" />
    <glyph glyph-name="at" unicode="@" 
d="M582 147c-19.333 -26 -40.833 -48.833 -64.5 -68.5s-48.334 -36 -74.001 -49s-52.167 -22.833 -79.5 -29.5s-54 -10 -80 -10c-40.667 0 -78 6.66699 -112 20s-63.167 32.166 -87.5 56.499s-43.333 53.833 -57 88.5s-20.5 73.334 -20.5 116.001
c0 48.667 8 97.167 24 145.5s38.5 91.833 67.5 130.5s63.833 70.167 104.5 94.5s86 36.5 136 36.5c37.333 0 70 -7.66699 98 -23s51.5 -35.833 70.5 -61.5s33.333 -54.667 43 -87s14.5 -65.5 14.5 -99.5c0 -31.333 -3.83301 -59.833 -11.5 -85.5s-16.167 -48 -25.5 -67
s-18.5 -34.333 -27.5 -46s-14.833 -18.834 -17.5 -21.501l-14.5 -14c-5.66699 -5.33301 -11.834 -10.333 -18.501 -15s-13.667 -8.66699 -21 -12s-15 -5 -23 -5c-12 0 -21.667 3.5 -29 10.5s-13.166 15.667 -17.499 26s-7.16602 21.5 -8.49902 33.5s-2 23.333 -2 34l-1 2v1
c0 2 0.333008 4 1 6c-13.333 -32 -31 -56.333 -53 -73s-43.667 -25 -65 -25c-24.667 0 -46.167 11 -64.5 33s-27.5 55.667 -27.5 101c0 26 4 52.667 12 80s18.833 52.166 32.5 74.499s29.5 40.833 47.5 55.5s37 22 57 22c24 0 42.5 -8.33301 55.5 -25s22.167 -36 27.5 -58
c2 12 4.16699 23.167 6.5 33.5s4.16602 19.166 5.49902 26.499c2 8.66699 3.66699 16.667 5 24l17 -1l-4 -22l-8.5 -37.5c-3 -13.667 -5.5 -28.167 -7.5 -43.5c-0.666992 -4 -2 -12.5 -4 -25.5s-4.16699 -28 -6.5 -45s-4.33301 -34.667 -6 -53s-2.5 -35.166 -2.5 -50.499
c0 -9.33301 0.5 -19 1.5 -29s3 -19.5 6 -28.5s7.16699 -16.333 12.5 -22s12 -8.5 20 -8.5c6 0 12.167 1.5 18.5 4.5s12.333 6.5 18 10.5s11 8.33301 16 13l12.5 12c2.66699 2.66699 8.33398 9.66699 17.001 21s17.334 26 26.001 44s16.5 39.167 23.5 63.5
s10.5 51.5 10.5 81.5c0 32 -4.33301 63.167 -13 93.5s-21.834 57.333 -39.501 81s-39.5 42.834 -65.5 57.501s-56.333 22 -91 22c-47.333 0 -90.5 -11.667 -129.5 -35s-72.167 -53.666 -99.5 -90.999s-48.5 -79.166 -63.5 -125.499s-22.5 -92.5 -22.5 -138.5
c0 -44 7.16699 -82.5 21.5 -115.5s33.5 -60.5 57.5 -82.5s51.667 -38.5 83 -49.5s64 -16.5 98 -16.5c24.667 0 50 3.16699 76 9.5s51.167 15.666 75.5 27.999s47.833 28 70.5 47s43 41.167 61 66.5zM350 315c1.33301 4.66699 2.66797 10.667 4.00098 18s2.5 14.5 3.5 21.5
s1.66699 13.333 2 19s0.5 9.16699 0.5 10.5c0 12.667 -1.33301 26 -4 40s-7 27 -13 39s-13.5 21.833 -22.5 29.5s-19.833 12.167 -32.5 13.5c-19.333 -4 -37 -13.833 -53 -29.5s-29.833 -34 -41.5 -55s-20.834 -43.333 -27.501 -67s-10 -45.167 -10 -64.5
c0 -40 7.5 -69.333 22.5 -88s32.5 -28 52.5 -28c12 0 24 3 36 9s23.5 15 34.5 27s20.833 26.667 29.5 44s15 37.333 19 60v1z" />
    <glyph glyph-name="A" unicode="A" horiz-adv-x="866" 
d="M812 17v-17h-230v17h112l-48.5 111l-48.5 112h-380l-100 -223h114v-17h-231v17h100l290 645h-114v17h146l290 -662h100zM590 256l-88.5 203.5l-88.5 202.5h-6l-90.5 -202.5l-91.5 -203.5h365z" />
    <glyph glyph-name="B" unicode="B" horiz-adv-x="584" 
d="M0 679h338.001c24 0 46.333 -4.5 67 -13.5s38.667 -21.333 54 -37s27.333 -33.834 36 -54.501s13 -42.667 13 -66c0 -37.333 -10.5 -70.5 -31.5 -99.5s-47.5 -49.167 -79.5 -60.5c19.333 -4.66699 38 -11.5 56 -20.5s34 -20.5 48 -34.5s25.167 -30.333 33.5 -49
s12.5 -40 12.5 -64c0 -33.333 -6.16699 -61.333 -18.5 -84s-28.5 -41.167 -48.5 -55.5s-42.333 -24.666 -67 -30.999s-49.334 -9.5 -74.001 -9.5h-339v17h106v645h-106v17zM122.001 338v-321.001h217c22.667 0 45.334 2.83301 68.001 8.5s43.167 15 61.5 28
s33.166 29.833 44.499 50.5s17 46 17 76c0 26.667 -5.5 49.667 -16.5 69s-25.333 35.5 -43 48.5s-37.5 22.833 -59.5 29.5s-44 10.334 -66 11.001h-223zM122.001 661.999v-306.999h216c21.333 0 41.333 4 60 12s35 19 49 33s25 30.167 33 48.5s12 38.166 12 59.499
s-4 41.333 -12 60s-19 35 -33 49s-30.333 25 -49 33s-38.667 12 -60 12h-216z" />
    <glyph glyph-name="C" unicode="C" horiz-adv-x="713" 
d="M668 154c-17.333 -26 -37.167 -49.668 -59.5 -71.001s-46.666 -39.833 -72.999 -55.5s-54.333 -27.667 -84 -36s-60.167 -12.5 -91.5 -12.5c-50 0 -96.833 9.5 -140.5 28.5s-81.667 44.833 -114 77.5s-58 70.834 -77 114.501s-28.5 90.167 -28.5 139.5
c0 50 9.5 96.833 28.5 140.5s44.667 81.667 77 114s70.333 58 114 77s90.5 28.5 140.5 28.5c54 0 104.5 -11.333 151.5 -34s87.167 -52.334 120.5 -89.001v112h17v-145h-13c-32 42.667 -71.833 76.667 -119.5 102s-99.834 38 -156.501 38c-48 0 -92.667 -8.83301 -134 -26.5
s-78 -42.167 -110 -73.5c-30.667 -31.333 -54.834 -67.833 -72.501 -109.5s-26.5 -86.5 -26.5 -134.5s8.83301 -92.667 26.5 -134s41.834 -77.666 72.501 -108.999c32 -31.333 68.667 -55.833 110 -73.5s86 -26.5 134 -26.5c60.667 0 116 14.333 166 43s91 67 123 115h19z
" />
    <glyph glyph-name="D" unicode="D" horiz-adv-x="689" 
d="M307 679c46.667 0 90.834 -8.99805 132.501 -26.998s78 -42.5 109 -73.5s55.5 -67.333 73.5 -109s27 -85.834 27 -132.501c0 -47.333 -9 -91.333 -27 -132s-42.5 -76.334 -73.5 -107.001s-67.333 -54.667 -109 -72s-85.834 -26 -132.501 -26h-307v17h109v645h-109v17h307
zM632 338.002c0 44.667 -8.5 86.5 -25.5 125.5s-40.5 73.5 -70.5 103.5s-64.167 53.333 -102.5 70s-80.5 25 -126.5 25h-181v-645h181c46 0 88.167 8.16699 126.5 24.5s72.5 39.5 102.5 69.5s53.5 63.833 70.5 101.5s25.5 79.167 25.5 124.5v1z" />
    <glyph glyph-name="E" unicode="E" horiz-adv-x="567" 
d="M500 521v141h-375v-311h311v-17h-311v-317h375v138h16v-155h-516v17h108v645h-108v17h516v-158h-16z" />
    <glyph glyph-name="F" unicode="F" horiz-adv-x="567" 
d="M516 679v-158h-16v141h-375v-311h320v-17h-320v-317h104v-17h-229v17h108v645h-108v17h516z" />
    <glyph glyph-name="G" unicode="G" horiz-adv-x="763" 
d="M710 -9h-17.002v204c-6 -12 -12.167 -23.333 -18.5 -34s-10.166 -16.667 -11.499 -18c-16 -24 -35 -46.167 -57 -66.5s-46 -37.833 -72 -52.5s-53.667 -26 -83 -34s-59.666 -12 -90.999 -12c-50 0 -96.833 9.5 -140.5 28.5s-81.667 44.833 -114 77.5
s-58 70.834 -77 114.501s-28.5 90.167 -28.5 139.5c0 50 9.5 96.833 28.5 140.5s44.667 81.667 77 114s70.333 58 114 77s90.5 28.5 140.5 28.5c56.667 0.666992 108.667 -9.5 156 -30.5s89 -57.167 125 -108.5v128h17v-161h-14c-35.333 55.333 -77.333 95.166 -126 119.499
s-101.334 36.5 -158.001 36.5c-48 0 -92.667 -8.83301 -134 -26.5s-77.666 -42.167 -108.999 -73.5s-55.833 -67.833 -73.5 -109.5s-26.5 -86.5 -26.5 -134.5s8.83301 -92.667 26.5 -134s42.167 -77.666 73.5 -108.999s67.666 -55.833 108.999 -73.5s86 -26.5 134 -26.5
c61.333 0 117.5 14.667 168.5 44s92.167 68.333 123.5 117c1.33301 1.33301 4.16602 5.66602 8.49902 12.999s8.83301 16 13.5 26s8.83398 20.5 12.501 31.5s5.83398 21.167 6.50098 30.5v9h-303v17h320v-292z" />
    <glyph glyph-name="H" unicode="H" horiz-adv-x="743" 
d="M586 662v-645h104v-17h-229v17h108v318h-445v-318h105v-17h-229v17h107v645h-107v17h229v-17h-105v-310h445v310h-108v17h229v-17h-104z" />
    <glyph glyph-name="I" unicode="I" horiz-adv-x="276" 
d="M123 17h106v-17h-229v17h106v645h-106v17h229v-17h-106v-645z" />
    <glyph glyph-name="J" unicode="J" horiz-adv-x="476" 
d="M320 662l-0.00195312 -498.002c0 -2 -0.166992 -6 -0.5 -12s-1.33301 -13.167 -3 -21.5s-4 -17.666 -7 -27.999s-6.83301 -20.5 -11.5 -30.5c-11.333 -21.333 -28.166 -40.333 -50.499 -57s-52.833 -25 -91.5 -25c-38 0 -67.667 7.33301 -89 22
s-36.666 30.667 -45.999 48c-5.33301 8.66699 -9.33301 17.667 -12 27s-4.66699 17.666 -6 24.999s-2.16602 13.333 -2.49902 18l-0.5 7h17c1.33301 -13.333 3.16602 -25.166 5.49902 -35.499s6.16602 -21.166 11.499 -32.499c8.66699 -16 22.334 -30.333 41.001 -43
s45.667 -19 81 -19c36 0 64 7.5 84 22.5s34.667 31.833 44 50.5c4.66699 8.66699 8.33398 17.667 11.001 27s4.66699 18 6 26s2.16602 14.667 2.49902 20s0.5 9 0.5 11v498h-108v17h229v-17h-105z" />
    <glyph glyph-name="K" unicode="K" horiz-adv-x="666" 
d="M614 17v-17h-229v17h103l-358 343l334 302h-98v17h229v-17h-107l-335 -302l359 -343h102zM123 17h106v-17h-229v17h106v645h-106v17h229v-17h-106v-645z" />
    <glyph glyph-name="L" unicode="L" horiz-adv-x="530" 
d="M480 155v-155h-483v17h108v645h-105v17h229v-17h-107v-645h341v138h17z" />
    <glyph glyph-name="M" unicode="M" horiz-adv-x="970" 
d="M916 662h-107v-645h105v-17h-229v17h107v645h-3l-344 -662h-13l-305 662h-1v-645h104v-17h-230v17h109v645h-109v17h139l300 -653l340 653h137v-17z" />
    <glyph glyph-name="N" unicode="N" horiz-adv-x="785" 
d="M731 662h-107v-662h-17l-484 662h-3v-645h108v-17h-230v17h105v645h-103v17h134l474 -650v633h-107v17h230v-17z" />
    <glyph glyph-name="O" unicode="O" horiz-adv-x="766" 
d="M0 339c0 50 9.5 96.833 28.5 140.5s44.667 82 77 115s70.5 59 114.5 78s91 28.5 141 28.5s96.833 -9.5 140.5 -28.5s81.834 -45 114.501 -78s58.5 -71.333 77.5 -115s28.5 -90.5 28.5 -140.5s-9.5 -96.833 -28.5 -140.5s-44.833 -81.834 -77.5 -114.501
s-70.834 -58.5 -114.501 -77.5s-90.5 -28.5 -140.5 -28.5s-97 9.5 -141 28.5s-82.167 44.833 -114.5 77.5s-58 70.834 -77 114.501s-28.5 90.5 -28.5 140.5zM17 339c0 -47.333 9 -92 27 -134s42.5 -78.5 73.5 -109.5s67.5 -55.5 109.5 -73.5s86.667 -27 134 -27s92 9 134 27
s78.667 42.5 110 73.5s56 67.5 74 109.5s27 86.667 27 134s-9 92 -27 134s-42.667 78.667 -74 110s-68 56 -110 74s-86.667 27 -134 27s-92 -9 -134 -27s-78.5 -42.667 -109.5 -74s-55.5 -68 -73.5 -110s-27 -86.667 -27 -134z" />
    <glyph glyph-name="P" unicode="P" horiz-adv-x="556" 
d="M0 679l308 0.000976562c27.333 0 53 -5.16699 77 -15.5s44.833 -24.5 62.5 -42.5s31.667 -39 42 -63s15.5 -49.667 15.5 -77s-5.16699 -52.833 -15.5 -76.5s-24.333 -44.334 -42 -62.001s-38.5 -31.667 -62.5 -42s-49.667 -15.5 -77 -15.5h-185v-268h108v-17h-231v17h106
v645h-106v17zM123 662.001v-360h185c24.667 0 48 4.66699 70 14s41.167 22.166 57.5 38.499s29.333 35.333 39 57s14.5 44.834 14.5 69.501s-4.83301 48 -14.5 70s-22.667 41.333 -39 58s-35.5 29.667 -57.5 39s-45.333 14 -70 14h-185z" />
    <glyph glyph-name="Q" unicode="Q" horiz-adv-x="849" 
d="M2 342c0 50 9.5 97 28.5 141s44.833 82.5 77.5 115.5s71 59 115 78s91 28.5 141 28.5s97.167 -9.5 141.5 -28.5s82.833 -45 115.5 -78s58.5 -71.5 77.5 -115.5s28.5 -91 28.5 -141c0 -54 -11 -104.5 -33 -151.5s-52 -87.5 -90 -121.5
c35.333 -17.333 71 -29.833 107 -37.5s71.333 -13.167 106 -16.5v-17c-36.667 3.33301 -74.167 9.33301 -112.5 18s-76.833 22.667 -115.5 42c-30.667 -24.667 -65.167 -44 -103.5 -58s-78.833 -21 -121.5 -21c-50 0 -97 9.5 -141 28.5s-82.333 44.833 -115 77.5
s-58.5 71.167 -77.5 115.5s-28.5 91.5 -28.5 141.5zM18 342c0 -44 8.33301 -86.667 25 -128c14 3.33301 29.833 5.83301 47.5 7.5s36.5 2.5 56.5 2.5c38 0 77.167 -3.16699 117.5 -9.5s77.5 -16.166 111.5 -29.499c23.333 -10 48.666 -22 75.999 -36l83 -44l52 -27
c38 32 68 70.667 90 116s33 94.666 33 147.999c0 48 -9 93 -27 135s-42.667 78.667 -74 110s-68 56 -110 74s-87 27 -135 27c-47.333 0 -92 -9 -134 -27s-78.667 -42.667 -110 -74s-56.166 -68 -74.499 -110s-27.5 -87 -27.5 -135zM364 -4
c39.333 0 76.6689 6.16797 112.002 18.501s67.666 29.5 96.999 51.5c-6.66699 3.33301 -12.5 6.5 -17.5 9.5l-16.5 9.5l-82.5 43.5c-27.667 14.333 -56.5 27.5 -86.5 39.5c-34 13.333 -70.5 23.166 -109.5 29.499s-76.5 9.5 -112.5 9.5c-38 0 -71 -3 -99 -9
c14 -29.333 31.667 -56.333 53 -81s45.666 -46 72.999 -64s57 -32 89 -42s65.333 -15 100 -15z" />
    <glyph glyph-name="R" unicode="R" horiz-adv-x="626" 
d="M0 679l294 -0.00292969c44 -3.33301 83.667 -13.333 119 -30c14.667 -7.33301 29.167 -16.166 43.5 -26.499s27.166 -23.166 38.499 -38.499s20.5 -33 27.5 -53s10.5 -43 10.5 -69c-0.666992 -35.333 -9.16699 -65.666 -25.5 -90.999s-36.5 -46.333 -60.5 -63
s-50 -29.334 -78 -38.001s-54.333 -14 -79 -16l91.5 -119l91.5 -118h101v-17h-111l-208 269c24.667 1.33301 52 5.16602 82 11.499s58.167 16.833 84.5 31.5s48.5 34.167 66.5 58.5s27 54.833 27 91.5c0 24.667 -3.16699 46.334 -9.5 65.001s-14.666 35 -24.999 49
s-22 26 -35 36s-26.5 18 -40.5 24c-32 14.667 -69 23.334 -111 26.001h-173v-645h108v-17h-229v17h105v645h-105v17z" />
    <glyph glyph-name="S" unicode="S" horiz-adv-x="471" 
d="M211 -10c-23.333 1.33301 -45.3262 6.1709 -65.9932 14.5039s-39.334 19.166 -56.001 32.499s-31.167 29 -43.5 47s-21.833 37.333 -28.5 58v-142h-17v216h17c2.66699 -26.667 9.16699 -52.334 19.5 -77.001s23.833 -46.5 40.5 -65.5s36.334 -34.5 59.001 -46.5
s47.667 -18.667 75 -20c24 -1.33301 47.667 1.16699 71 7.5s44.166 15.833 62.499 28.5s33.166 28.667 44.499 48s17 41.666 17 66.999c0 28.667 -6 53.5 -18 74.5s-27.167 39 -45.5 54s-39 27 -62 36s-45.5 15.5 -67.5 19.5c-23.333 4.66699 -46.666 11.667 -69.999 21
s-44.166 21.666 -62.499 36.999s-33.333 33.5 -45 54.5s-17.5 45.167 -17.5 72.5c0 26 4.66699 49.833 14 71.5s22 40.167 38 55.5s34.833 27.333 56.5 36s45.167 12.667 70.5 12c37.333 -1.33301 69 -11.333 95 -30s45.333 -43 58 -73v93h16v-148h-15
c-8.66699 39.333 -26.5 72 -53.5 98s-60.5 40 -100.5 42c-22.667 0.666992 -43.834 -3 -63.501 -11s-36.834 -19.333 -51.501 -34s-26.334 -31.667 -35.001 -51s-13 -39.666 -13 -60.999c0 -25.333 5.5 -47.5 16.5 -66.5s25.167 -35.5 42.5 -49.5s36.666 -25.333 57.999 -34
s42.666 -15 63.999 -19c27.333 -5.33301 53.666 -13.5 78.999 -24.5s47.666 -24.667 66.999 -41s34.666 -35.666 45.999 -57.999s17 -47.5 17 -75.5c0 -28.667 -6.5 -53.834 -19.5 -75.501s-29.667 -39.667 -50 -54s-43.166 -24.833 -68.499 -31.5
s-50.333 -9.33398 -75 -8.00098z" />
    <glyph glyph-name="T" unicode="T" horiz-adv-x="526" 
d="M476 515h-17v147h-212v-645h106v-17h-229v17h106v645h-213v-147h-17v164h476v-164z" />
    <glyph glyph-name="U" unicode="U" horiz-adv-x="681" 
d="M629 662h-110.998v-473c0 -28 -5.33301 -54.333 -16 -79s-25.334 -46.334 -44.001 -65.001s-40.167 -33.334 -64.5 -44.001s-50.5 -16 -78.5 -16s-54.167 5.33301 -78.5 16s-45.833 25.334 -64.5 44.001s-33.334 40.334 -44.001 65.001s-16 51 -16 79v473h-111v17h232
v-17h-104v-473c0 -26 4.83301 -50.333 14.5 -73s23.167 -42.334 40.5 -59.001c16.667 -17.333 36.167 -30.833 58.5 -40.5s46.5 -14.5 72.5 -14.5s50.167 4.83301 72.5 14.5s42.166 23.167 59.499 40.5c16.667 16.667 29.834 36.334 39.501 59.001s14.5 47 14.5 73v473h-104
v17h232v-17z" />
    <glyph glyph-name="V" unicode="V" horiz-adv-x="836" 
d="M782 662h-99l-285 -662h-14l-284 662h-100v17h229v-17h-110l136.5 -315.5l136.5 -316.5l272 632h-113v17h231v-17z" />
    <glyph glyph-name="W" unicode="W" horiz-adv-x="1032" 
d="M975 662h-101l-189 -662h-16l-176 626l-90 -313l-90 -313h-16l-192 662h-105v17h231v-17h-108l45.5 -158.5l45 -154.5l45.5 -154.5l46 -158.5l180 628h16l176 -630l178 628h-111v17h231v-17z" />
    <glyph glyph-name="X" unicode="X" horiz-adv-x="712" 
d="M668 17v-17h-231v17h116l-217 319l-54.5 -80.5l-52.5 -78.5l-52.5 -78.5l-54.5 -81.5h108v-17h-230v17h102l224 334l-104.5 155.5l-104.5 155.5h-98v17h230v-17h-112l99 -148l101 -148l99 147.5l99 148.5h-117v17h230v-17h-94l-207 -311l112.5 -167l113.5 -167h95z" />
    <glyph glyph-name="Y" unicode="Y" horiz-adv-x="703" 
d="M344 230v-213h107v-17h-231v17h107v214l-112 215.5l-112 215.5h-103v17h230v-17h-108l107 -204.5l107 -205.5l202 410h-118v17h230v-17h-94z" />
    <glyph glyph-name="Z" unicode="Z" horiz-adv-x="503" 
d="M405 662h-381v-139h-17v156h420v-12l-405 -650h413v137h17v-154h-452v12z" />
    <glyph glyph-name="bracketleft" unicode="[" horiz-adv-x="314" 
d="M77 -63v753h147v-16h-130v-720h130v-17h-147z" />
    <glyph glyph-name="backslash" unicode="\" horiz-adv-x="304" 
d="M237 1h-18l-178 607h17z" />
    <glyph glyph-name="bracketright" unicode="]" horiz-adv-x="314" 
d="M77 -63v17h131v720h-131v16h147v-753h-147z" />
    <glyph glyph-name="asciicircum" unicode="^" horiz-adv-x="697" 
d="M47 624l243 272l241 -273l-12 -11l-230 260l-115 -130.5l-115 -129.5z" />
    <glyph glyph-name="underscore" unicode="_" horiz-adv-x="433" 
d="M45 17h332v-17h-332v17z" />
    <glyph glyph-name="grave" unicode="`" horiz-adv-x="257" 
d="M181 548h-19l-125 178h19z" />
    <glyph glyph-name="a" unicode="a" horiz-adv-x="678" 
d="M507 483v-466h104v-17h-121v156c-9.33301 -23.333 -22 -44.833 -38 -64.5s-34.167 -36.667 -54.5 -51s-42.666 -25.5 -66.999 -33.5s-49.833 -12 -76.5 -12c-35.333 0 -68.333 6.66699 -99 20s-57.5 31.5 -80.5 54.5s-41.167 49.833 -54.5 80.5s-20 63.667 -20 99
c0 34.667 6.66699 67.5 20 98.5s31.5 58 54.5 81s49.833 41.167 80.5 54.5s63.667 20 99 20c26.667 0 52.167 -4 76.5 -12s46.666 -19.167 66.999 -33.5s38.5 -31.333 54.5 -51s28.667 -41.167 38 -64.5v158h121v-17h-104zM422 81c19.333 19.333 34.833 41.332 46.5 65.999
s18.834 51.667 21.501 81v43c-2.66699 28.667 -9.83398 55.334 -21.501 80.001s-27.167 46.667 -46.5 66c-21.333 21.333 -46.333 38.166 -75 50.499s-59.667 18.5 -93 18.5c-34 0 -65.167 -6.16699 -93.5 -18.5s-53.166 -29.166 -74.499 -50.499s-38.333 -46.5 -51 -75.5
s-19 -59.833 -19 -92.5c0 -33.333 6.33301 -64.333 19 -93s29.667 -53.667 51 -75s46.166 -38.166 74.499 -50.499s59.5 -18.5 93.5 -18.5c33.333 0 64.333 6.16699 93 18.5s53.667 29.166 75 50.499z" />
    <glyph glyph-name="b" unicode="b" horiz-adv-x="667" 
d="M357 498c35.333 0 68.332 -6.66699 98.999 -20s57.5 -31.333 80.5 -54s41.167 -49.5 54.5 -80.5s20 -63.833 20 -98.5c0 -35.333 -6.66699 -68.5 -20 -99.5s-31.5 -58 -54.5 -81s-49.833 -41.167 -80.5 -54.5s-63.667 -20 -99 -20c-26.667 0 -52.167 4 -76.5 12
s-46.666 19.167 -66.999 33.5s-38.5 31.5 -54.5 51.5s-28.667 41.667 -38 65v-152h-121v17h104v641h-104v17h121v-338c9.33301 24 22 45.833 38 65.5s34.333 36.5 55 50.5s43.167 25 67.5 33s49.5 12 75.5 12zM524.999 76c21.333 21.333 38.167 46.335 50.5 75.002
s18.5 60 18.5 94c0 33.333 -6.16699 64.166 -18.5 92.499s-29.166 53.166 -50.499 74.499s-46.166 38.166 -74.499 50.499s-59.5 18.5 -93.5 18.5c-33.333 0 -64.166 -6.16699 -92.499 -18.5s-53.166 -29.166 -74.499 -50.499c-20 -19.333 -35.833 -41.5 -47.5 -66.5
s-18.834 -52.167 -21.501 -81.5v-38c5.33301 -60 28.333 -110 69 -150c21.333 -21.333 46.166 -38 74.499 -50s59.166 -18 92.499 -18c34 0 65.167 6 93.5 18s53.166 28.667 74.499 50z" />
    <glyph glyph-name="c" unicode="c" horiz-adv-x="553" 
d="M501 157c-10 -24 -23.334 -46.165 -40.001 -66.498s-35.5 -37.833 -56.5 -52.5s-43.833 -26.167 -68.5 -34.5s-50.334 -12.5 -77.001 -12.5c-36 0 -69.667 6.66699 -101 20s-58.666 31.666 -81.999 54.999s-41.666 50.666 -54.999 81.999s-20 65 -20 101
s6.66699 69.667 20 101s31.666 58.666 54.999 81.999s50.666 41.833 81.999 55.5s65 20.5 101 20.5c44 0 84.333 -9.83301 121 -29.5s66.667 -46.5 90 -80.5v101h16v-138h-13c-21.333 38.667 -50.833 70 -88.5 94s-79.5 36 -125.5 36
c-33.333 0 -64.666 -6.33301 -93.999 -19s-54.833 -30 -76.5 -52s-38.834 -47.667 -51.501 -77s-19 -60.666 -19 -93.999s6.33301 -64.666 19 -93.999s29.834 -54.833 51.501 -76.5s47.167 -38.834 76.5 -51.501s60.666 -19 93.999 -19c24.667 0 48.334 3.66699 71.001 11
s43.834 17.5 63.501 30.5s37 28.667 52 47s27.5 38.5 37.5 60.5h18z" />
    <glyph glyph-name="d" unicode="d" horiz-adv-x="666" 
d="M254 498c26 0 51.166 -4 75.499 -12s46.833 -19 67.5 -33s39 -30.833 55 -50.5s28.667 -41.5 38 -65.5v342h121v-17h-104v-645h104v-17h-121v152c-9.33301 -23.333 -22 -45 -38 -65s-34.167 -37.167 -54.5 -51.5s-42.666 -25.5 -66.999 -33.5s-49.833 -12 -76.5 -12
c-35.333 0 -68.333 6.66699 -99 20s-57.5 31.5 -80.5 54.5s-41.167 50 -54.5 81s-20 64.167 -20 99.5c0 34.667 6.66699 67.5 20 98.5s31.5 57.833 54.5 80.5s49.833 40.667 80.5 54s63.667 20 99 20zM85.999 76c21.333 -21.333 46.167 -38.002 74.5 -50.002
s59.5 -18 93.5 -18c33.333 0 64.166 6 92.499 18s53.166 28.667 74.499 50c40.667 40 63.667 90 69 150v38c-2.66699 29.333 -9.83398 56.5 -21.501 81.5s-27.5 47.167 -47.5 66.5c-21.333 21.333 -46.166 38.166 -74.499 50.499s-59.166 18.5 -92.499 18.5
c-34 0 -65.167 -6.16699 -93.5 -18.5s-53.166 -29.166 -74.499 -50.499s-38.333 -46.166 -51 -74.499s-19 -59.166 -19 -92.499c0 -34 6.33301 -65.333 19 -94s29.667 -53.667 51 -75z" />
    <glyph glyph-name="e" unicode="e" horiz-adv-x="563" 
d="M17 242c0.666992 -32 7.66504 -62.1641 20.998 -90.4971s30.833 -53 52.5 -74s46.834 -37.667 75.501 -50s59 -18.5 91 -18.5c24.667 0 48.5 3.5 71.5 10.5s44.167 17 63.5 30s36.666 28.5 51.999 46.5s27.666 38 36.999 60h17c-10 -24 -23.333 -46 -40 -66
s-35.5 -37.333 -56.5 -52s-43.667 -26 -68 -34s-49.833 -12 -76.5 -12c-35.333 0 -68.666 6.66699 -99.999 20s-58.666 31.666 -81.999 54.999s-41.666 50.666 -54.999 81.999s-20 64.666 -20 99.999c0 36 6.5 69.667 19.5 101s30.667 58.833 53 82.5
s48.833 42.167 79.5 55.5s63.667 20 99 20c36 0 69.667 -7 101 -21s58.833 -33 82.5 -57s42.167 -52.167 55.5 -84.5s20 -66.833 20 -103.5h-493zM250.998 491.003c-32 0 -61.832 -6.16699 -89.499 -18.5s-52 -29 -73 -50s-37.833 -45.5 -50.5 -73.5s-19.667 -58 -21 -90
h476c-2 32 -9.66699 62 -23 90s-30.833 52.5 -52.5 73.5s-46.834 37.667 -75.501 50s-59 18.5 -91 18.5z" />
    <glyph glyph-name="f" unicode="f" horiz-adv-x="320" 
d="M258 667c-25.333 -2 -47.999 -9.00098 -67.999 -21.001c-17.333 -10.667 -33 -27.167 -47 -49.5s-21 -53.833 -21 -94.5v-15h132v-16h-132v-454h107v-17h-229v17h105v454h-105v16h105v15c0 22.667 2.16699 42.667 6.5 60s10 32.333 17 45s15.167 23.334 24.5 32.001
s18.666 16 27.999 22c22 13.333 47.667 21 77 23v-17z" />
    <glyph glyph-name="g" unicode="g" horiz-adv-x="665" 
d="M615 500l-0.000976562 -17.002h-107v-413c0 -34.667 -6.66699 -67.5 -20 -98.5s-31.5 -58 -54.5 -81s-50 -41.167 -81 -54.5s-63.833 -20 -98.5 -20c-51.333 0 -98.166 14.5 -140.499 43.5s-74.166 67.5 -95.499 115.5h18c9.33301 -21.333 21.5 -40.666 36.5 -57.999
s32 -32.166 51 -44.499s39.5 -22 61.5 -29s45 -10.5 69 -10.5c33.333 0 64.333 6.16699 93 18.5s53.667 29.166 75 50.499s38.166 46.333 50.499 75s18.5 59.667 18.5 93v98c-9.33301 -22.667 -22 -44 -38 -64s-34.333 -37.333 -55 -52s-43.334 -26.167 -68.001 -34.5
s-50 -12.5 -76 -12.5c-35.333 0 -68.333 6.66699 -99 20s-57.5 31.5 -80.5 54.5s-41.167 49.833 -54.5 80.5s-20 63.667 -20 99c0 34.667 6.66699 67.334 20 98.001s31.5 57.5 54.5 80.5s49.833 41.167 80.5 54.5s63.667 20 99 20c27.333 0 53.5 -4 78.5 -12
s47.667 -19.167 68 -33.5s38.333 -31.5 54 -51.5s27.834 -42 36.501 -66v151h124zM421.999 89.998c21.333 22 38.166 47.167 50.499 75.5s18.5 59.5 18.5 93.5c0 32.667 -6.16699 63.334 -18.5 92.001s-29.166 53.667 -50.499 75c-21.333 22 -46.5 39 -75.5 51
s-59.833 18 -92.5 18c-34 0 -65.167 -6 -93.5 -18s-53.166 -29 -74.499 -51c-21.333 -21.333 -38.333 -46.333 -51 -75s-19 -59.334 -19 -92.001c0 -34 6.33301 -65.167 19 -93.5s29.667 -53.5 51 -75.5c21.333 -21.333 46.166 -38.166 74.499 -50.499
s59.5 -18.5 93.5 -18.5c32.667 0 63.5 6.16699 92.5 18.5s54.167 29.166 75.5 50.499z" />
    <glyph glyph-name="h" unicode="h" horiz-adv-x="670" 
d="M611 17l-0.00390625 -17h-229v17h105v269c0 26 -4.16699 50.167 -12.5 72.5s-20.166 42 -35.499 59s-34.166 30.333 -56.499 40s-47.5 14.5 -75.5 14.5c-25.333 0 -49.166 -4.83301 -71.499 -14.5s-42.166 -23.167 -59.499 -40.5
c-16.667 -16.667 -29.667 -36.167 -39 -58.5s-14 -46.5 -14 -72.5v-269h108v-17h-231v17h106v645h-106v17h123v-312c15.333 36 39.5 65.167 72.5 87.5s70.167 33.5 111.5 33.5c30 0 57.333 -5.33301 82 -16s45.334 -25 62.001 -43
c17.333 -18.667 30.666 -40.167 39.999 -64.5s14 -50.5 14 -78.5v-269h106z" />
    <glyph glyph-name="i" unicode="i" horiz-adv-x="281" 
d="M124 17h105v-17h-230v17h109v454h-108v16h124v-470zM124 675v-91h-16v91h16z" />
    <glyph glyph-name="j" unicode="j" horiz-adv-x="206" 
d="M106 675h17v-91h-17v91zM0 -156c22.667 1.33301 40.833 7.16797 54.5 17.501s24.334 23.333 32.001 39s12.834 33 15.501 52s4 37.5 4 55.5v476h-106v16h123v-492c-0.666992 -22 -2.83398 -43.667 -6.50098 -65s-10 -40.5 -19 -57.5s-21.333 -30.833 -37 -41.5
s-35.834 -16.334 -60.501 -17.001v17z" />
    <glyph glyph-name="k" unicode="k" horiz-adv-x="583" 
d="M124 17h106v-17h-230v17h108v641h-108v17h124v-658zM524 17v-17h-235v17h106l-260 260l227 196h-106v16h232v-16h-99l-230 -199l258 -257h107z" />
    <glyph glyph-name="l" unicode="l" horiz-adv-x="265" 
d="M227 17v-17h-232v17h111v645h-108v17h124v-662h105z" />
    <glyph glyph-name="m" unicode="m" horiz-adv-x="1003" 
d="M944 17l-0.00195312 -16.999h-228v17h106v280c0 25.333 -3.83301 49.5 -11.5 72.5s-19 43 -34 60s-33.167 30.5 -54.5 40.5s-46 15 -74 15c-25.333 0 -48.166 -4.83301 -68.499 -14.5s-37.833 -23.167 -52.5 -40.5s-25.834 -37.333 -33.501 -60
s-11.834 -46.667 -12.501 -72v-281h104v-17h-230v17h110v281c0 25.333 -4 49.333 -12 72s-19.333 42.5 -34 59.5s-32.834 30.5 -54.501 40.5s-46.167 15 -73.5 15c-25.333 0 -48.166 -4.83301 -68.499 -14.5s-37.833 -23.167 -52.5 -40.5
c-15.333 -17.333 -27 -37.5 -35 -60.5s-12 -47.167 -12 -72.5v-280h105v-17h-228v17h106v466h-105v17h122v-115l15 29c5.33301 10 11.333 18.667 18 26c16 19.333 35.333 34.5 58 45.5s48.334 16.5 77.001 16.5c30.667 0 57.834 -5.5 81.501 -16.5s43.5 -26.167 59.5 -45.5
c9.33301 -11.333 17.5 -23 24.5 -35s12.167 -26.333 15.5 -43c9.33301 30.667 23 56.667 41 78c16.667 19.333 36.334 34.5 59.001 45.5s48 16.5 76 16.5c30 0 56.833 -5.33301 80.5 -16s43.667 -25.334 60 -44.001s28.833 -40.5 37.5 -65.5s13 -51.5 13 -79.5v-280h105z
" />
    <glyph glyph-name="n" unicode="n" horiz-adv-x="671" 
d="M615 17v-16.999h-229v17h109v283c0 25.333 -4.66699 49.333 -14 72s-22.333 42.667 -39 60s-36.834 31 -60.501 41s-49.5 15 -77.5 15c-25.333 0 -49 -4.83301 -71 -14.5s-41 -23.167 -57 -40.5c-17.333 -18 -30.666 -38.333 -39.999 -61s-14 -46.667 -14 -72v-283h106
v-17h-229v17h106v466h-105v17h122v-120c15.333 36.667 39 66.667 71 90s69 35 111 35c30.667 0 58.667 -5.5 84 -16.5s47 -26.167 65 -45.5c18.667 -18.667 33 -40.334 43 -65.001s15 -50.667 15 -78v-283h104z" />
    <glyph glyph-name="o" unicode="o" horiz-adv-x="560" 
d="M0 249c0 36 6.66699 69.667 20 101s31.666 58.833 54.999 82.5s50.666 42.167 81.999 55.5s65 20 101 20s69.667 -6.66699 101 -20s58.833 -31.833 82.5 -55.5s42.167 -51.167 55.5 -82.5s20 -65 20 -101s-6.66699 -69.667 -20 -101s-31.833 -58.666 -55.5 -81.999
s-51.167 -41.666 -82.5 -54.999s-65 -20 -101 -20s-69.667 6.66699 -101 20s-58.666 31.666 -81.999 54.999s-41.666 50.666 -54.999 81.999s-20 65 -20 101zM17 249c0 -33.333 6.33301 -64.666 19 -93.999s29.834 -54.833 51.501 -76.5s47.167 -38.834 76.5 -51.501
s60.666 -19 93.999 -19s64.666 6.33301 93.999 19s55 29.834 77 51.501s39.333 47.167 52 76.5s19 60.666 19 93.999s-6.33301 64.666 -19 93.999s-30 55 -52 77s-47.667 39.333 -77 52s-60.666 19 -93.999 19s-64.666 -6.33301 -93.999 -19s-54.833 -30 -76.5 -52
s-38.834 -47.667 -51.501 -77s-19 -60.666 -19 -93.999z" />
    <glyph glyph-name="p" unicode="p" horiz-adv-x="660" 
d="M124 343c8.66699 24 20.834 46 36.501 66s33.834 37.333 54.501 52s43.334 26 68.001 34s50.667 12 78 12c35.333 0 68.5 -6.66699 99.5 -20s58 -31.5 81 -54.5s41.167 -50 54.5 -81s20 -64.167 20 -99.5s-6.66699 -68.333 -20 -99s-31.5 -57.5 -54.5 -80.5
s-50 -41.167 -81 -54.5s-64.167 -20 -99.5 -20c-27.333 0 -53.333 4 -78 12s-47.334 19.167 -68.001 33.5s-38.834 31.5 -54.501 51.5s-27.834 42 -36.501 66v-317h106v-17h-228v17h105v639h-105v17h122v-157zM124 252c0 -32.667 6.16504 -63.333 18.498 -92
s29.333 -53.834 51 -75.501s46.834 -38.667 75.501 -51s59.334 -18.5 92.001 -18.5s63.5 6.16699 92.5 18.5s54.167 29.333 75.5 51s38.333 46.834 51 75.501s19 59.334 19 92.001s-6.33301 63.5 -19 92.5s-29.667 54.167 -51 75.5s-46.5 38.333 -75.5 51
s-59.833 19 -92.5 19c-31.333 0 -61 -6 -89 -18s-52.667 -28.5 -74 -49.5s-38.5 -45.333 -51.5 -73s-20.5 -56.834 -22.5 -87.501v-10z" />
    <glyph glyph-name="q" unicode="q" horiz-adv-x="665" 
d="M490 500l122 -0.000976562v-17h-105v-639h105v-17h-229v17h107v317c-9.33301 -24 -21.666 -46 -36.999 -66s-33.333 -37.167 -54 -51.5s-43.334 -25.5 -68.001 -33.5s-50.667 -12 -78 -12c-35.333 0 -68.5 6.66699 -99.5 20s-58 31.5 -81 54.5s-41.167 49.833 -54.5 80.5
s-20 63.667 -20 99s6.66699 68.5 20 99.5s31.5 58 54.5 81s50 41.167 81 54.5s64.167 20 99.5 20c27.333 0 53.333 -4.16699 78 -12.5s47.334 -19.666 68.001 -33.999s38.667 -31.5 54 -51.5s27.666 -42 36.999 -66v157zM490 261.999
c-2 30.667 -9.50098 59.833 -22.501 87.5s-30.167 52 -51.5 73s-46 37.5 -74 49.5s-57.667 18 -89 18c-32.667 0 -63.5 -6.33301 -92.5 -19s-54.333 -29.667 -76 -51s-38.834 -46.5 -51.501 -75.5s-19 -59.833 -19 -92.5s6.33301 -63.334 19 -92.001
s29.834 -53.834 51.501 -75.501s47 -38.667 76 -51s59.833 -18.5 92.5 -18.5s63.334 6.16699 92.001 18.5s53.667 29.333 75 51s38.333 46.834 51 75.501s19 59.334 19 92.001v10z" />
    <glyph glyph-name="r" unicode="r" horiz-adv-x="362" 
d="M0 500l121 -0.00195312v-122c6 12.667 14 26.167 24 40.5s22.667 27.5 38 39.5s33.833 22 55.5 30s46.5 12 74.5 12v-17c-26.667 0 -50 -3.66699 -70 -11s-37 -16.5 -51 -27.5s-25.5 -23.333 -34.5 -37s-16.167 -26.667 -21.5 -39s-9 -23.166 -11 -32.499
s-3.33301 -15.666 -4 -18.999v-300h107v-17h-228v17h104v466h-104v17z" />
    <glyph glyph-name="s" unicode="s" horiz-adv-x="357" 
d="M150 -9c-35.333 2.66699 -63.5088 13.6699 -84.5088 33.0029s-37.167 41.333 -48.5 66v-89h-17v156h17c0.666992 -19.333 4.66699 -37.666 12 -54.999s17 -32.833 29 -46.5s26.167 -24.834 42.5 -33.501s33.5 -14.334 51.5 -17.001
c16.667 0.666992 33.334 3.16699 50.001 7.5s31.667 10.833 45 19.5s24 19.667 32 33s12 29.333 12 48c0.666992 20 -3 37 -11 51s-18.333 26 -31 36s-27.167 18.333 -43.5 25s-32.833 13 -49.5 19c-16 6 -32.667 12.667 -50 20s-33.166 16.333 -47.499 27
s-26.166 23.334 -35.499 38.001s-14 32.334 -14 53.001c0 17.333 3 34 9 50s14.667 30 26 42s25.333 21.5 42 28.5s35.334 9.83301 56.001 8.5c21.333 0 41.333 -6 60 -18s33.334 -28 44.001 -48v58h17v-110h-16c-7.33301 28 -20 51.667 -38 71s-40.333 29.666 -67 30.999
c-18 1.33301 -34.167 -1.33398 -48.5 -8.00098s-26.666 -15.5 -36.999 -26.5s-18.166 -23.5 -23.499 -37.5s-8 -27.667 -8 -41c0 -17.333 4.33301 -32.5 13 -45.5s19.5 -24.333 32.5 -34s27.5 -17.834 43.5 -24.501s32 -12.667 48 -18c18 -6 35.833 -12.5 53.5 -19.5
s33.334 -16 47.001 -27s24.834 -24.5 33.501 -40.5s13 -36 13 -60c0 -22 -4.83301 -40.833 -14.5 -56.5s-22 -28.5 -37 -38.5s-32 -17.333 -51 -22s-37.833 -6.33398 -56.5 -5.00098z" />
    <glyph glyph-name="t" unicode="t" horiz-adv-x="325" 
d="M280 17v-17h-164v483h-116v17h116v175h17v-175h135v-17h-135v-466h147z" />
    <glyph glyph-name="u" unicode="u" horiz-adv-x="667" 
d="M622 17v-17h-121v106c-15.333 -36.667 -39.166 -66.667 -71.499 -90s-69.5 -35 -111.5 -35c-30 0 -57.667 5.5 -83 16.5s-47.333 26.167 -66 45.5c-18 18.667 -32.167 40.5 -42.5 65.5s-15.5 51.167 -15.5 78.5v296h-113v17h130v-313c0 -25.333 4.66699 -49.5 14 -72.5
s22.333 -43.167 39 -60.5s36.667 -31 60 -41s49 -15 77 -15c25.333 0 49.166 5 71.499 15s41.833 23.667 58.5 41c16 17.333 28.833 37.5 38.5 60.5s14.5 47.167 14.5 72.5v296h-118v17h134v-483h105z" />
    <glyph glyph-name="v" unicode="v" horiz-adv-x="674" 
d="M619 500v-17h-97l-103.5 -242l-103.5 -241h-12l-204 483h-99v17h227v-17h-109l95 -226l96 -227l195 453h-113v17h228z" />
    <glyph glyph-name="w" unicode="w" horiz-adv-x="941" 
d="M881 483h-100l-90.5 -242l-90.5 -241h-15l-133 395l-150 -395h-15l-177 483h-110v17h234v-17h-106l167 -452l150 396h13l135 -396l84.5 226l84.5 226h-113v17h232v-17z" />
    <glyph glyph-name="x" unicode="x" horiz-adv-x="583" 
d="M429 17h104v-17h-227v17h102l-70.5 110.5l-72.5 110.5l-75 -110l-75 -111h112v-17h-227v17h96l159 236l-153 230h-102v17h227v-17h-106l72 -107l72 -107l71.5 106.5l70.5 107.5h-111v17h228v-17h-97l-76.5 -115l-75.5 -115z" />
    <glyph glyph-name="y" unicode="y" horiz-adv-x="675" 
d="M521 483l-272 -643h106v-17h-233v17h107l67 156l-193 487h-103v17h233v-17h-111l183 -464l198 464h-116v17h233v-17h-99z" />
    <glyph glyph-name="z" unicode="z" horiz-adv-x="420" 
d="M334 483h-298v-120h-16v137h338v-12l-334 -471h329v127h16v-144h-369v13z" />
    <glyph glyph-name="braceleft" unicode="{" horiz-adv-x="297" 
d="M170 -30c-14.667 4 -28 10.001 -40 18.001c-10 6.66699 -19.167 15.667 -27.5 27s-12.5 25.666 -12.5 42.999v302c0 8 -3.5 15.833 -10.5 23.5s-15.167 12.167 -24.5 13.5v15c8.66699 0 16.5 3.83301 23.5 11.5s10.5 15.167 10.5 22.5v302
c0 17.333 4.16699 31.666 12.5 42.999s17.833 20.666 28.5 27.999c12 8 26 14.333 42 19l2 -17c-12.667 -4 -24 -9.33301 -34 -16c-8.66699 -5.33301 -16.5 -12.833 -23.5 -22.5s-10.5 -21.167 -10.5 -34.5v-302c0 -7.33301 -2.5 -15 -7.5 -23s-10.167 -14.667 -15.5 -20
c7.33301 -4.66699 13.166 -11 17.499 -19s6.5 -16 6.5 -24v-302c0 -13.333 3.33301 -24.666 10 -33.999s14.334 -16.666 23.001 -21.999c10 -6.66699 21.333 -11.667 34 -15z" />
    <glyph glyph-name="bar" unicode="|" horiz-adv-x="288" 
d="M134 849h16v-873h-16v873z" />
    <glyph glyph-name="braceright" unicode="}" horiz-adv-x="290" 
d="M88 -13c12 3.33301 23 8.33203 33 14.999c8.66699 5.33301 16.5 12.666 23.5 21.999s10.5 20.666 10.5 33.999v302c0 8 2.16699 16 6.5 24s10.166 14.333 17.499 19c-5.33301 5.33301 -10.5 12 -15.5 20s-7.5 15.667 -7.5 23v302c0 13.333 -3.5 24.833 -10.5 34.5
s-14.833 17.167 -23.5 22.5c-10 6.66699 -21.333 12 -34 16l2 17c15.333 -4.66699 29 -11 41 -19c10.667 -7.33301 20.334 -16.666 29.001 -27.999s13 -25.666 13 -42.999v-302c0 -7.33301 3.5 -14.833 10.5 -22.5s14.833 -11.5 23.5 -11.5v-15
c-9.33301 -1.33301 -17.5 -5.83301 -24.5 -13.5s-10.5 -15.5 -10.5 -23.5v-302c0 -17.333 -4.16699 -31.666 -12.5 -42.999s-17.5 -20.333 -27.5 -27c-12 -8 -25.333 -14 -40 -18z" />
    <glyph glyph-name="asciitilde" unicode="~" horiz-adv-x="463" 
d="M411 250c-18 -4.66699 -33.9941 -7.83301 -47.9941 -9.5s-27.333 -2.5 -40 -2.5c-24.667 0 -45.834 2.5 -63.501 7.5s-34.167 10.167 -49.5 15.5c-12.667 4.66699 -25 8.66699 -37 12s-24.667 5 -38 5c-12 0 -25.333 -1.83301 -40 -5.5s-31.334 -9.83398 -50.001 -18.501
v17c18 8.66699 34.167 14.834 48.5 18.501s27.833 5.5 40.5 5.5c15.333 0 29.666 -2 42.999 -6s26.666 -8.33301 39.999 -13c15.333 -5.33301 31.333 -10.333 48 -15s35.667 -7 57 -7c11.333 0 24.166 1.16699 38.499 3.5s31.166 5.83301 50.499 10.5v-18z" />
    <glyph glyph-name="exclamdown" unicode="&#xa1;" horiz-adv-x="180" 
d="M71 645h17v-156h-17v156zM71 400h17v-458h-17v458z" />
    <glyph glyph-name="cent" unicode="&#xa2;" horiz-adv-x="535" 
d="M497 157c-10 -24 -23.334 -46.165 -40.001 -66.498s-35.5 -37.833 -56.5 -52.5s-43.833 -26.167 -68.5 -34.5s-50.334 -12.5 -77.001 -12.5c-36 0 -69.667 6.66699 -101 20s-58.666 31.666 -81.999 54.999s-41.666 50.666 -54.999 81.999s-20 65 -20 101
s6.66699 69.667 20 101s31.666 58.666 54.999 81.999s50.666 41.833 81.999 55.5s65 20.5 101 20.5c44 0 84.333 -9.83301 121 -29.5s66.667 -46.5 90 -80.5v101h16v-138h-13c-21.333 38.667 -50.833 70 -88.5 94s-79.5 36 -125.5 36
c-33.333 0 -64.666 -6.33301 -93.999 -19s-54.833 -30 -76.5 -52s-38.834 -47.667 -51.501 -77s-19 -60.666 -19 -93.999s6.33301 -64.666 19 -93.999s29.834 -54.833 51.501 -76.5s47.167 -38.834 76.5 -51.501s60.666 -19 93.999 -19c24.667 0 48.334 3.66699 71.001 11
s43.834 17.5 63.501 30.5s37 28.667 52 47s27.5 38.5 37.5 60.5h18zM255.999 606.002h16v-709h-16v709z" />
    <glyph glyph-name="sterling" unicode="&#xa3;" horiz-adv-x="529" 
d="M23 440l132.998 0.00195312v173c0 21.333 4.16699 46.666 12.5 75.999s23.333 57.333 45 84s51.334 49.334 89.001 68.001s85.834 28 144.501 28v-155h-17v138c-52 -0.666992 -94.5 -9.83398 -127.5 -27.501s-59 -38.834 -78 -63.501s-32.167 -50.5 -39.5 -77.5
s-11 -50.5 -11 -70.5v-173h213v-17h-213v-390h-18v390h-133v17zM24.998 20.002c11.333 3.33301 29 8.16602 53 14.499s55 8.83301 93 7.5c28 -1.33301 50.833 -4 68.5 -8s33.834 -8.33301 48.501 -13c14 -4 27.667 -7.66699 41 -11s28.333 -5 45 -5c14 0 30.667 1.5 50 4.5
s43 8.5 71 16.5l2 -18c-26.667 -8 -50 -13.5 -70 -16.5s-37.667 -4.5 -53 -4.5c-19.333 0 -36 1.66699 -50 5s-28 7.33301 -42 12c-14.667 4.66699 -30.834 8.83398 -48.501 12.501s-38.5 6.16699 -62.5 7.5c-34 1.33301 -63.167 -1 -87.5 -7s-42.833 -11.333 -55.5 -16z
" />
    <glyph glyph-name="currency" unicode="&#xa4;" 
d="M121 555l85.9971 -86.001c24.667 22 52.334 39.167 83.001 51.5s61.334 18.5 92.001 18.5c32 0 63.167 -5.66699 93.5 -17s58.166 -29 83.499 -53l85 86l12 -12l-85 -86c22 -25.333 39.167 -53.333 51.5 -84s18.5 -61.667 18.5 -93c0 -30.667 -6.33301 -61.667 -19 -93
s-30 -59 -52 -83l87 -87l-12 -12l-87 87c-25.333 -22.667 -53.166 -40 -83.499 -52s-61.166 -18 -92.499 -18c-32 0 -63 5.66699 -93 17s-57.333 29.333 -82 54l-86 -86l-12 12l86 85c-25.333 25.333 -43.5 53 -54.5 83s-16.5 61 -16.5 93s6 63.333 18 94
s29.667 58.334 53 83.001l-86 86zM212.997 109.999c23.333 -23.333 49.666 -40.834 78.999 -52.501s59.333 -17.5 90 -17.5c31.333 0 61.833 5.83301 91.5 17.5s56.167 29.167 79.5 52.5s41 49.833 53 79.5s18 59.834 18 90.501c0 31.333 -6 61.833 -18 91.5
s-29.667 56.167 -53 79.5s-49.833 40.833 -79.5 52.5s-60.167 17.5 -91.5 17.5c-30.667 0 -60.667 -5.83301 -90 -17.5s-55.666 -29.167 -78.999 -52.5c-24 -23.333 -42 -49.833 -54 -79.5s-18 -60.167 -18 -91.5c0 -30 6 -60 18 -90s30 -56.667 54 -80z" />
    <glyph glyph-name="yen" unicode="&#xa5;" horiz-adv-x="700" 
d="M340 146v-129h106v-17h-229v17h106v129h-159v17h159v66l-38 74h-121v16h112l-87 169.5l-88 169.5h-103v17h228v-17h-106l87.5 -168.5l87.5 -170.5h70l84 170l83 169h-116v17h228v-17h-93l-84 -169l-83 -170h143v-16h-150c-6 -12.667 -12.333 -25 -19 -37
s-12.667 -24.333 -18 -37v-66h187v-17h-187zM332 250l12 26l13 27h-53z" />
    <glyph glyph-name="brokenbar" unicode="&#xa6;" 
d="M119 399v293h16v-293h-16zM119 -1v293h16v-293h-16z" />
    <glyph glyph-name="section" unicode="&#xa7;" horiz-adv-x="586" 
d="M441 630l-0.00195312 -141.998h-16c-9.33301 26 -22.666 49.667 -39.999 71c-14.667 18 -34.167 34.333 -58.5 49s-54.833 22 -91.5 22c-18 0 -36.333 -4 -55 -12s-35.334 -18.5 -50.001 -31.5s-26.667 -27.833 -36 -44.5s-14 -34.334 -14 -53.001
c0 -15.333 4.33301 -30.833 13 -46.5s22 -31.167 40 -46.5c7.33301 -4.66699 14.833 -9.16699 22.5 -13.5s16.834 -9.16602 27.501 -14.499l-1 1c1.33301 -0.666992 2.33301 -1.33398 3 -2.00098s1.66699 -1.33398 3 -2.00098c21.333 -10 44.333 -21.833 69 -35.5
s47.5 -29.834 68.5 -48.501s38.667 -40.334 53 -65.001s21.833 -53 22.5 -85c0 -12 -1 -25.333 -3 -40h-18c1.33301 7.33301 2.33301 14.5 3 21.5s1 13.167 1 18.5c0 28.667 -6.66699 54.334 -20 77.001s-30 43 -50 61s-41.667 33.5 -65 46.5s-45 24.167 -65 33.5
c-13.333 6 -25.5 11.833 -36.5 17.5s-19.833 11.167 -26.5 16.5c-20.667 16 -35.5 33.167 -44.5 51.5s-13.5 36.5 -13.5 54.5c0 20.667 5.5 40.667 16.5 60s25 36.333 42 51s35.833 26.167 56.5 34.5s40.667 12.5 60 12.5c28.667 -0.666992 54.5 -6.66699 77.5 -18
s42.5 -23.666 58.5 -36.999c18.667 -16 35.334 -34 50.001 -54v92h17zM53.998 -156.998v160.002h16c10 -25.333 24.333 -48 43 -68c15.333 -17.333 36.333 -32.833 63 -46.5s60 -20.5 100 -20.5c18 0 36.333 3.66699 55 11s35.334 17.166 50.001 29.499s26.667 26.5 36 42.5
s14 33 14 51c0 14 -3.66699 28.667 -11 44s-19.333 30 -36 44c-7.33301 5.33301 -16 10.833 -26 16.5s-21.667 11.834 -35 18.501l-68.5 36c-24.333 13.333 -47.166 28.833 -68.499 46.5s-39 37.834 -53 60.501s-21 48.667 -21 78c0 16.667 2.33301 33.334 7 50.001l19 -1
c-5.33301 -22.667 -8 -39 -8 -49c0 -26 6.66699 -49.333 20 -70s30.166 -39.334 50.499 -56.001s42.166 -31.334 65.499 -44.001l65 -35l38 -20c11.333 -6 20.333 -11.667 27 -17c18.667 -16.667 32 -33.5 40 -50.5s12 -34.167 12 -51.5c0 -20 -5.16699 -39.167 -15.5 -57.5
s-23.833 -34.333 -40.5 -48s-35.167 -24.667 -55.5 -33s-40.5 -12.5 -60.5 -12.5c-30 -0.666992 -57.5 4.66602 -82.5 15.999s-46.5 23.666 -64.5 36.999c-22 16 -41.333 34.333 -58 55v-116h-17z" />
    <glyph glyph-name="dieresis" unicode="&#xa8;" horiz-adv-x="504" 
d="M120 659c0 7.33301 2.66699 13.833 8 19.5s11.666 8.5 18.999 8.5s13.833 -2.83301 19.5 -8.5s8.5 -12.167 8.5 -19.5s-2.83301 -13.666 -8.5 -18.999s-12.167 -8 -19.5 -8s-13.666 2.66699 -18.999 8s-8 11.666 -8 18.999zM286 659c0 7.33301 2.5 13.833 7.5 19.5
s11.167 8.5 18.5 8.5s14 -2.83301 20 -8.5s9 -12.167 9 -19.5s-3 -13.666 -9 -18.999s-12.667 -8 -20 -8s-13.5 2.66699 -18.5 8s-7.5 11.666 -7.5 18.999z" />
    <glyph glyph-name="copyright" unicode="&#xa9;" horiz-adv-x="666" 
d="M44 347c0 38 7.16699 73.5 21.5 106.5s34 62 59 87s54 44.667 87 59s68.5 21.5 106.5 21.5s73.667 -7.16699 107 -21.5s62.5 -34 87.5 -59s44.667 -54 59 -87s21.5 -68.5 21.5 -106.5s-7.16699 -73.667 -21.5 -107s-34 -62.5 -59 -87.5s-54.167 -44.667 -87.5 -59
s-69 -21.5 -107 -21.5s-73.5 7.16699 -106.5 21.5s-62 34 -87 59s-44.667 54.167 -59 87.5s-21.5 69 -21.5 107zM60 347c0 -35.333 6.83301 -68.666 20.5 -99.999s32.167 -58.666 55.5 -81.999s50.666 -41.833 81.999 -55.5s64.666 -20.5 99.999 -20.5
s68.666 6.83301 99.999 20.5s58.666 32.167 81.999 55.5s41.833 50.666 55.5 81.999s20.5 64.666 20.5 99.999s-6.83301 68.5 -20.5 99.5s-32.167 58.167 -55.5 81.5s-50.666 41.833 -81.999 55.5s-64.666 20.5 -99.999 20.5s-68.666 -6.83301 -99.999 -20.5
s-58.666 -32.167 -81.999 -55.5s-41.833 -50.5 -55.5 -81.5s-20.5 -64.167 -20.5 -99.5zM465 306c-11.333 -32.667 -30.166 -59.334 -56.499 -80.001s-56.5 -31 -90.5 -31c-21.333 0 -41.166 4 -59.499 12s-34.333 18.833 -48 32.5s-24.5 29.667 -32.5 48
s-12 38.166 -12 59.499c0 20.667 4 40.334 12 59.001s18.833 34.667 32.5 48s29.667 24 48 32s38.166 12 59.499 12c26 0 49.833 -6 71.5 -18s39.167 -27.667 52.5 -47v59h17v-97h-15c-10.667 25.333 -27.334 46 -50.001 62s-48 24 -76 24
c-18.667 0 -36.167 -3.5 -52.5 -10.5s-30.666 -16.5 -42.999 -28.5s-22 -26.167 -29 -42.5s-10.5 -33.833 -10.5 -52.5s3.5 -36.167 10.5 -52.5s16.667 -30.666 29 -42.999s26.666 -22 42.999 -29s33.833 -10.5 52.5 -10.5c29.333 0 55.5 8.66699 78.5 26s39.167 40 48.5 68
h20z" />
    <glyph glyph-name="ordfeminine" unicode="&#xaa;" horiz-adv-x="664" 
d="M440 670v-274.998h61v-10h-71v92c-11.333 -28 -29.5 -50.833 -54.5 -68.5s-53.167 -26.5 -84.5 -26.5c-20.667 0 -40.167 4 -58.5 12s-34.166 18.667 -47.499 32s-24 29.166 -32 47.499s-12 37.833 -12 58.5s4 40.167 12 58.5s18.667 34.166 32 47.499
s29.166 24 47.499 32s37.833 12 58.5 12c31.333 0 59.5 -8.83301 84.5 -26.5s43.167 -40.5 54.5 -68.5v93h71v-10h-61zM390 433.002c11.333 11.333 20.5 24.335 27.5 39.002s11.167 30.667 12.5 48v25c-1.33301 17.333 -5.5 33.166 -12.5 47.499
s-16.167 27.166 -27.5 38.499c-27.333 27.333 -60.333 41 -99 41c-40 0 -73 -13.667 -99 -41c-13.333 -12.667 -23.666 -27.5 -30.999 -44.5s-11 -35.167 -11 -54.5s3.66699 -37.5 11 -54.5s17.666 -31.833 30.999 -44.5c26 -27.333 59 -41 99 -41
c19.333 0 37.333 3.5 54 10.5s31.667 17.167 45 30.5z" />
    <glyph glyph-name="guillemotleft" unicode="&#xab;" 
d="M329 429l-196 -219l16 -16.5l25.5 -26l31.5 -32l34 -34.5l87 -88l-12 -12l-205 209l207 228zM524 427l-196 -217l16 -16.5l25.5 -26l31.5 -32l34 -34.5l87 -88l-11 -12l-205 209l207 228z" />
    <glyph glyph-name="logicalnot" unicode="&#xac;" horiz-adv-x="539" 
d="M37 530h406v-164h-16v148h-390v16z" />
    <glyph glyph-name="registered" unicode="&#xae;" horiz-adv-x="685" 
d="M44 347c0 38 7.16699 73.5 21.5 106.5s34 62 59 87s54 44.667 87 59s68.5 21.5 106.5 21.5s73.667 -7.16699 107 -21.5s62.5 -34 87.5 -59s44.667 -54 59 -87s21.5 -68.5 21.5 -106.5s-7.16699 -73.667 -21.5 -107s-34 -62.5 -59 -87.5s-54.167 -44.667 -87.5 -59
s-69 -21.5 -107 -21.5s-73.5 7.16699 -106.5 21.5s-62 34 -87 59s-44.667 54.167 -59 87.5s-21.5 69 -21.5 107zM60 347c0 -35.333 6.83301 -68.666 20.5 -99.999s32.167 -58.666 55.5 -81.999s50.666 -41.833 81.999 -55.5s64.666 -20.5 99.999 -20.5
s68.666 6.83301 99.999 20.5s58.666 32.167 81.999 55.5s41.833 50.666 55.5 81.999s20.5 64.666 20.5 99.999s-6.83301 68.5 -20.5 99.5s-32.167 58.167 -55.5 81.5s-50.666 41.833 -81.999 55.5s-64.666 20.5 -99.999 20.5s-68.666 -6.83301 -99.999 -20.5
s-58.666 -32.167 -81.999 -55.5s-41.833 -50.5 -55.5 -81.5s-20.5 -64.167 -20.5 -99.5zM197 478l149.001 0.000976562c14 -0.666992 26.667 -3.66699 38 -9c9.33301 -4.66699 18.166 -12 26.499 -22s12.5 -24 12.5 -42c0 -13.333 -2.83301 -24.5 -8.5 -33.5
s-13 -16.5 -22 -22.5s-18.667 -10.667 -29 -14s-19.833 -5.33301 -28.5 -6l66 -97h54v-17h-62l-91 133c8.66699 -0.666992 19 -0.166992 31 1.5s23.333 4.66699 34 9s19.667 10.166 27 17.499s11 17 11 29c0 13.333 -3.16699 23.833 -9.5 31.5s-13.166 13.167 -20.499 16.5
c-8.66699 4 -18.334 6.33301 -29.001 7h-84v-228h48v-17h-113v17h47v228h-47v18z" />
    <glyph glyph-name="degree" unicode="&#xb0;" horiz-adv-x="316" 
d="M107 682c0 12 4.33301 22.333 13 31s19.334 13 32.001 13s23.167 -4.33301 31.5 -13s12.5 -19 12.5 -31c0 -13.333 -4.16699 -24.166 -12.5 -32.499s-18.833 -12.5 -31.5 -12.5s-23.334 4.16699 -32.001 12.5s-13 19.166 -13 32.499zM124 682
c0 -8 2.83301 -14.833 8.5 -20.5s12.167 -8.5 19.5 -8.5s13.833 2.83301 19.5 8.5s8.5 12.5 8.5 20.5c0 7.33301 -2.83301 13.666 -8.5 18.999s-12.167 8 -19.5 8s-13.833 -2.66699 -19.5 -8s-8.5 -11.666 -8.5 -18.999z" />
    <glyph glyph-name="plusminus" unicode="&#xb1;" horiz-adv-x="512" 
d="M52 337h377v-17h-377v17zM232 141v377h16v-377h-16zM52 103h377v-17h-377v17z" />
    <glyph glyph-name="twosuperior" unicode="&#xb2;" horiz-adv-x="508" 
d="M319 340c21.333 21.333 38.335 43.6709 51.002 67.0039s19 49.666 19 78.999c0 26 -4.66699 50.5 -14 73.5s-22 43 -38 60s-35.167 30.333 -57.5 40s-46.5 14.5 -72.5 14.5c-28 0 -54 -5.66699 -78 -17s-44.5 -26.833 -61.5 -46.5s-29.833 -42.334 -38.5 -68.001
s-11.667 -52.834 -9 -81.501h-17c-2.66699 30.667 0.833008 59.834 10.5 87.501s23.667 52 42 73s40.666 37.667 66.999 50s54.5 18.5 84.5 18.5c28 0 54.167 -5.16699 78.5 -15.5s45.166 -24.833 62.499 -43.5s31.333 -40.334 42 -65.001s16 -51.334 16 -80.001
c0 -32 -6.83301 -60.5 -20.5 -85.5s-32.167 -49.167 -55.5 -72.5l-306 -311h386v133h16v-150h-429v12z" />
    <glyph glyph-name="threesuperior" unicode="&#xb3;" horiz-adv-x="478" 
d="M359 529c0 -34 -9.66309 -64.1699 -28.9961 -90.5029s-44.333 -45.166 -75 -56.499c21.333 -6 41 -15.167 59 -27.5s33.667 -27 47 -44s23.666 -36 30.999 -57s11 -43.167 11 -66.5c0 -28 -5.33301 -54.333 -16 -79s-25.334 -46.167 -44.001 -64.5
s-40.167 -32.833 -64.5 -43.5s-50.5 -16 -78.5 -16s-54.333 5.5 -79 16.5s-46.167 25.833 -64.5 44.5s-32.833 40.667 -43.5 66s-16 52.666 -16 81.999h16c0 -28 4.83301 -53.5 14.5 -76.5s23.167 -43.167 40.5 -60.5s37 -30.833 59 -40.5s46.333 -14.5 73 -14.5
c25.333 0 49.333 4.83301 72 14.5s42.334 23.167 59.001 40.5c17.333 17.333 30.833 37 40.5 59s14.5 46 14.5 72s-4.83301 50.333 -14.5 73s-23.167 42.334 -40.5 59.001c-16.667 17.333 -36.334 30.833 -59.001 40.5s-46.667 14.5 -72 14.5h-51v17h51
c18.667 0 36.834 3 54.501 9s33.5 16.333 47.5 31c26.667 25.333 40 58 40 98c0 40.667 -13.333 73.667 -40 99c-12.667 12.667 -27.334 22.667 -44.001 30s-34.667 11 -54 11c-20 0 -38.333 -3.66699 -55 -11s-31.334 -17.333 -44.001 -30s-22.667 -28 -30 -46
s-11 -37.667 -11 -59h-17c0 22.667 4.16699 43.834 12.5 63.501s19.666 36.834 33.999 51.501s31 26.167 50 34.5s39.167 12.5 60.5 12.5s41.333 -4.16699 60 -12.5s35 -19.5 49 -33.5s25.167 -30.5 33.5 -49.5s12.5 -39.167 12.5 -60.5z" />
    <glyph glyph-name="acute" unicode="&#xb4;" horiz-adv-x="421" 
d="M261 735h19l-125 -187h-19z" />
    <glyph glyph-name="mu" unicode="&#xb5;" horiz-adv-x="694" 
d="M111 483h-113v17h130v-321c0.666992 -24.667 6 -48 16 -70s23.333 -41.167 40 -57.5s36.334 -29.333 59.001 -39s47.667 -14.5 75 -14.5c25.333 0 49.166 5 71.499 15s41.833 23.667 58.5 41c16 17.333 28.833 37.5 38.5 60.5s14.5 47.167 14.5 72.5v296h-118v17h134
v-483h105v-17h-121v106c-15.333 -36.667 -39.166 -66.667 -71.499 -90s-69.5 -35 -111.5 -35c-30 0 -57.667 5.5 -83 16.5s-47.333 26.167 -66 45.5c-9.33301 9.33301 -17.333 18.5 -24 27.5s-12.334 19.833 -17.001 32.5v-239h-17v619z" />
    <glyph glyph-name="mu" unicode="&#x3bc;" horiz-adv-x="694" 
d="M111 483h-113v17h130v-321c0.666992 -24.667 6 -48 16 -70s23.333 -41.167 40 -57.5s36.334 -29.333 59.001 -39s47.667 -14.5 75 -14.5c25.333 0 49.166 5 71.499 15s41.833 23.667 58.5 41c16 17.333 28.833 37.5 38.5 60.5s14.5 47.167 14.5 72.5v296h-118v17h134
v-483h105v-17h-121v106c-15.333 -36.667 -39.166 -66.667 -71.499 -90s-69.5 -35 -111.5 -35c-30 0 -57.667 5.5 -83 16.5s-47.333 26.167 -66 45.5c-9.33301 9.33301 -17.333 18.5 -24 27.5s-12.334 19.833 -17.001 32.5v-239h-17v619z" />
    <glyph glyph-name="paragraph" unicode="&#xb6;" horiz-adv-x="694" 
d="M121 424c0 24.667 4.83496 48.166 14.502 70.499s22.667 41.833 39 58.5s35.666 29.834 57.999 39.501s46.166 14.5 71.499 14.5h281v-16h-106v-712h-17v712h-149v-712h-17v362c-24 0.666992 -46.667 6 -68 16s-40 23.167 -56 39.5s-28.5 35.5 -37.5 57.5
s-13.5 45.333 -13.5 70z" />
    <glyph glyph-name="periodcentered" unicode="&#xb7;" 
 />
    <glyph glyph-name="cedilla" unicode="&#xb8;" 
d="M192 -123c-6.66699 -15.333 -10.0039 -28.3379 -10.0039 -39.0049c0 -20 7 -37.667 21 -53s31.667 -23 53 -23c20.667 0 38.334 7.33301 53.001 22s22 32.334 22 53.001s-8.16699 38.334 -24.5 53.001s-36.166 22 -59.499 22v102h18v-84
c10.667 -1.33301 21.167 -4.66602 31.5 -9.99902s19.333 -12.166 27 -20.499s13.834 -17.833 18.501 -28.5s7 -22 7 -34c0 -12.667 -2.5 -24.667 -7.5 -36s-11.667 -21.166 -20 -29.499s-18.166 -15 -29.499 -20s-23.333 -7.5 -36 -7.5c-28 0 -50.333 9.33301 -67 28
s-25 40.667 -25 66c0 12 3.66699 26.333 11 43z" />
    <glyph glyph-name="onesuperior" unicode="&#xb9;" horiz-adv-x="348" 
d="M264 17v-17h-268v17h126v641h-110v17h126v-658h126z" />
    <glyph glyph-name="ordmasculine" unicode="&#xba;" horiz-adv-x="557" 
d="M192 588c0 14 2.66699 27 8 39s12.5 22.5 21.5 31.5s19.667 16.167 32 21.5s25.5 8 39.5 8s27 -2.66699 39 -8s22.5 -12.5 31.5 -21.5s16.167 -19.5 21.5 -31.5s8 -25 8 -39s-2.66699 -27.167 -8 -39.5s-12.5 -23 -21.5 -32s-19.5 -16.167 -31.5 -21.5s-25 -8 -39 -8
s-27.167 2.66699 -39.5 8s-23 12.5 -32 21.5s-16.167 19.667 -21.5 32s-8 25.5 -8 39.5zM210 588c0 -23.333 8 -43 24 -59s35.667 -24 59 -24c22.667 0 42.167 8 58.5 24s24.5 35.667 24.5 59s-8.16699 43 -24.5 59s-35.833 24 -58.5 24c-23.333 0 -43 -8 -59 -24
s-24 -35.667 -24 -59z" />
    <glyph glyph-name="guillemotright" unicode="&#xbb;" horiz-adv-x="545" 
d="M258 457l192 -227l-203 -231l-9 13l190 217l-16.5 19.5l-24.5 29l-30 35.5l-32 37l-80 94zM62 457l193 -227l-203 -231l-9 13l189 217l-16.5 19.5l-24.5 29l-29.5 35.5l-31.5 37l-80 94z" />
    <glyph glyph-name="onequarter" unicode="&#xbc;" horiz-adv-x="1121" 
d="M264 17v-17h-268v17h126v641h-110v17h126v-658h126zM587 696h18l-228 -715h-19zM933 148v-131h108v-17h-229v17h105v131h-350v14l349 517h17v-514h108v-17h-108zM917 165v484l-164.5 -241.5l-164.5 -242.5h329z" />
    <glyph glyph-name="onehalf" unicode="&#xbd;" horiz-adv-x="1078" 
d="M264 17v-17h-268v17h126v641h-110v17h126v-658h126zM525 696h18l-228 -715h-19zM889 340c21.333 21.333 38.335 43.6709 51.002 67.0039s19 49.666 19 78.999c0 26 -4.66699 50.5 -14 73.5s-22 43 -38 60s-35.167 30.333 -57.5 40s-46.5 14.5 -72.5 14.5
c-28 0 -54 -5.66699 -78 -17s-44.5 -26.833 -61.5 -46.5s-29.833 -42.334 -38.5 -68.001s-11.667 -52.834 -9 -81.501h-17c-2.66699 30.667 0.833008 59.834 10.5 87.501s23.667 52 42 73s40.666 37.667 66.999 50s54.5 18.5 84.5 18.5c28 0 54.167 -5.16699 78.5 -15.5
s45.166 -24.833 62.499 -43.5s31.333 -40.334 42 -65.001s16 -51.334 16 -80.001c0 -32 -6.83301 -60.5 -20.5 -85.5s-32.167 -49.167 -55.5 -72.5l-306 -311h386v133h16v-150h-429v12z" />
    <glyph glyph-name="threequarters" unicode="&#xbe;" horiz-adv-x="1251" 
d="M359 529c0 -34 -9.66309 -64.1699 -28.9961 -90.5029s-44.333 -45.166 -75 -56.499c21.333 -6 41 -15.167 59 -27.5s33.667 -27 47 -44s23.666 -36 30.999 -57s11 -43.167 11 -66.5c0 -28 -5.33301 -54.333 -16 -79s-25.334 -46.167 -44.001 -64.5
s-40.167 -32.833 -64.5 -43.5s-50.5 -16 -78.5 -16s-54.333 5.5 -79 16.5s-46.167 25.833 -64.5 44.5s-32.833 40.667 -43.5 66s-16 52.666 -16 81.999h16c0 -28 4.83301 -53.5 14.5 -76.5s23.167 -43.167 40.5 -60.5s37 -30.833 59 -40.5s46.333 -14.5 73 -14.5
c25.333 0 49.333 4.83301 72 14.5s42.334 23.167 59.001 40.5c17.333 17.333 30.833 37 40.5 59s14.5 46 14.5 72s-4.83301 50.333 -14.5 73s-23.167 42.334 -40.5 59.001c-16.667 17.333 -36.334 30.833 -59.001 40.5s-46.667 14.5 -72 14.5h-51v17h51
c18.667 0 36.834 3 54.501 9s33.5 16.333 47.5 31c26.667 25.333 40 58 40 98c0 40.667 -13.333 73.667 -40 99c-12.667 12.667 -27.334 22.667 -44.001 30s-34.667 11 -54 11c-20 0 -38.333 -3.66699 -55 -11s-31.334 -17.333 -44.001 -30s-22.667 -28 -30 -46
s-11 -37.667 -11 -59h-17c0 22.667 4.16699 43.834 12.5 63.501s19.666 36.834 33.999 51.501s31 26.167 50 34.5s39.167 12.5 60.5 12.5s41.333 -4.16699 60 -12.5s35 -19.5 49 -33.5s25.167 -30.5 33.5 -49.5s12.5 -39.167 12.5 -60.5zM717.004 695.997h18l-228 -715h-19z
M1063 147.997v-131h108v-17h-229v17h105v131h-350v14l349 517h17v-514h108v-17h-108zM1047 164.997v484l-164.5 -241.5l-164.5 -242.5h329z" />
    <glyph glyph-name="questiondown" unicode="&#xbf;" horiz-adv-x="474" 
d="M218 324c0 -24 -3.66406 -46.502 -10.9971 -67.502s-16.5 -40.5 -27.5 -58.5s-23.167 -34.5 -36.5 -49.5l-37 -40.5c-5.33301 -5.33301 -10.833 -11.5 -16.5 -18.5l-15.5 -19.5c-22.667 -30.667 -34 -65.334 -34 -104.001c0 -25.333 4.66699 -48.666 14 -69.999
s21.666 -39.666 36.999 -54.999c16.667 -16.667 35.667 -29.5 57 -38.5s44.333 -13.5 69 -13.5c25.333 0 48.666 4.5 69.999 13.5s40 21.833 56 38.5c16 15.333 28.5 34.166 37.5 56.499s13.5 47.166 13.5 74.499h18c0 -28 -5.16699 -54.167 -15.5 -78.5
s-24.333 -45.5 -42 -63.5s-38.334 -32.333 -62.001 -43s-48.834 -16 -75.501 -16s-51.667 5.16699 -75 15.5s-43.833 24.333 -61.5 42s-31.667 38.334 -42 62.001s-15.5 48.834 -15.5 75.501c0 21.333 3.5 41.833 10.5 61.5s16.167 37.5 27.5 53.5
c2.66699 3.33301 7.16699 8.5 13.5 15.5l20.5 22.5l35 39.5c12.667 14.333 24.334 30 35.001 47s19.5 35.333 26.5 55s10.5 40.834 10.5 63.501h16zM219.003 391.998h-16v91h16v-91z" />
    <glyph glyph-name="Agrave" unicode="&#xc0;" horiz-adv-x="866" 
d="M812 17v-17h-230v17h112l-48.5 111l-48.5 112h-380l-100 -223h114v-17h-231v17h100l290 645h-114v17h146l290 -662h100zM590 256l-88.5 203.5l-88.5 202.5h-6l-90.5 -202.5l-91.5 -203.5h365zM468 716h-19l-125 178h19z" />
    <glyph glyph-name="Aacute" unicode="&#xc1;" horiz-adv-x="866" 
d="M812 17v-17h-230v17h112l-48.5 111l-48.5 112h-380l-100 -223h114v-17h-231v17h100l290 645h-114v17h146l290 -662h100zM590 256l-88.5 203.5l-88.5 202.5h-6l-90.5 -202.5l-91.5 -203.5h365zM483 892h19l-125 -187h-19z" />
    <glyph glyph-name="Acircumflex" unicode="&#xc2;" horiz-adv-x="866" 
d="M812 17v-17h-230v17h112l-48.5 111l-48.5 112h-380l-100 -223h114v-17h-231v17h100l290 645h-114v17h146l290 -662h100zM590 256l-88.5 203.5l-88.5 202.5h-6l-90.5 -202.5l-91.5 -203.5h365zM523 765l-125 106l-64.5 -54l-63.5 -54l-12 12l140 119l137 -118z" />
    <glyph glyph-name="Atilde" unicode="&#xc3;" horiz-adv-x="866" 
d="M812 17v-17h-230v17h112l-48.5 111l-48.5 112h-380l-100 -223h114v-17h-231v17h100l290 645h-114v17h146l290 -662h100zM590 256l-88.5 203.5l-88.5 202.5h-6l-90.5 -202.5l-91.5 -203.5h365zM558 809c-18 -4.66699 -34.166 -7.83398 -48.499 -9.50098
s-27.5 -2.5 -39.5 -2.5c-24 0 -44 2.5 -60 7.5s-30.667 10.167 -44 15.5c-11.333 4.66699 -22.333 8.66699 -33 12s-22.334 5 -35.001 5c-10.667 0 -23.167 -1.66699 -37.5 -5s-30.833 -9.66602 -49.5 -18.999v18c34.667 15.333 64 23 88 23
c14.667 0 27.667 -1.83301 39 -5.5l34 -11.5c14 -5.33301 28.833 -10.5 44.5 -15.5s34.167 -7.5 55.5 -7.5c22 0 50.667 4.33301 86 13v-18z" />
    <glyph glyph-name="Adieresis" unicode="&#xc4;" horiz-adv-x="866" 
d="M812 17v-17h-230v17h112l-48.5 111l-48.5 112h-380l-100 -223h114v-17h-231v17h100l290 645h-114v17h146l290 -662h100zM590 256l-88.5 203.5l-88.5 202.5h-6l-90.5 -202.5l-91.5 -203.5h365zM269 798c0 7.33301 2.66699 13.833 8 19.5s11.666 8.5 18.999 8.5
s13.833 -2.83301 19.5 -8.5s8.5 -12.167 8.5 -19.5s-2.83301 -13.666 -8.5 -18.999s-12.167 -8 -19.5 -8s-13.666 2.66699 -18.999 8s-8 11.666 -8 18.999zM435 798c0 7.33301 2.5 13.833 7.5 19.5s11.167 8.5 18.5 8.5s14 -2.83301 20 -8.5s9 -12.167 9 -19.5
s-3 -13.666 -9 -18.999s-12.667 -8 -20 -8s-13.5 2.66699 -18.5 8s-7.5 11.666 -7.5 18.999z" />
    <glyph glyph-name="Aring" unicode="&#xc5;" horiz-adv-x="866" 
d="M812 17v-17h-230v17h112l-48.5 111l-48.5 112h-380l-100 -223h114v-17h-231v17h100l290 645h-114v17h146l290 -662h100zM590 256l-88.5 203.5l-88.5 202.5h-6l-90.5 -202.5l-91.5 -203.5h365zM313 751c0 12 2.16504 23.167 6.49805 33.5s10.5 19.333 18.5 27
s17.167 13.834 27.5 18.501s21.5 7 33.5 7s23.333 -2.33301 34 -7s19.834 -10.834 27.501 -18.501s13.834 -16.667 18.501 -27s7 -21.5 7 -33.5c0 -24 -8.5 -44.333 -25.5 -61s-37.5 -25 -61.5 -25s-44.333 8.33301 -61 25s-25 37 -25 61zM329.998 751
c0 -19.333 6.66699 -35.833 20 -49.5s29.666 -20.5 48.999 -20.5s35.833 6.83301 49.5 20.5s20.5 30.167 20.5 49.5s-6.83301 35.833 -20.5 49.5s-30.167 20.5 -49.5 20.5s-35.666 -6.83301 -48.999 -20.5s-20 -30.167 -20 -49.5z" />
    <glyph glyph-name="AE" unicode="&#xc6;" horiz-adv-x="1090" 
d="M262 212l-144 -212h-120v17h112l31.5 47l56.5 83.5l72 106.5l79 117l206 305l19 -1l-302 -446h293v-17h-303zM947 527v141h-375v-311h311v-17h-311v-317h375v138h16v-155h-516v17h108v645h-108v17h516v-158h-16z" />
    <glyph glyph-name="Ccedilla" unicode="&#xc7;" horiz-adv-x="713" 
d="M668 154c-17.333 -26 -37.167 -49.668 -59.5 -71.001s-46.666 -39.833 -72.999 -55.5s-54.333 -27.667 -84 -36s-60.167 -12.5 -91.5 -12.5c-50 0 -96.833 9.5 -140.5 28.5s-81.667 44.833 -114 77.5s-58 70.834 -77 114.501s-28.5 90.167 -28.5 139.5
c0 50 9.5 96.833 28.5 140.5s44.667 81.667 77 114s70.333 58 114 77s90.5 28.5 140.5 28.5c54 0 104.5 -11.333 151.5 -34s87.167 -52.334 120.5 -89.001v112h17v-145h-13c-32 42.667 -71.833 76.667 -119.5 102s-99.834 38 -156.501 38c-48 0 -92.667 -8.83301 -134 -26.5
s-78 -42.167 -110 -73.5c-30.667 -31.333 -54.834 -67.833 -72.501 -109.5s-26.5 -86.5 -26.5 -134.5s8.83301 -92.667 26.5 -134s41.834 -77.666 72.501 -108.999c32 -31.333 68.667 -55.833 110 -73.5s86 -26.5 134 -26.5c60.667 0 116 14.333 166 43s91 67 123 115h19z
M295.999 -142.001c-6.66699 -15.333 -10.0039 -28.3379 -10.0039 -39.0049c0 -20 7 -37.667 21 -53s31.667 -23 53 -23c20.667 0 38.334 7.33301 53.001 22s22 32.334 22 53.001s-8.16699 38.334 -24.5 53.001s-36.166 22 -59.499 22v102h18v-84
c10.667 -1.33301 21.167 -4.66602 31.5 -9.99902s19.333 -12.166 27 -20.499s13.834 -17.833 18.501 -28.5s7 -22 7 -34c0 -12.667 -2.5 -24.667 -7.5 -36s-11.667 -21.166 -20 -29.499s-18.166 -15 -29.499 -20s-23.333 -7.5 -36 -7.5c-28 0 -50.333 9.33301 -67 28
s-25 40.667 -25 66c0 12 3.66699 26.333 11 43z" />
    <glyph glyph-name="Egrave" unicode="&#xc8;" horiz-adv-x="563" 
d="M496 521v141h-375v-311h311v-17h-311v-317h375v138h16v-155h-516v17h108v645h-108v17h516v-158h-16zM352 717h-19l-125 178h19z" />
    <glyph glyph-name="Eacute" unicode="&#xc9;" horiz-adv-x="563" 
d="M496 521v141h-375v-311h311v-17h-311v-317h375v138h16v-155h-516v17h108v645h-108v17h516v-158h-16zM332 893h19l-125 -187h-19z" />
    <glyph glyph-name="Ecircumflex" unicode="&#xca;" horiz-adv-x="563" 
d="M496 521v141h-375v-311h311v-17h-311v-317h375v138h16v-155h-516v17h108v645h-108v17h516v-158h-16zM408 763l-125 106l-64.5 -54l-63.5 -54l-12 12l140 119l137 -118z" />
    <glyph glyph-name="Edieresis" unicode="&#xcb;" horiz-adv-x="563" 
d="M496 521v141h-375v-311h311v-17h-311v-317h375v138h16v-155h-516v17h108v645h-108v17h516v-158h-16zM168 805c0 7.33301 2.66699 13.833 8 19.5s11.666 8.5 18.999 8.5s13.833 -2.83301 19.5 -8.5s8.5 -12.167 8.5 -19.5s-2.83301 -13.666 -8.5 -18.999
s-12.167 -8 -19.5 -8s-13.666 2.66699 -18.999 8s-8 11.666 -8 18.999zM334 805c0 7.33301 2.5 13.833 7.5 19.5s11.167 8.5 18.5 8.5s14 -2.83301 20 -8.5s9 -12.167 9 -19.5s-3 -13.666 -9 -18.999s-12.667 -8 -20 -8s-13.5 2.66699 -18.5 8s-7.5 11.666 -7.5 18.999z" />
    <glyph glyph-name="Igrave" unicode="&#xcc;" horiz-adv-x="271" 
d="M118 17h106v-17h-229v17h106v645h-106v17h229v-17h-106v-645zM171 717h-19l-125 178h19z" />
    <glyph glyph-name="Iacute" unicode="&#xcd;" horiz-adv-x="271" 
d="M118 17h106v-17h-229v17h106v645h-106v17h229v-17h-106v-645zM184 894h19l-125 -187h-19z" />
    <glyph glyph-name="Icircumflex" unicode="&#xce;" horiz-adv-x="271" 
d="M118 17h106v-17h-229v17h106v645h-106v17h229v-17h-106v-645zM234 748l-125 106l-64.5 -54l-63.5 -54l-12 12l140 119l137 -118z" />
    <glyph glyph-name="Idieresis" unicode="&#xcf;" horiz-adv-x="271" 
d="M118 17h106v-17h-229v17h106v645h-106v17h229v-17h-106v-645zM-10 814c0 7.33301 2.66699 13.833 8 19.5s11.666 8.5 18.999 8.5s13.833 -2.83301 19.5 -8.5s8.5 -12.167 8.5 -19.5s-2.83301 -13.666 -8.5 -18.999s-12.167 -8 -19.5 -8s-13.666 2.66699 -18.999 8
s-8 11.666 -8 18.999zM156 814c0 7.33301 2.5 13.833 7.5 19.5s11.167 8.5 18.5 8.5s14 -2.83301 20 -8.5s9 -12.167 9 -19.5s-3 -13.666 -9 -18.999s-12.667 -8 -20 -8s-13.5 2.66699 -18.5 8s-7.5 11.666 -7.5 18.999z" />
    <glyph glyph-name="Eth" unicode="&#xd0;" horiz-adv-x="689" 
d="M304 679c46.667 0 90.834 -8.99805 132.501 -26.998s78 -42.5 109 -73.5s55.5 -67.333 73.5 -109s27 -85.834 27 -132.501c0 -47.333 -9 -91.333 -27 -132s-42.5 -76.334 -73.5 -107.001s-67.333 -54.667 -109 -72s-85.834 -26 -132.501 -26h-307v17h109v645h-109v17h307
zM629 338.002c0 44.667 -8.5 86.5 -25.5 125.5s-40.5 73.5 -70.5 103.5s-64.167 53.333 -102.5 70s-80.5 25 -126.5 25h-181v-645h181c46 0 88.167 8.16699 126.5 24.5s72.5 39.5 102.5 69.5s53.5 63.833 70.5 101.5s25.5 79.167 25.5 124.5v1zM-7 327.002v17h336v-17h-336z
" />
    <glyph glyph-name="Ntilde" unicode="&#xd1;" horiz-adv-x="782" 
d="M728 662h-107v-662h-17l-484 662h-3v-645h108v-17h-230v17h105v645h-103v17h134l474 -650v633h-107v17h230v-17zM519 824c-18 -4.66699 -34.166 -7.83398 -48.499 -9.50098s-27.5 -2.5 -39.5 -2.5c-24 0 -44 2.5 -60 7.5s-30.667 10.167 -44 15.5
c-11.333 4.66699 -22.333 8.66699 -33 12s-22.334 5 -35.001 5c-10.667 0 -23.167 -1.66699 -37.5 -5s-30.833 -9.66602 -49.5 -18.999v18c34.667 15.333 64 23 88 23c14.667 0 27.667 -1.83301 39 -5.5l34 -11.5c14 -5.33301 28.833 -10.5 44.5 -15.5
s34.167 -7.5 55.5 -7.5c22 0 50.667 4.33301 86 13v-18z" />
    <glyph glyph-name="Ograve" unicode="&#xd2;" horiz-adv-x="763" 
d="M-3 339c0 50 9.5 96.833 28.5 140.5s44.667 82 77 115s70.5 59 114.5 78s91 28.5 141 28.5s96.833 -9.5 140.5 -28.5s81.834 -45 114.501 -78s58.5 -71.333 77.5 -115s28.5 -90.5 28.5 -140.5s-9.5 -96.833 -28.5 -140.5s-44.833 -81.834 -77.5 -114.501
s-70.834 -58.5 -114.501 -77.5s-90.5 -28.5 -140.5 -28.5s-97 9.5 -141 28.5s-82.167 44.833 -114.5 77.5s-58 70.834 -77 114.501s-28.5 90.5 -28.5 140.5zM14 339c0 -47.333 9 -92 27 -134s42.5 -78.5 73.5 -109.5s67.5 -55.5 109.5 -73.5s86.667 -27 134 -27s92 9 134 27
s78.667 42.5 110 73.5s56 67.5 74 109.5s27 86.667 27 134s-9 92 -27 134s-42.667 78.667 -74 110s-68 56 -110 74s-86.667 27 -134 27s-92 -9 -134 -27s-78.5 -42.667 -109.5 -74s-55.5 -68 -73.5 -110s-27 -86.667 -27 -134zM393 753h-19l-125 178h19z" />
    <glyph glyph-name="Oacute" unicode="&#xd3;" horiz-adv-x="763" 
d="M-3 339c0 50 9.5 96.833 28.5 140.5s44.667 82 77 115s70.5 59 114.5 78s91 28.5 141 28.5s96.833 -9.5 140.5 -28.5s81.834 -45 114.501 -78s58.5 -71.333 77.5 -115s28.5 -90.5 28.5 -140.5s-9.5 -96.833 -28.5 -140.5s-44.833 -81.834 -77.5 -114.501
s-70.834 -58.5 -114.501 -77.5s-90.5 -28.5 -140.5 -28.5s-97 9.5 -141 28.5s-82.167 44.833 -114.5 77.5s-58 70.834 -77 114.501s-28.5 90.5 -28.5 140.5zM14 339c0 -47.333 9 -92 27 -134s42.5 -78.5 73.5 -109.5s67.5 -55.5 109.5 -73.5s86.667 -27 134 -27s92 9 134 27
s78.667 42.5 110 73.5s56 67.5 74 109.5s27 86.667 27 134s-9 92 -27 134s-42.667 78.667 -74 110s-68 56 -110 74s-86.667 27 -134 27s-92 -9 -134 -27s-78.5 -42.667 -109.5 -74s-55.5 -68 -73.5 -110s-27 -86.667 -27 -134zM430 935h19l-125 -187h-19z" />
    <glyph glyph-name="Ocircumflex" unicode="&#xd4;" horiz-adv-x="763" 
d="M-3 339c0 50 9.5 96.833 28.5 140.5s44.667 82 77 115s70.5 59 114.5 78s91 28.5 141 28.5s96.833 -9.5 140.5 -28.5s81.834 -45 114.501 -78s58.5 -71.333 77.5 -115s28.5 -90.5 28.5 -140.5s-9.5 -96.833 -28.5 -140.5s-44.833 -81.834 -77.5 -114.501
s-70.834 -58.5 -114.501 -77.5s-90.5 -28.5 -140.5 -28.5s-97 9.5 -141 28.5s-82.167 44.833 -114.5 77.5s-58 70.834 -77 114.501s-28.5 90.5 -28.5 140.5zM14 339c0 -47.333 9 -92 27 -134s42.5 -78.5 73.5 -109.5s67.5 -55.5 109.5 -73.5s86.667 -27 134 -27s92 9 134 27
s78.667 42.5 110 73.5s56 67.5 74 109.5s27 86.667 27 134s-9 92 -27 134s-42.667 78.667 -74 110s-68 56 -110 74s-86.667 27 -134 27s-92 -9 -134 -27s-78.5 -42.667 -109.5 -74s-55.5 -68 -73.5 -110s-27 -86.667 -27 -134zM486 775l-125 106l-64.5 -54l-63.5 -54l-12 12
l140 119l137 -118z" />
    <glyph glyph-name="Otilde" unicode="&#xd5;" horiz-adv-x="763" 
d="M-3 339c0 50 9.5 96.833 28.5 140.5s44.667 82 77 115s70.5 59 114.5 78s91 28.5 141 28.5s96.833 -9.5 140.5 -28.5s81.834 -45 114.501 -78s58.5 -71.333 77.5 -115s28.5 -90.5 28.5 -140.5s-9.5 -96.833 -28.5 -140.5s-44.833 -81.834 -77.5 -114.501
s-70.834 -58.5 -114.501 -77.5s-90.5 -28.5 -140.5 -28.5s-97 9.5 -141 28.5s-82.167 44.833 -114.5 77.5s-58 70.834 -77 114.501s-28.5 90.5 -28.5 140.5zM14 339c0 -47.333 9 -92 27 -134s42.5 -78.5 73.5 -109.5s67.5 -55.5 109.5 -73.5s86.667 -27 134 -27s92 9 134 27
s78.667 42.5 110 73.5s56 67.5 74 109.5s27 86.667 27 134s-9 92 -27 134s-42.667 78.667 -74 110s-68 56 -110 74s-86.667 27 -134 27s-92 -9 -134 -27s-78.5 -42.667 -109.5 -74s-55.5 -68 -73.5 -110s-27 -86.667 -27 -134zM524 802
c-18 -4.66699 -34.166 -7.83398 -48.499 -9.50098s-27.5 -2.5 -39.5 -2.5c-24 0 -44 2.5 -60 7.5s-30.667 10.167 -44 15.5c-11.333 4.66699 -22.333 8.66699 -33 12s-22.334 5 -35.001 5c-10.667 0 -23.167 -1.66699 -37.5 -5s-30.833 -9.66602 -49.5 -18.999v18
c34.667 15.333 64 23 88 23c14.667 0 27.667 -1.83301 39 -5.5l34 -11.5c14 -5.33301 28.833 -10.5 44.5 -15.5s34.167 -7.5 55.5 -7.5c22 0 50.667 4.33301 86 13v-18z" />
    <glyph glyph-name="Odieresis" unicode="&#xd6;" horiz-adv-x="763" 
d="M-3 339c0 50 9.5 96.833 28.5 140.5s44.667 82 77 115s70.5 59 114.5 78s91 28.5 141 28.5s96.833 -9.5 140.5 -28.5s81.834 -45 114.501 -78s58.5 -71.333 77.5 -115s28.5 -90.5 28.5 -140.5s-9.5 -96.833 -28.5 -140.5s-44.833 -81.834 -77.5 -114.501
s-70.834 -58.5 -114.501 -77.5s-90.5 -28.5 -140.5 -28.5s-97 9.5 -141 28.5s-82.167 44.833 -114.5 77.5s-58 70.834 -77 114.501s-28.5 90.5 -28.5 140.5zM14 339c0 -47.333 9 -92 27 -134s42.5 -78.5 73.5 -109.5s67.5 -55.5 109.5 -73.5s86.667 -27 134 -27s92 9 134 27
s78.667 42.5 110 73.5s56 67.5 74 109.5s27 86.667 27 134s-9 92 -27 134s-42.667 78.667 -74 110s-68 56 -110 74s-86.667 27 -134 27s-92 -9 -134 -27s-78.5 -42.667 -109.5 -74s-55.5 -68 -73.5 -110s-27 -86.667 -27 -134zM251 838c0 7.33301 2.66699 13.833 8 19.5
s11.666 8.5 18.999 8.5s13.833 -2.83301 19.5 -8.5s8.5 -12.167 8.5 -19.5s-2.83301 -13.666 -8.5 -18.999s-12.167 -8 -19.5 -8s-13.666 2.66699 -18.999 8s-8 11.666 -8 18.999zM417 838c0 7.33301 2.5 13.833 7.5 19.5s11.167 8.5 18.5 8.5s14 -2.83301 20 -8.5
s9 -12.167 9 -19.5s-3 -13.666 -9 -18.999s-12.667 -8 -20 -8s-13.5 2.66699 -18.5 8s-7.5 11.666 -7.5 18.999z" />
    <glyph glyph-name="multiply" unicode="&#xd7;" horiz-adv-x="453" 
d="M57 172l143 142l-143 144l11 11l143 -144l143 144l11 -11l-144 -144l144 -142l-11 -11l-143 143l-143 -143z" />
    <glyph glyph-name="Oslash" unicode="&#xd8;" horiz-adv-x="763" 
d="M473 759h18l-269 -838h-18zM0 345c0 50 9.5 96.833 28.5 140.5s44.667 82 77 115s70.5 59 114.5 78s91 28.5 141 28.5s96.833 -9.5 140.5 -28.5s81.834 -45 114.501 -78s58.5 -71.333 77.5 -115s28.5 -90.5 28.5 -140.5s-9.5 -96.833 -28.5 -140.5
s-44.833 -81.834 -77.5 -114.501s-70.834 -58.5 -114.501 -77.5s-90.5 -28.5 -140.5 -28.5s-97 9.5 -141 28.5s-82.167 44.833 -114.5 77.5s-58 70.834 -77 114.501s-28.5 90.5 -28.5 140.5zM17 345c0 -47.333 9 -92 27 -134s42.5 -78.5 73.5 -109.5s67.5 -55.5 109.5 -73.5
s86.667 -27 134 -27s92 9 134 27s78.667 42.5 110 73.5s56 67.5 74 109.5s27 86.667 27 134s-9 92 -27 134s-42.667 78.667 -74 110s-68 56 -110 74s-86.667 27 -134 27s-92 -9 -134 -27s-78.5 -42.667 -109.5 -74s-55.5 -68 -73.5 -110s-27 -86.667 -27 -134z" />
    <glyph glyph-name="Ugrave" unicode="&#xd9;" horiz-adv-x="677" 
d="M625 662h-110.998v-473c0 -28 -5.33301 -54.333 -16 -79s-25.334 -46.334 -44.001 -65.001s-40.167 -33.334 -64.5 -44.001s-50.5 -16 -78.5 -16s-54.167 5.33301 -78.5 16s-45.833 25.334 -64.5 44.001s-33.334 40.334 -44.001 65.001s-16 51 -16 79v473h-111v17h232
v-17h-104v-473c0 -26 4.83301 -50.333 14.5 -73s23.167 -42.334 40.5 -59.001c16.667 -17.333 36.167 -30.833 58.5 -40.5s46.5 -14.5 72.5 -14.5s50.167 4.83301 72.5 14.5s42.166 23.167 59.499 40.5c16.667 16.667 29.834 36.334 39.501 59.001s14.5 47 14.5 73v473h-104
v17h232v-17zM369.002 732h-19l-125 178h19z" />
    <glyph glyph-name="Uacute" unicode="&#xda;" horiz-adv-x="677" 
d="M625 662h-110.998v-473c0 -28 -5.33301 -54.333 -16 -79s-25.334 -46.334 -44.001 -65.001s-40.167 -33.334 -64.5 -44.001s-50.5 -16 -78.5 -16s-54.167 5.33301 -78.5 16s-45.833 25.334 -64.5 44.001s-33.334 40.334 -44.001 65.001s-16 51 -16 79v473h-111v17h232
v-17h-104v-473c0 -26 4.83301 -50.333 14.5 -73s23.167 -42.334 40.5 -59.001c16.667 -17.333 36.167 -30.833 58.5 -40.5s46.5 -14.5 72.5 -14.5s50.167 4.83301 72.5 14.5s42.166 23.167 59.499 40.5c16.667 16.667 29.834 36.334 39.501 59.001s14.5 47 14.5 73v473h-104
v17h232v-17zM389.002 914h19l-125 -187h-19z" />
    <glyph glyph-name="Ucircumflex" unicode="&#xdb;" horiz-adv-x="677" 
d="M625 662h-110.998v-473c0 -28 -5.33301 -54.333 -16 -79s-25.334 -46.334 -44.001 -65.001s-40.167 -33.334 -64.5 -44.001s-50.5 -16 -78.5 -16s-54.167 5.33301 -78.5 16s-45.833 25.334 -64.5 44.001s-33.334 40.334 -44.001 65.001s-16 51 -16 79v473h-111v17h232
v-17h-104v-473c0 -26 4.83301 -50.333 14.5 -73s23.167 -42.334 40.5 -59.001c16.667 -17.333 36.167 -30.833 58.5 -40.5s46.5 -14.5 72.5 -14.5s50.167 4.83301 72.5 14.5s42.166 23.167 59.499 40.5c16.667 16.667 29.834 36.334 39.501 59.001s14.5 47 14.5 73v473h-104
v17h232v-17zM444.002 762l-125 106l-64.5 -54l-63.5 -54l-12 12l140 119l137 -118z" />
    <glyph glyph-name="Udieresis" unicode="&#xdc;" horiz-adv-x="677" 
d="M625 662h-110.998v-473c0 -28 -5.33301 -54.333 -16 -79s-25.334 -46.334 -44.001 -65.001s-40.167 -33.334 -64.5 -44.001s-50.5 -16 -78.5 -16s-54.167 5.33301 -78.5 16s-45.833 25.334 -64.5 44.001s-33.334 40.334 -44.001 65.001s-16 51 -16 79v473h-111v17h232
v-17h-104v-473c0 -26 4.83301 -50.333 14.5 -73s23.167 -42.334 40.5 -59.001c16.667 -17.333 36.167 -30.833 58.5 -40.5s46.5 -14.5 72.5 -14.5s50.167 4.83301 72.5 14.5s42.166 23.167 59.499 40.5c16.667 16.667 29.834 36.334 39.501 59.001s14.5 47 14.5 73v473h-104
v17h232v-17zM209.002 847c0 7.33301 2.66699 13.833 8 19.5s11.666 8.5 18.999 8.5s13.833 -2.83301 19.5 -8.5s8.5 -12.167 8.5 -19.5s-2.83301 -13.666 -8.5 -18.999s-12.167 -8 -19.5 -8s-13.666 2.66699 -18.999 8s-8 11.666 -8 18.999zM375.002 847
c0 7.33301 2.5 13.833 7.5 19.5s11.167 8.5 18.5 8.5s14 -2.83301 20 -8.5s9 -12.167 9 -19.5s-3 -13.666 -9 -18.999s-12.667 -8 -20 -8s-13.5 2.66699 -18.5 8s-7.5 11.666 -7.5 18.999z" />
    <glyph glyph-name="Yacute" unicode="&#xdd;" horiz-adv-x="700" 
d="M341 230v-213h107v-17h-231v17h107v214l-112 215.5l-112 215.5h-103v17h230v-17h-108l107 -204.5l107 -205.5l202 410h-118v17h230v-17h-94zM400 914h19l-125 -187h-19z" />
    <glyph glyph-name="Thorn" unicode="&#xde;" 
d="M363 570c35.333 0 68.667 -6.66895 100 -20.002s58.5 -31.5 81.5 -54.5s41.167 -50 54.5 -81s20 -64.167 20 -99.5s-6.66699 -68.5 -20 -99.5s-31.5 -58.167 -54.5 -81.5s-50.167 -41.666 -81.5 -54.999s-64.666 -20 -99.999 -20c-26.667 0 -52.334 4 -77.001 12
s-47.167 19.333 -67.5 34s-38.5 31.834 -54.5 51.501s-28.667 41.5 -38 65.5v-222h-93v17h76v596h-76v17h93v-222c9.33301 24 22 45.833 38 65.5s34.333 36.667 55 51s43.167 25.5 67.5 33.5s49.833 12 76.5 12zM532.001 144.998c22 22 39.167 47.334 51.5 76.001
s18.5 60 18.5 94c0 33.333 -6.16699 64.333 -18.5 93s-29.5 53.667 -51.5 75c-21.333 22 -46.333 39.167 -75 51.5s-60 18.5 -94 18.5c-33.333 0 -64.333 -6.16699 -93 -18.5s-53.667 -29.5 -75 -51.5c-40.667 -38.667 -63.667 -88.334 -69 -149.001v-38
c5.33301 -60 28.333 -110.333 69 -151c21.333 -21.333 46.333 -38 75 -50s59.667 -18 93 -18c34 0 65.333 6 94 18s53.667 28.667 75 50z" />
    <glyph glyph-name="germandbls" unicode="&#xdf;" 
d="M147 4l-0.000976562 641.999c0 14 3.83301 26.667 11.5 38s17.834 20.833 30.501 28.5s27.167 13.667 43.5 18s32.833 6.5 49.5 6.5c18.667 0 36 -2.66699 52 -8s30 -13.333 42 -24s21.5 -23.667 28.5 -39s10.5 -33.333 10.5 -54c0 -26 -5.5 -48 -16.5 -66
s-23.167 -35.333 -36.5 -52c-14.667 -17.333 -25 -33 -31 -47s-9 -26.667 -9 -38c0 -14.667 4.33301 -28.834 13 -42.501s18.667 -27.167 30 -40.5l20.5 -27c7 -9.33301 13.5 -19.666 19.5 -30.999s10.833 -23.5 14.5 -36.5s5.5 -27.5 5.5 -43.5
c0 -26.667 -10.167 -55 -30.5 -85s-55.833 -57.667 -106.5 -83l-2 18c44.667 22.667 76.167 47.5 94.5 74.5s27.5 52.167 27.5 75.5c0 14.667 -1.83301 28 -5.5 40s-8.33398 23 -14.001 33s-12 19.5 -19 28.5l-20.5 25.5l-31.5 43.5
c-9.66699 13.667 -14.5 29.834 -14.5 48.501c0 14 3.33301 29 10 45s18.334 34 35.001 54c12.667 15.333 24.167 31.166 34.5 47.499s15.5 35.833 15.5 58.5c0 36 -11.167 63 -33.5 81s-49.833 27 -82.5 27c-14.667 0 -29 -1.83301 -43 -5.5s-26.5 -8.66699 -37.5 -15
s-19.833 -14.166 -26.5 -23.499s-10 -19.333 -10 -30v-642h-18z" />
    <glyph glyph-name="agrave" unicode="&#xe0;" horiz-adv-x="664" 
d="M505 483v-466h104v-17h-121v156c-9.33301 -23.333 -22 -44.833 -38 -64.5s-34.167 -36.667 -54.5 -51s-42.666 -25.5 -66.999 -33.5s-49.833 -12 -76.5 -12c-35.333 0 -68.333 6.66699 -99 20s-57.5 31.5 -80.5 54.5s-41.167 49.833 -54.5 80.5s-20 63.667 -20 99
c0 34.667 6.66699 67.5 20 98.5s31.5 58 54.5 81s49.833 41.167 80.5 54.5s63.667 20 99 20c26.667 0 52.167 -4 76.5 -12s46.666 -19.167 66.999 -33.5s38.5 -31.333 54.5 -51s28.667 -41.167 38 -64.5v158h121v-17h-104zM420 81c19.333 19.333 34.833 41.332 46.5 65.999
s18.834 51.667 21.501 81v43c-2.66699 28.667 -9.83398 55.334 -21.501 80.001s-27.167 46.667 -46.5 66c-21.333 21.333 -46.333 38.166 -75 50.499s-59.667 18.5 -93 18.5c-34 0 -65.167 -6.16699 -93.5 -18.5s-53.166 -29.166 -74.499 -50.499s-38.333 -46.5 -51 -75.5
s-19 -59.833 -19 -92.5c0 -33.333 6.33301 -64.333 19 -93s29.667 -53.667 51 -75s46.166 -38.166 74.499 -50.499s59.5 -18.5 93.5 -18.5c33.333 0 64.333 6.16699 93 18.5s53.667 29.166 75 50.499zM330 561.999h-19l-125 178h19z" />
    <glyph glyph-name="aacute" unicode="&#xe1;" horiz-adv-x="664" 
d="M505 483v-466h104v-17h-121v156c-9.33301 -23.333 -22 -44.833 -38 -64.5s-34.167 -36.667 -54.5 -51s-42.666 -25.5 -66.999 -33.5s-49.833 -12 -76.5 -12c-35.333 0 -68.333 6.66699 -99 20s-57.5 31.5 -80.5 54.5s-41.167 49.833 -54.5 80.5s-20 63.667 -20 99
c0 34.667 6.66699 67.5 20 98.5s31.5 58 54.5 81s49.833 41.167 80.5 54.5s63.667 20 99 20c26.667 0 52.167 -4 76.5 -12s46.666 -19.167 66.999 -33.5s38.5 -31.333 54.5 -51s28.667 -41.167 38 -64.5v158h121v-17h-104zM420 81c19.333 19.333 34.833 41.332 46.5 65.999
s18.834 51.667 21.501 81v43c-2.66699 28.667 -9.83398 55.334 -21.501 80.001s-27.167 46.667 -46.5 66c-21.333 21.333 -46.333 38.166 -75 50.499s-59.667 18.5 -93 18.5c-34 0 -65.167 -6.16699 -93.5 -18.5s-53.166 -29.166 -74.499 -50.499s-38.333 -46.5 -51 -75.5
s-19 -59.833 -19 -92.5c0 -33.333 6.33301 -64.333 19 -93s29.667 -53.667 51 -75s46.166 -38.166 74.499 -50.499s59.5 -18.5 93.5 -18.5c33.333 0 64.333 6.16699 93 18.5s53.667 29.166 75 50.499zM335 741.999h19l-125 -187h-19z" />
    <glyph glyph-name="acircumflex" unicode="&#xe2;" horiz-adv-x="664" 
d="M505 483v-466h104v-17h-121v156c-9.33301 -23.333 -22 -44.833 -38 -64.5s-34.167 -36.667 -54.5 -51s-42.666 -25.5 -66.999 -33.5s-49.833 -12 -76.5 -12c-35.333 0 -68.333 6.66699 -99 20s-57.5 31.5 -80.5 54.5s-41.167 49.833 -54.5 80.5s-20 63.667 -20 99
c0 34.667 6.66699 67.5 20 98.5s31.5 58 54.5 81s49.833 41.167 80.5 54.5s63.667 20 99 20c26.667 0 52.167 -4 76.5 -12s46.666 -19.167 66.999 -33.5s38.5 -31.333 54.5 -51s28.667 -41.167 38 -64.5v158h121v-17h-104zM420 81c19.333 19.333 34.833 41.332 46.5 65.999
s18.834 51.667 21.501 81v43c-2.66699 28.667 -9.83398 55.334 -21.501 80.001s-27.167 46.667 -46.5 66c-21.333 21.333 -46.333 38.166 -75 50.499s-59.667 18.5 -93 18.5c-34 0 -65.167 -6.16699 -93.5 -18.5s-53.166 -29.166 -74.499 -50.499s-38.333 -46.5 -51 -75.5
s-19 -59.833 -19 -92.5c0 -33.333 6.33301 -64.333 19 -93s29.667 -53.667 51 -75s46.166 -38.166 74.499 -50.499s59.5 -18.5 93.5 -18.5c33.333 0 64.333 6.16699 93 18.5s53.667 29.166 75 50.499zM372 583.999l-125 106l-64.5 -54l-63.5 -54l-12 12l140 119l137 -118z
" />
    <glyph glyph-name="atilde" unicode="&#xe3;" horiz-adv-x="664" 
d="M505 483v-466h104v-17h-121v156c-9.33301 -23.333 -22 -44.833 -38 -64.5s-34.167 -36.667 -54.5 -51s-42.666 -25.5 -66.999 -33.5s-49.833 -12 -76.5 -12c-35.333 0 -68.333 6.66699 -99 20s-57.5 31.5 -80.5 54.5s-41.167 49.833 -54.5 80.5s-20 63.667 -20 99
c0 34.667 6.66699 67.5 20 98.5s31.5 58 54.5 81s49.833 41.167 80.5 54.5s63.667 20 99 20c26.667 0 52.167 -4 76.5 -12s46.666 -19.167 66.999 -33.5s38.5 -31.333 54.5 -51s28.667 -41.167 38 -64.5v158h121v-17h-104zM420 81c19.333 19.333 34.833 41.332 46.5 65.999
s18.834 51.667 21.501 81v43c-2.66699 28.667 -9.83398 55.334 -21.501 80.001s-27.167 46.667 -46.5 66c-21.333 21.333 -46.333 38.166 -75 50.499s-59.667 18.5 -93 18.5c-34 0 -65.167 -6.16699 -93.5 -18.5s-53.166 -29.166 -74.499 -50.499s-38.333 -46.5 -51 -75.5
s-19 -59.833 -19 -92.5c0 -33.333 6.33301 -64.333 19 -93s29.667 -53.667 51 -75s46.166 -38.166 74.499 -50.499s59.5 -18.5 93.5 -18.5c33.333 0 64.333 6.16699 93 18.5s53.667 29.166 75 50.499zM426 611.999c-18 -4.66699 -34.166 -7.83398 -48.499 -9.50098
s-27.5 -2.5 -39.5 -2.5c-24 0 -44 2.5 -60 7.5s-30.667 10.167 -44 15.5c-11.333 4.66699 -22.333 8.66699 -33 12s-22.334 5 -35.001 5c-10.667 0 -23.167 -1.66699 -37.5 -5s-30.833 -9.66602 -49.5 -18.999v18c34.667 15.333 64 23 88 23
c14.667 0 27.667 -1.83301 39 -5.5l34 -11.5c14 -5.33301 28.833 -10.5 44.5 -15.5s34.167 -7.5 55.5 -7.5c22 0 50.667 4.33301 86 13v-18z" />
    <glyph glyph-name="adieresis" unicode="&#xe4;" horiz-adv-x="664" 
d="M505 483v-466h104v-17h-121v156c-9.33301 -23.333 -22 -44.833 -38 -64.5s-34.167 -36.667 -54.5 -51s-42.666 -25.5 -66.999 -33.5s-49.833 -12 -76.5 -12c-35.333 0 -68.333 6.66699 -99 20s-57.5 31.5 -80.5 54.5s-41.167 49.833 -54.5 80.5s-20 63.667 -20 99
c0 34.667 6.66699 67.5 20 98.5s31.5 58 54.5 81s49.833 41.167 80.5 54.5s63.667 20 99 20c26.667 0 52.167 -4 76.5 -12s46.666 -19.167 66.999 -33.5s38.5 -31.333 54.5 -51s28.667 -41.167 38 -64.5v158h121v-17h-104zM420 81c19.333 19.333 34.833 41.332 46.5 65.999
s18.834 51.667 21.501 81v43c-2.66699 28.667 -9.83398 55.334 -21.501 80.001s-27.167 46.667 -46.5 66c-21.333 21.333 -46.333 38.166 -75 50.499s-59.667 18.5 -93 18.5c-34 0 -65.167 -6.16699 -93.5 -18.5s-53.166 -29.166 -74.499 -50.499s-38.333 -46.5 -51 -75.5
s-19 -59.833 -19 -92.5c0 -33.333 6.33301 -64.333 19 -93s29.667 -53.667 51 -75s46.166 -38.166 74.499 -50.499s59.5 -18.5 93.5 -18.5c33.333 0 64.333 6.16699 93 18.5s53.667 29.166 75 50.499zM141 642.999c0 7.33301 2.66699 13.833 8 19.5s11.666 8.5 18.999 8.5
s13.833 -2.83301 19.5 -8.5s8.5 -12.167 8.5 -19.5s-2.83301 -13.666 -8.5 -18.999s-12.167 -8 -19.5 -8s-13.666 2.66699 -18.999 8s-8 11.666 -8 18.999zM307 642.999c0 7.33301 2.5 13.833 7.5 19.5s11.167 8.5 18.5 8.5s14 -2.83301 20 -8.5s9 -12.167 9 -19.5
s-3 -13.666 -9 -18.999s-12.667 -8 -20 -8s-13.5 2.66699 -18.5 8s-7.5 11.666 -7.5 18.999z" />
    <glyph glyph-name="aring" unicode="&#xe5;" horiz-adv-x="664" 
d="M505 483v-466h104v-17h-121v156c-9.33301 -23.333 -22 -44.833 -38 -64.5s-34.167 -36.667 -54.5 -51s-42.666 -25.5 -66.999 -33.5s-49.833 -12 -76.5 -12c-35.333 0 -68.333 6.66699 -99 20s-57.5 31.5 -80.5 54.5s-41.167 49.833 -54.5 80.5s-20 63.667 -20 99
c0 34.667 6.66699 67.5 20 98.5s31.5 58 54.5 81s49.833 41.167 80.5 54.5s63.667 20 99 20c26.667 0 52.167 -4 76.5 -12s46.666 -19.167 66.999 -33.5s38.5 -31.333 54.5 -51s28.667 -41.167 38 -64.5v158h121v-17h-104zM420 81c19.333 19.333 34.833 41.332 46.5 65.999
s18.834 51.667 21.501 81v43c-2.66699 28.667 -9.83398 55.334 -21.501 80.001s-27.167 46.667 -46.5 66c-21.333 21.333 -46.333 38.166 -75 50.499s-59.667 18.5 -93 18.5c-34 0 -65.167 -6.16699 -93.5 -18.5s-53.166 -29.166 -74.499 -50.499s-38.333 -46.5 -51 -75.5
s-19 -59.833 -19 -92.5c0 -33.333 6.33301 -64.333 19 -93s29.667 -53.667 51 -75s46.166 -38.166 74.499 -50.499s59.5 -18.5 93.5 -18.5c33.333 0 64.333 6.16699 93 18.5s53.667 29.166 75 50.499zM165 602.999c0 12 2.16504 23.167 6.49805 33.5s10.5 19.333 18.5 27
s17.167 13.834 27.5 18.501s21.5 7 33.5 7s23.333 -2.33301 34 -7s19.834 -10.834 27.501 -18.501s13.834 -16.667 18.501 -27s7 -21.5 7 -33.5c0 -24 -8.5 -44.333 -25.5 -61s-37.5 -25 -61.5 -25s-44.333 8.33301 -61 25s-25 37 -25 61zM181.998 602.999
c0 -19.333 6.66699 -35.833 20 -49.5s29.666 -20.5 48.999 -20.5s35.833 6.83301 49.5 20.5s20.5 30.167 20.5 49.5s-6.83301 35.833 -20.5 49.5s-30.167 20.5 -49.5 20.5s-35.666 -6.83301 -48.999 -20.5s-20 -30.167 -20 -49.5z" />
    <glyph glyph-name="ae" unicode="&#xe6;" horiz-adv-x="1224" 
d="M505 483v-466h104v-17h-121v156c-9.33301 -23.333 -22 -44.833 -38 -64.5s-34.167 -36.667 -54.5 -51s-42.666 -25.5 -66.999 -33.5s-49.833 -12 -76.5 -12c-35.333 0 -68.333 6.66699 -99 20s-57.5 31.5 -80.5 54.5s-41.167 49.833 -54.5 80.5s-20 63.667 -20 99
c0 34.667 6.66699 67.5 20 98.5s31.5 58 54.5 81s49.833 41.167 80.5 54.5s63.667 20 99 20c26.667 0 52.167 -4 76.5 -12s46.666 -19.167 66.999 -33.5s38.5 -31.333 54.5 -51s28.667 -41.167 38 -64.5v158h121v-17h-104zM420 81c19.333 19.333 34.833 41.332 46.5 65.999
s18.834 51.667 21.501 81v43c-2.66699 28.667 -9.83398 55.334 -21.501 80.001s-27.167 46.667 -46.5 66c-21.333 21.333 -46.333 38.166 -75 50.499s-59.667 18.5 -93 18.5c-34 0 -65.167 -6.16699 -93.5 -18.5s-53.166 -29.166 -74.499 -50.499s-38.333 -46.5 -51 -75.5
s-19 -59.833 -19 -92.5c0 -33.333 6.33301 -64.333 19 -93s29.667 -53.667 51 -75s46.166 -38.166 74.499 -50.499s59.5 -18.5 93.5 -18.5c33.333 0 64.333 6.16699 93 18.5s53.667 29.166 75 50.499zM515 241.999c0.666992 -32 7.66504 -62.1641 20.998 -90.4971
s30.833 -53 52.5 -74s46.834 -37.667 75.501 -50s59 -18.5 91 -18.5c24.667 0 48.5 3.5 71.5 10.5s44.167 17 63.5 30s36.666 28.5 51.999 46.5s27.666 38 36.999 60h17c-10 -24 -23.333 -46 -40 -66s-35.5 -37.333 -56.5 -52s-43.667 -26 -68 -34s-49.833 -12 -76.5 -12
c-35.333 0 -68.666 6.66699 -99.999 20s-58.666 31.666 -81.999 54.999s-41.666 50.666 -54.999 81.999s-20 64.666 -20 99.999c0 36 6.5 69.667 19.5 101s30.667 58.833 53 82.5s48.833 42.167 79.5 55.5s63.667 20 99 20c36 0 69.667 -7 101 -21s58.833 -33 82.5 -57
s42.167 -52.167 55.5 -84.5s20 -66.833 20 -103.5h-493zM748.998 491.002c-32 0 -61.832 -6.16699 -89.499 -18.5s-52 -29 -73 -50s-37.833 -45.5 -50.5 -73.5s-19.667 -58 -21 -90h476c-2 32 -9.66699 62 -23 90s-30.833 52.5 -52.5 73.5s-46.834 37.667 -75.501 50
s-59 18.5 -91 18.5z" />
    <glyph glyph-name="ccedilla" unicode="&#xe7;" horiz-adv-x="535" 
d="M497 157c-10 -24 -23.334 -46.165 -40.001 -66.498s-35.5 -37.833 -56.5 -52.5s-43.833 -26.167 -68.5 -34.5s-50.334 -12.5 -77.001 -12.5c-36 0 -69.667 6.66699 -101 20s-58.666 31.666 -81.999 54.999s-41.666 50.666 -54.999 81.999s-20 65 -20 101
s6.66699 69.667 20 101s31.666 58.666 54.999 81.999s50.666 41.833 81.999 55.5s65 20.5 101 20.5c44 0 84.333 -9.83301 121 -29.5s66.667 -46.5 90 -80.5v101h16v-138h-13c-21.333 38.667 -50.833 70 -88.5 94s-79.5 36 -125.5 36
c-33.333 0 -64.666 -6.33301 -93.999 -19s-54.833 -30 -76.5 -52s-38.834 -47.667 -51.501 -77s-19 -60.666 -19 -93.999s6.33301 -64.666 19 -93.999s29.834 -54.833 51.501 -76.5s47.167 -38.834 76.5 -51.501s60.666 -19 93.999 -19c24.667 0 48.334 3.66699 71.001 11
s43.834 17.5 63.501 30.5s37 28.667 52 47s27.5 38.5 37.5 60.5h18zM182.999 -129.998c-6.66699 -15.333 -10.0039 -28.3379 -10.0039 -39.0049c0 -20 7 -37.667 21 -53s31.667 -23 53 -23c20.667 0 38.334 7.33301 53.001 22s22 32.334 22 53.001
s-8.16699 38.334 -24.5 53.001s-36.166 22 -59.499 22v102h18v-84c10.667 -1.33301 21.167 -4.66602 31.5 -9.99902s19.333 -12.166 27 -20.499s13.834 -17.833 18.501 -28.5s7 -22 7 -34c0 -12.667 -2.5 -24.667 -7.5 -36s-11.667 -21.166 -20 -29.499
s-18.166 -15 -29.499 -20s-23.333 -7.5 -36 -7.5c-28 0 -50.333 9.33301 -67 28s-25 40.667 -25 66c0 12 3.66699 26.333 11 43z" />
    <glyph glyph-name="egrave" unicode="&#xe8;" horiz-adv-x="560" 
d="M14 242c0.666992 -32 7.66504 -62.1641 20.998 -90.4971s30.833 -53 52.5 -74s46.834 -37.667 75.501 -50s59 -18.5 91 -18.5c24.667 0 48.5 3.5 71.5 10.5s44.167 17 63.5 30s36.666 28.5 51.999 46.5s27.666 38 36.999 60h17c-10 -24 -23.333 -46 -40 -66
s-35.5 -37.333 -56.5 -52s-43.667 -26 -68 -34s-49.833 -12 -76.5 -12c-35.333 0 -68.666 6.66699 -99.999 20s-58.666 31.666 -81.999 54.999s-41.666 50.666 -54.999 81.999s-20 64.666 -20 99.999c0 36 6.5 69.667 19.5 101s30.667 58.833 53 82.5
s48.833 42.167 79.5 55.5s63.667 20 99 20c36 0 69.667 -7 101 -21s58.833 -33 82.5 -57s42.167 -52.167 55.5 -84.5s20 -66.833 20 -103.5h-493zM247.998 491.003c-32 0 -61.832 -6.16699 -89.499 -18.5s-52 -29 -73 -50s-37.833 -45.5 -50.5 -73.5s-19.667 -58 -21 -90
h476c-2 32 -9.66699 62 -23 90s-30.833 52.5 -52.5 73.5s-46.834 37.667 -75.501 50s-59 18.5 -91 18.5zM305.999 548.003h-19l-125 178h19z" />
    <glyph glyph-name="eacute" unicode="&#xe9;" horiz-adv-x="560" 
d="M14 242c0.666992 -32 7.66504 -62.1641 20.998 -90.4971s30.833 -53 52.5 -74s46.834 -37.667 75.501 -50s59 -18.5 91 -18.5c24.667 0 48.5 3.5 71.5 10.5s44.167 17 63.5 30s36.666 28.5 51.999 46.5s27.666 38 36.999 60h17c-10 -24 -23.333 -46 -40 -66
s-35.5 -37.333 -56.5 -52s-43.667 -26 -68 -34s-49.833 -12 -76.5 -12c-35.333 0 -68.666 6.66699 -99.999 20s-58.666 31.666 -81.999 54.999s-41.666 50.666 -54.999 81.999s-20 64.666 -20 99.999c0 36 6.5 69.667 19.5 101s30.667 58.833 53 82.5
s48.833 42.167 79.5 55.5s63.667 20 99 20c36 0 69.667 -7 101 -21s58.833 -33 82.5 -57s42.167 -52.167 55.5 -84.5s20 -66.833 20 -103.5h-493zM247.998 491.003c-32 0 -61.832 -6.16699 -89.499 -18.5s-52 -29 -73 -50s-37.833 -45.5 -50.5 -73.5s-19.667 -58 -21 -90
h476c-2 32 -9.66699 62 -23 90s-30.833 52.5 -52.5 73.5s-46.834 37.667 -75.501 50s-59 18.5 -91 18.5zM329.999 735.003h19l-125 -187h-19z" />
    <glyph glyph-name="ecircumflex" unicode="&#xea;" horiz-adv-x="560" 
d="M14 242c0.666992 -32 7.66504 -62.1641 20.998 -90.4971s30.833 -53 52.5 -74s46.834 -37.667 75.501 -50s59 -18.5 91 -18.5c24.667 0 48.5 3.5 71.5 10.5s44.167 17 63.5 30s36.666 28.5 51.999 46.5s27.666 38 36.999 60h17c-10 -24 -23.333 -46 -40 -66
s-35.5 -37.333 -56.5 -52s-43.667 -26 -68 -34s-49.833 -12 -76.5 -12c-35.333 0 -68.666 6.66699 -99.999 20s-58.666 31.666 -81.999 54.999s-41.666 50.666 -54.999 81.999s-20 64.666 -20 99.999c0 36 6.5 69.667 19.5 101s30.667 58.833 53 82.5
s48.833 42.167 79.5 55.5s63.667 20 99 20c36 0 69.667 -7 101 -21s58.833 -33 82.5 -57s42.167 -52.167 55.5 -84.5s20 -66.833 20 -103.5h-493zM247.998 491.003c-32 0 -61.832 -6.16699 -89.499 -18.5s-52 -29 -73 -50s-37.833 -45.5 -50.5 -73.5s-19.667 -58 -21 -90
h476c-2 32 -9.66699 62 -23 90s-30.833 52.5 -52.5 73.5s-46.834 37.667 -75.501 50s-59 18.5 -91 18.5zM372.999 578.003l-125 106l-64.5 -54l-63.5 -54l-12 12l140 119l137 -118z" />
    <glyph glyph-name="edieresis" unicode="&#xeb;" horiz-adv-x="560" 
d="M14 242c0.666992 -32 7.66504 -62.1641 20.998 -90.4971s30.833 -53 52.5 -74s46.834 -37.667 75.501 -50s59 -18.5 91 -18.5c24.667 0 48.5 3.5 71.5 10.5s44.167 17 63.5 30s36.666 28.5 51.999 46.5s27.666 38 36.999 60h17c-10 -24 -23.333 -46 -40 -66
s-35.5 -37.333 -56.5 -52s-43.667 -26 -68 -34s-49.833 -12 -76.5 -12c-35.333 0 -68.666 6.66699 -99.999 20s-58.666 31.666 -81.999 54.999s-41.666 50.666 -54.999 81.999s-20 64.666 -20 99.999c0 36 6.5 69.667 19.5 101s30.667 58.833 53 82.5
s48.833 42.167 79.5 55.5s63.667 20 99 20c36 0 69.667 -7 101 -21s58.833 -33 82.5 -57s42.167 -52.167 55.5 -84.5s20 -66.833 20 -103.5h-493zM247.998 491.003c-32 0 -61.832 -6.16699 -89.499 -18.5s-52 -29 -73 -50s-37.833 -45.5 -50.5 -73.5s-19.667 -58 -21 -90
h476c-2 32 -9.66699 62 -23 90s-30.833 52.5 -52.5 73.5s-46.834 37.667 -75.501 50s-59 18.5 -91 18.5zM130.999 656.003c0 7.33301 2.66699 13.833 8 19.5s11.666 8.5 18.999 8.5s13.833 -2.83301 19.5 -8.5s8.5 -12.167 8.5 -19.5s-2.83301 -13.666 -8.5 -18.999
s-12.167 -8 -19.5 -8s-13.666 2.66699 -18.999 8s-8 11.666 -8 18.999zM296.999 656.003c0 7.33301 2.5 13.833 7.5 19.5s11.167 8.5 18.5 8.5s14 -2.83301 20 -8.5s9 -12.167 9 -19.5s-3 -13.666 -9 -18.999s-12.667 -8 -20 -8s-13.5 2.66699 -18.5 8
s-7.5 11.666 -7.5 18.999z" />
    <glyph glyph-name="igrave" unicode="&#xec;" horiz-adv-x="273" 
d="M120 17h105v-17h-230v17h109v454h-108v16h124v-470zM120 675v-91h-16v91h16zM140 539h-19l-125 178h19z" />
    <glyph glyph-name="iacute" unicode="&#xed;" horiz-adv-x="273" 
d="M120 17h105v-17h-230v17h109v454h-108v16h124v-470zM120 675v-91h-16v91h16zM120 735h19l-125 -187h-19z" />
    <glyph glyph-name="icircumflex" unicode="&#xee;" horiz-adv-x="273" 
d="M120 17h105v-17h-230v17h109v454h-108v16h124v-470zM120 675v-91h-16v91h16zM219 626l-125 106l-64.5 -54l-63.5 -54l-12 12l140 119l137 -118z" />
    <glyph glyph-name="idieresis" unicode="&#xef;" horiz-adv-x="273" 
d="M120 17h105v-17h-230v17h109v454h-108v16h124v-470zM120 675v-91h-16v91h16zM-26 603c0 6.66699 2.33301 12.334 7 17.001s10 7 16 7s11.333 -2.33301 16 -7s7 -10.334 7 -17.001c0 -6 -2.33301 -11.333 -7 -16s-10 -7 -16 -7s-11.333 2.33301 -16 7s-7 10 -7 16z
M112 603c0 6.66699 2 12.334 6 17.001s9 7 15 7s11.5 -2.33301 16.5 -7s7.5 -10.334 7.5 -17.001c0 -6 -2.5 -11.333 -7.5 -16s-10.5 -7 -16.5 -7s-11 2.33301 -15 7s-6 10 -6 16z" />
    <glyph glyph-name="eth" unicode="&#xf0;" horiz-adv-x="540" 
d="M230 231c-32 0 -61.833 6 -89.5 18s-51.834 28.5 -72.501 49.5s-37 45.5 -49 73.5s-18 57.667 -18 89c0 32 6 61.833 18 89.5s28.333 51.834 49 72.501s44.834 37 72.501 49s57.5 18 89.5 18c31.333 0 61 -6 89 -18s52.5 -28.333 73.5 -49s37.5 -44.834 49.5 -72.501
s18 -57.5 18 -89.5c0 -23.333 -4.33301 -47 -13 -71s-18.667 -45 -30 -63l-112 -168l-112 -169h-18l186 282c-18.667 -13.333 -39 -23.5 -61 -30.5s-45.333 -10.5 -70 -10.5zM80 612c-19.333 -19.333 -34.666 -41.833 -45.999 -67.5s-17 -53.5 -17 -83.5
s5.66699 -57.667 17 -83s26.666 -47.666 45.999 -66.999s41.666 -34.666 66.999 -45.999s53 -17 83 -17s57.833 5.66699 83.5 17s48.167 26.666 67.5 45.999s34.5 41.666 45.5 66.999s16.5 53 16.5 83s-5.5 57.833 -16.5 83.5s-26.167 48.167 -45.5 67.5
s-41.833 34.5 -67.5 45.5s-53.5 16.5 -83.5 16.5s-57.667 -5.5 -83 -16.5s-47.666 -26.167 -66.999 -45.5z" />
    <glyph glyph-name="ntilde" unicode="&#xf1;" horiz-adv-x="659" 
d="M614 17v-16.999h-229v17h109v283c0 25.333 -4.66699 49.333 -14 72s-22.333 42.667 -39 60s-36.834 31 -60.501 41s-49.5 15 -77.5 15c-25.333 0 -49 -4.83301 -71 -14.5s-41 -23.167 -57 -40.5c-17.333 -18 -30.666 -38.333 -39.999 -61s-14 -46.667 -14 -72v-283h106
v-17h-229v17h106v466h-105v17h122v-120c15.333 36.667 39 66.667 71 90s69 35 111 35c30.667 0 58.667 -5.5 84 -16.5s47 -26.167 65 -45.5c18.667 -18.667 33 -40.334 43 -65.001s15 -50.667 15 -78v-283h104zM438 643.001c-18 -4.66699 -34.166 -7.83398 -48.499 -9.50098
s-27.5 -2.5 -39.5 -2.5c-24 0 -44 2.5 -60 7.5s-30.667 10.167 -44 15.5c-11.333 4.66699 -22.333 8.66699 -33 12s-22.334 5 -35.001 5c-10.667 0 -23.167 -1.66699 -37.5 -5s-30.833 -9.66602 -49.5 -18.999v18c34.667 15.333 64 23 88 23
c14.667 0 27.667 -1.83301 39 -5.5l34 -11.5c14 -5.33301 28.833 -10.5 44.5 -15.5s34.167 -7.5 55.5 -7.5c22 0 50.667 4.33301 86 13v-18z" />
    <glyph glyph-name="ograve" unicode="&#xf2;" horiz-adv-x="557" 
d="M-3 249c0 36 6.66699 69.667 20 101s31.666 58.833 54.999 82.5s50.666 42.167 81.999 55.5s65 20 101 20s69.667 -6.66699 101 -20s58.833 -31.833 82.5 -55.5s42.167 -51.167 55.5 -82.5s20 -65 20 -101s-6.66699 -69.667 -20 -101s-31.833 -58.666 -55.5 -81.999
s-51.167 -41.666 -82.5 -54.999s-65 -20 -101 -20s-69.667 6.66699 -101 20s-58.666 31.666 -81.999 54.999s-41.666 50.666 -54.999 81.999s-20 65 -20 101zM14 249c0 -33.333 6.33301 -64.666 19 -93.999s29.834 -54.833 51.501 -76.5s47.167 -38.834 76.5 -51.501
s60.666 -19 93.999 -19s64.666 6.33301 93.999 19s55 29.834 77 51.501s39.333 47.167 52 76.5s19 60.666 19 93.999s-6.33301 64.666 -19 93.999s-30 55 -52 77s-47.667 39.333 -77 52s-60.666 19 -93.999 19s-64.666 -6.33301 -93.999 -19s-54.833 -30 -76.5 -52
s-38.834 -47.667 -51.501 -77s-19 -60.666 -19 -93.999zM316 564h-19l-125 178h19z" />
    <glyph glyph-name="oacute" unicode="&#xf3;" horiz-adv-x="557" 
d="M-3 249c0 36 6.66699 69.667 20 101s31.666 58.833 54.999 82.5s50.666 42.167 81.999 55.5s65 20 101 20s69.667 -6.66699 101 -20s58.833 -31.833 82.5 -55.5s42.167 -51.167 55.5 -82.5s20 -65 20 -101s-6.66699 -69.667 -20 -101s-31.833 -58.666 -55.5 -81.999
s-51.167 -41.666 -82.5 -54.999s-65 -20 -101 -20s-69.667 6.66699 -101 20s-58.666 31.666 -81.999 54.999s-41.666 50.666 -54.999 81.999s-20 65 -20 101zM14 249c0 -33.333 6.33301 -64.666 19 -93.999s29.834 -54.833 51.501 -76.5s47.167 -38.834 76.5 -51.501
s60.666 -19 93.999 -19s64.666 6.33301 93.999 19s55 29.834 77 51.501s39.333 47.167 52 76.5s19 60.666 19 93.999s-6.33301 64.666 -19 93.999s-30 55 -52 77s-47.667 39.333 -77 52s-60.666 19 -93.999 19s-64.666 -6.33301 -93.999 -19s-54.833 -30 -76.5 -52
s-38.834 -47.667 -51.501 -77s-19 -60.666 -19 -93.999zM329 735h19l-125 -187h-19z" />
    <glyph glyph-name="ocircumflex" unicode="&#xf4;" horiz-adv-x="557" 
d="M-3 249c0 36 6.66699 69.667 20 101s31.666 58.833 54.999 82.5s50.666 42.167 81.999 55.5s65 20 101 20s69.667 -6.66699 101 -20s58.833 -31.833 82.5 -55.5s42.167 -51.167 55.5 -82.5s20 -65 20 -101s-6.66699 -69.667 -20 -101s-31.833 -58.666 -55.5 -81.999
s-51.167 -41.666 -82.5 -54.999s-65 -20 -101 -20s-69.667 6.66699 -101 20s-58.666 31.666 -81.999 54.999s-41.666 50.666 -54.999 81.999s-20 65 -20 101zM14 249c0 -33.333 6.33301 -64.666 19 -93.999s29.834 -54.833 51.501 -76.5s47.167 -38.834 76.5 -51.501
s60.666 -19 93.999 -19s64.666 6.33301 93.999 19s55 29.834 77 51.501s39.333 47.167 52 76.5s19 60.666 19 93.999s-6.33301 64.666 -19 93.999s-30 55 -52 77s-47.667 39.333 -77 52s-60.666 19 -93.999 19s-64.666 -6.33301 -93.999 -19s-54.833 -30 -76.5 -52
s-38.834 -47.667 -51.501 -77s-19 -60.666 -19 -93.999zM370 574l-125 106l-64.5 -54l-63.5 -54l-12 12l140 119l137 -118z" />
    <glyph glyph-name="otilde" unicode="&#xf5;" horiz-adv-x="557" 
d="M-3 249c0 36 6.66699 69.667 20 101s31.666 58.833 54.999 82.5s50.666 42.167 81.999 55.5s65 20 101 20s69.667 -6.66699 101 -20s58.833 -31.833 82.5 -55.5s42.167 -51.167 55.5 -82.5s20 -65 20 -101s-6.66699 -69.667 -20 -101s-31.833 -58.666 -55.5 -81.999
s-51.167 -41.666 -82.5 -54.999s-65 -20 -101 -20s-69.667 6.66699 -101 20s-58.666 31.666 -81.999 54.999s-41.666 50.666 -54.999 81.999s-20 65 -20 101zM14 249c0 -33.333 6.33301 -64.666 19 -93.999s29.834 -54.833 51.501 -76.5s47.167 -38.834 76.5 -51.501
s60.666 -19 93.999 -19s64.666 6.33301 93.999 19s55 29.834 77 51.501s39.333 47.167 52 76.5s19 60.666 19 93.999s-6.33301 64.666 -19 93.999s-30 55 -52 77s-47.667 39.333 -77 52s-60.666 19 -93.999 19s-64.666 -6.33301 -93.999 -19s-54.833 -30 -76.5 -52
s-38.834 -47.667 -51.501 -77s-19 -60.666 -19 -93.999zM433 612c-18 -4.66699 -34.166 -7.83398 -48.499 -9.50098s-27.5 -2.5 -39.5 -2.5c-24 0 -44 2.5 -60 7.5s-30.667 10.167 -44 15.5c-11.333 4.66699 -22.333 8.66699 -33 12s-22.334 5 -35.001 5
c-10.667 0 -23.167 -1.66699 -37.5 -5s-30.833 -9.66602 -49.5 -18.999v18c34.667 15.333 64 23 88 23c14.667 0 27.667 -1.83301 39 -5.5l34 -11.5c14 -5.33301 28.833 -10.5 44.5 -15.5s34.167 -7.5 55.5 -7.5c22 0 50.667 4.33301 86 13v-18z" />
    <glyph glyph-name="odieresis" unicode="&#xf6;" horiz-adv-x="557" 
d="M-3 249c0 36 6.66699 69.667 20 101s31.666 58.833 54.999 82.5s50.666 42.167 81.999 55.5s65 20 101 20s69.667 -6.66699 101 -20s58.833 -31.833 82.5 -55.5s42.167 -51.167 55.5 -82.5s20 -65 20 -101s-6.66699 -69.667 -20 -101s-31.833 -58.666 -55.5 -81.999
s-51.167 -41.666 -82.5 -54.999s-65 -20 -101 -20s-69.667 6.66699 -101 20s-58.666 31.666 -81.999 54.999s-41.666 50.666 -54.999 81.999s-20 65 -20 101zM14 249c0 -33.333 6.33301 -64.666 19 -93.999s29.834 -54.833 51.501 -76.5s47.167 -38.834 76.5 -51.501
s60.666 -19 93.999 -19s64.666 6.33301 93.999 19s55 29.834 77 51.501s39.333 47.167 52 76.5s19 60.666 19 93.999s-6.33301 64.666 -19 93.999s-30 55 -52 77s-47.667 39.333 -77 52s-60.666 19 -93.999 19s-64.666 -6.33301 -93.999 -19s-54.833 -30 -76.5 -52
s-38.834 -47.667 -51.501 -77s-19 -60.666 -19 -93.999zM135 626c0 7.33301 2.66699 13.833 8 19.5s11.666 8.5 18.999 8.5s13.833 -2.83301 19.5 -8.5s8.5 -12.167 8.5 -19.5s-2.83301 -13.666 -8.5 -18.999s-12.167 -8 -19.5 -8s-13.666 2.66699 -18.999 8
s-8 11.666 -8 18.999zM301 626c0 7.33301 2.5 13.833 7.5 19.5s11.167 8.5 18.5 8.5s14 -2.83301 20 -8.5s9 -12.167 9 -19.5s-3 -13.666 -9 -18.999s-12.667 -8 -20 -8s-13.5 2.66699 -18.5 8s-7.5 11.666 -7.5 18.999z" />
    <glyph glyph-name="divide" unicode="&#xf7;" horiz-adv-x="616" 
d="M20 322h444v-16h-444v16zM229 391v160h17v-160h-17zM229 74v160h17v-160h-17z" />
    <glyph glyph-name="oslash" unicode="&#xf8;" horiz-adv-x="557" 
d="M-3 249c0 36 6.66699 69.667 20 101s31.666 58.833 54.999 82.5s50.666 42.167 81.999 55.5s65 20 101 20s69.667 -6.66699 101 -20s58.833 -31.833 82.5 -55.5s42.167 -51.167 55.5 -82.5s20 -65 20 -101s-6.66699 -69.667 -20 -101s-31.833 -58.666 -55.5 -81.999
s-51.167 -41.666 -82.5 -54.999s-65 -20 -101 -20s-69.667 6.66699 -101 20s-58.666 31.666 -81.999 54.999s-41.666 50.666 -54.999 81.999s-20 65 -20 101zM14 249c0 -33.333 6.33301 -64.666 19 -93.999s29.834 -54.833 51.501 -76.5s47.167 -38.834 76.5 -51.501
s60.666 -19 93.999 -19s64.666 6.33301 93.999 19s55 29.834 77 51.501s39.333 47.167 52 76.5s19 60.666 19 93.999s-6.33301 64.666 -19 93.999s-30 55 -52 77s-47.667 39.333 -77 52s-60.666 19 -93.999 19s-64.666 -6.33301 -93.999 -19s-54.833 -30 -76.5 -52
s-38.834 -47.667 -51.501 -77s-19 -60.666 -19 -93.999zM385 641h18l-228 -715h-19z" />
    <glyph glyph-name="ugrave" unicode="&#xf9;" horiz-adv-x="667" 
d="M622 17v-17h-121v106c-15.333 -36.667 -39.166 -66.667 -71.499 -90s-69.5 -35 -111.5 -35c-30 0 -57.667 5.5 -83 16.5s-47.333 26.167 -66 45.5c-18 18.667 -32.167 40.5 -42.5 65.5s-15.5 51.167 -15.5 78.5v296h-113v17h130v-313c0 -25.333 4.66699 -49.5 14 -72.5
s22.333 -43.167 39 -60.5s36.667 -31 60 -41s49 -15 77 -15c25.333 0 49.166 5 71.499 15s41.833 23.667 58.5 41c16 17.333 28.833 37.5 38.5 60.5s14.5 47.167 14.5 72.5v296h-118v17h134v-483h105zM332 548h-19l-125 178h19z" />
    <glyph glyph-name="uacute" unicode="&#xfa;" horiz-adv-x="667" 
d="M622 17v-17h-121v106c-15.333 -36.667 -39.166 -66.667 -71.499 -90s-69.5 -35 -111.5 -35c-30 0 -57.667 5.5 -83 16.5s-47.333 26.167 -66 45.5c-18 18.667 -32.167 40.5 -42.5 65.5s-15.5 51.167 -15.5 78.5v296h-113v17h130v-313c0 -25.333 4.66699 -49.5 14 -72.5
s22.333 -43.167 39 -60.5s36.667 -31 60 -41s49 -15 77 -15c25.333 0 49.166 5 71.499 15s41.833 23.667 58.5 41c16 17.333 28.833 37.5 38.5 60.5s14.5 47.167 14.5 72.5v296h-118v17h134v-483h105zM384 735h19l-125 -187h-19z" />
    <glyph glyph-name="ucircumflex" unicode="&#xfb;" horiz-adv-x="667" 
d="M622 17v-17h-121v106c-15.333 -36.667 -39.166 -66.667 -71.499 -90s-69.5 -35 -111.5 -35c-30 0 -57.667 5.5 -83 16.5s-47.333 26.167 -66 45.5c-18 18.667 -32.167 40.5 -42.5 65.5s-15.5 51.167 -15.5 78.5v296h-113v17h130v-313c0 -25.333 4.66699 -49.5 14 -72.5
s22.333 -43.167 39 -60.5s36.667 -31 60 -41s49 -15 77 -15c25.333 0 49.166 5 71.499 15s41.833 23.667 58.5 41c16 17.333 28.833 37.5 38.5 60.5s14.5 47.167 14.5 72.5v296h-118v17h134v-483h105zM403 571l-125 106l-64.5 -54l-63.5 -54l-12 12l140 119l137 -118z" />
    <glyph glyph-name="udieresis" unicode="&#xfc;" horiz-adv-x="667" 
d="M622 17v-17h-121v106c-15.333 -36.667 -39.166 -66.667 -71.499 -90s-69.5 -35 -111.5 -35c-30 0 -57.667 5.5 -83 16.5s-47.333 26.167 -66 45.5c-18 18.667 -32.167 40.5 -42.5 65.5s-15.5 51.167 -15.5 78.5v296h-113v17h130v-313c0 -25.333 4.66699 -49.5 14 -72.5
s22.333 -43.167 39 -60.5s36.667 -31 60 -41s49 -15 77 -15c25.333 0 49.166 5 71.499 15s41.833 23.667 58.5 41c16 17.333 28.833 37.5 38.5 60.5s14.5 47.167 14.5 72.5v296h-118v17h134v-483h105zM154 630c0 7.33301 2.66699 13.833 8 19.5s11.666 8.5 18.999 8.5
s13.833 -2.83301 19.5 -8.5s8.5 -12.167 8.5 -19.5s-2.83301 -13.666 -8.5 -18.999s-12.167 -8 -19.5 -8s-13.666 2.66699 -18.999 8s-8 11.666 -8 18.999zM320 630c0 7.33301 2.5 13.833 7.5 19.5s11.167 8.5 18.5 8.5s14 -2.83301 20 -8.5s9 -12.167 9 -19.5
s-3 -13.666 -9 -18.999s-12.667 -8 -20 -8s-13.5 2.66699 -18.5 8s-7.5 11.666 -7.5 18.999z" />
    <glyph glyph-name="yacute" unicode="&#xfd;" horiz-adv-x="673" 
d="M519 483l-272 -643h106v-17h-233v17h107l67 156l-193 487h-103v17h233v-17h-111l183 -464l198 464h-116v17h233v-17h-99zM387 735h19l-125 -187h-19z" />
    <glyph glyph-name="thorn" unicode="&#xfe;" horiz-adv-x="685" 
d="M362 498c35.333 0 68.332 -6.66699 98.999 -20s57.5 -31.333 80.5 -54s41.167 -49.5 54.5 -80.5s20 -63.833 20 -98.5c0 -35.333 -6.66699 -68.5 -20 -99.5s-31.5 -58 -54.5 -81s-49.833 -41.167 -80.5 -54.5s-63.667 -20 -99 -20c-26.667 0 -52.167 4 -76.5 12
s-46.666 19.167 -66.999 33.5s-38.5 31.5 -54.5 51.5s-28.667 41.667 -38 65v-367h-92v17h75v759h-75v16h92v-240c9.33301 24 22 45.833 38 65.5s34.333 36.5 55 50.5s43.167 25 67.5 33s49.5 12 75.5 12zM529.999 76c21.333 21.333 38.334 46.335 51.001 75.002
s19 60 19 94c0 33.333 -6.33301 64.166 -19 92.499s-29.667 53.166 -51 74.499s-46.166 38.166 -74.499 50.499s-59.5 18.5 -93.5 18.5c-33.333 0 -64.166 -6.16699 -92.499 -18.5s-53.166 -29.166 -74.499 -50.499c-20 -19.333 -35.833 -41.5 -47.5 -66.5
s-18.834 -52.167 -21.501 -81.5v-38c5.33301 -60 28.333 -110 69 -150c21.333 -21.333 46.166 -38 74.499 -50s59.166 -18 92.499 -18c34 0 65.167 6 93.5 18s53.166 28.667 74.499 50z" />
    <glyph glyph-name="ydieresis" unicode="&#xff;" horiz-adv-x="673" 
d="M519 483l-272 -643h106v-17h-233v17h107l67 156l-193 487h-103v17h233v-17h-111l183 -464l198 464h-116v17h233v-17h-99zM213 633c0 7.33301 2.66699 13.833 8 19.5s11.666 8.5 18.999 8.5s13.833 -2.83301 19.5 -8.5s8.5 -12.167 8.5 -19.5
s-2.83301 -13.666 -8.5 -18.999s-12.167 -8 -19.5 -8s-13.666 2.66699 -18.999 8s-8 11.666 -8 18.999zM379 633c0 7.33301 2.5 13.833 7.5 19.5s11.167 8.5 18.5 8.5s14 -2.83301 20 -8.5s9 -12.167 9 -19.5s-3 -13.666 -9 -18.999s-12.667 -8 -20 -8
s-13.5 2.66699 -18.5 8s-7.5 11.666 -7.5 18.999z" />
    <glyph glyph-name="Lslash" unicode="&#x141;" horiz-adv-x="529" 
d="M479 155v-155h-483v17h108v645h-105v17h229v-17h-107v-645h341v138h17zM58 291h332v-17h-332v17z" />
    <glyph glyph-name="lslash" unicode="&#x142;" horiz-adv-x="265" 
d="M227 17v-17h-232v17h111v645h-108v17h124v-662h105zM-36 291h332v-17h-332v17z" />
    <glyph glyph-name="OE" unicode="&#x152;" horiz-adv-x="1326" 
d="M-3 339c0 50 9.5 96.833 28.5 140.5s44.667 82 77 115s70.5 59 114.5 78s91 28.5 141 28.5s96.833 -9.5 140.5 -28.5s81.834 -45 114.501 -78s58.5 -71.333 77.5 -115s28.5 -90.5 28.5 -140.5s-9.5 -96.833 -28.5 -140.5s-44.833 -81.834 -77.5 -114.501
s-70.834 -58.5 -114.501 -77.5s-90.5 -28.5 -140.5 -28.5s-97 9.5 -141 28.5s-82.167 44.833 -114.5 77.5s-58 70.834 -77 114.501s-28.5 90.5 -28.5 140.5zM14 339c0 -47.333 9 -92 27 -134s42.5 -78.5 73.5 -109.5s67.5 -55.5 109.5 -73.5s86.667 -27 134 -27s92 9 134 27
s78.667 42.5 110 73.5s56 67.5 74 109.5s27 86.667 27 134s-9 92 -27 134s-42.667 78.667 -74 110s-68 56 -110 74s-86.667 27 -134 27s-92 -9 -134 -27s-78.5 -42.667 -109.5 -74s-55.5 -68 -73.5 -110s-27 -86.667 -27 -134zM1109 521v141h-375v-311h311v-17h-311v-317
h375v138h16v-155h-516v17h108v645h-108v17h516v-158h-16z" />
    <glyph glyph-name="oe" unicode="&#x153;" horiz-adv-x="1117" 
d="M-3 249c0 36 6.66699 69.667 20 101s31.666 58.833 54.999 82.5s50.666 42.167 81.999 55.5s65 20 101 20s69.667 -6.66699 101 -20s58.833 -31.833 82.5 -55.5s42.167 -51.167 55.5 -82.5s20 -65 20 -101s-6.66699 -69.667 -20 -101s-31.833 -58.666 -55.5 -81.999
s-51.167 -41.666 -82.5 -54.999s-65 -20 -101 -20s-69.667 6.66699 -101 20s-58.666 31.666 -81.999 54.999s-41.666 50.666 -54.999 81.999s-20 65 -20 101zM14 249c0 -33.333 6.33301 -64.666 19 -93.999s29.834 -54.833 51.501 -76.5s47.167 -38.834 76.5 -51.501
s60.666 -19 93.999 -19s64.666 6.33301 93.999 19s55 29.834 77 51.501s39.333 47.167 52 76.5s19 60.666 19 93.999s-6.33301 64.666 -19 93.999s-30 55 -52 77s-47.667 39.333 -77 52s-60.666 19 -93.999 19s-64.666 -6.33301 -93.999 -19s-54.833 -30 -76.5 -52
s-38.834 -47.667 -51.501 -77s-19 -60.666 -19 -93.999zM527 242c0.666992 -32 7.66504 -62.1641 20.998 -90.4971s30.833 -53 52.5 -74s46.834 -37.667 75.501 -50s59 -18.5 91 -18.5c24.667 0 48.5 3.5 71.5 10.5s44.167 17 63.5 30s36.666 28.5 51.999 46.5
s27.666 38 36.999 60h17c-10 -24 -23.333 -46 -40 -66s-35.5 -37.333 -56.5 -52s-43.667 -26 -68 -34s-49.833 -12 -76.5 -12c-35.333 0 -68.666 6.66699 -99.999 20s-58.666 31.666 -81.999 54.999s-41.666 50.666 -54.999 81.999s-20 64.666 -20 99.999
c0 36 6.5 69.667 19.5 101s30.667 58.833 53 82.5s48.833 42.167 79.5 55.5s63.667 20 99 20c36 0 69.667 -7 101 -21s58.833 -33 82.5 -57s42.167 -52.167 55.5 -84.5s20 -66.833 20 -103.5h-493zM760.998 491.003c-32 0 -61.832 -6.16699 -89.499 -18.5s-52 -29 -73 -50
s-37.833 -45.5 -50.5 -73.5s-19.667 -58 -21 -90h476c-2 32 -9.66699 62 -23 90s-30.833 52.5 -52.5 73.5s-46.834 37.667 -75.501 50s-59 18.5 -91 18.5z" />
    <glyph glyph-name="Scaron" unicode="&#x160;" horiz-adv-x="467" 
d="M207 -10c-23.333 1.33301 -45.3262 6.1709 -65.9932 14.5039s-39.334 19.166 -56.001 32.499s-31.167 29 -43.5 47s-21.833 37.333 -28.5 58v-142h-17v216h17c2.66699 -26.667 9.16699 -52.334 19.5 -77.001s23.833 -46.5 40.5 -65.5s36.334 -34.5 59.001 -46.5
s47.667 -18.667 75 -20c24 -1.33301 47.667 1.16699 71 7.5s44.166 15.833 62.499 28.5s33.166 28.667 44.499 48s17 41.666 17 66.999c0 28.667 -6 53.5 -18 74.5s-27.167 39 -45.5 54s-39 27 -62 36s-45.5 15.5 -67.5 19.5c-23.333 4.66699 -46.666 11.667 -69.999 21
s-44.166 21.666 -62.499 36.999s-33.333 33.5 -45 54.5s-17.5 45.167 -17.5 72.5c0 26 4.66699 49.833 14 71.5s22 40.167 38 55.5s34.833 27.333 56.5 36s45.167 12.667 70.5 12c37.333 -1.33301 69 -11.333 95 -30s45.333 -43 58 -73v93h16v-148h-15
c-8.66699 39.333 -26.5 72 -53.5 98s-60.5 40 -100.5 42c-22.667 0.666992 -43.834 -3 -63.501 -11s-36.834 -19.333 -51.501 -34s-26.334 -31.667 -35.001 -51s-13 -39.666 -13 -60.999c0 -25.333 5.5 -47.5 16.5 -66.5s25.167 -35.5 42.5 -49.5s36.666 -25.333 57.999 -34
s42.666 -15 63.999 -19c27.333 -5.33301 53.666 -13.5 78.999 -24.5s47.666 -24.667 66.999 -41s34.666 -35.666 45.999 -57.999s17 -47.5 17 -75.5c0 -28.667 -6.5 -53.834 -19.5 -75.501s-29.667 -39.667 -50 -54s-43.166 -24.833 -68.499 -31.5
s-50.333 -9.33398 -75 -8.00098zM36.0068 908.005l166 -133l11 10.5l18.5 18l23 23l25.5 24.5l66 64l11 -12l-155 -151l-179 147z" />
    <glyph glyph-name="scaron" unicode="&#x161;" horiz-adv-x="353" 
d="M36 676l98 -100l24 26.5l32 34.5l40 43l11 -11l-107 -116l-111 117zM148 -3c-35.333 2.66699 -63.5088 13.6699 -84.5088 33.0029s-37.167 41.333 -48.5 66v-89h-17v156h17c0.666992 -19.333 4.66699 -37.666 12 -54.999s17 -32.833 29 -46.5
s26.167 -24.834 42.5 -33.501s33.5 -14.334 51.5 -17.001c16.667 0.666992 33.334 3.16699 50.001 7.5s31.667 10.833 45 19.5s24 19.667 32 33s12 29.333 12 48c0.666992 20 -3 37 -11 51s-18.333 26 -31 36s-27.167 18.333 -43.5 25s-32.833 13 -49.5 19
c-16 6 -32.667 12.667 -50 20s-33.166 16.333 -47.499 27s-26.166 23.334 -35.499 38.001s-14 32.334 -14 53.001c0 17.333 3 34 9 50s14.667 30 26 42s25.333 21.5 42 28.5s35.334 9.83301 56.001 8.5c21.333 0 41.333 -6 60 -18s33.334 -28 44.001 -48v58h17v-110h-16
c-7.33301 28 -20 51.667 -38 71s-40.333 29.666 -67 30.999c-18 1.33301 -34.167 -1.33398 -48.5 -8.00098s-26.666 -15.5 -36.999 -26.5s-18.166 -23.5 -23.499 -37.5s-8 -27.667 -8 -41c0 -17.333 4.33301 -32.5 13 -45.5s19.5 -24.333 32.5 -34
s27.5 -17.834 43.5 -24.501s32 -12.667 48 -18c18 -6 35.833 -12.5 53.5 -19.5s33.334 -16 47.001 -27s24.834 -24.5 33.501 -40.5s13 -36 13 -60c0 -22 -4.83301 -40.833 -14.5 -56.5s-22 -28.5 -37 -38.5s-32 -17.333 -51 -22s-37.833 -6.33398 -56.5 -5.00098z" />
    <glyph glyph-name="Ydieresis" unicode="&#x178;" horiz-adv-x="700" 
d="M341 230v-213h107v-17h-231v17h107v214l-112 215.5l-112 215.5h-103v17h230v-17h-108l107 -204.5l107 -205.5l202 410h-118v17h230v-17h-94zM222 838c0 7.33301 2.66699 13.833 8 19.5s11.666 8.5 18.999 8.5s13.833 -2.83301 19.5 -8.5s8.5 -12.167 8.5 -19.5
s-2.83301 -13.666 -8.5 -18.999s-12.167 -8 -19.5 -8s-13.666 2.66699 -18.999 8s-8 11.666 -8 18.999zM388 838c0 7.33301 2.5 13.833 7.5 19.5s11.167 8.5 18.5 8.5s14 -2.83301 20 -8.5s9 -12.167 9 -19.5s-3 -13.666 -9 -18.999s-12.667 -8 -20 -8
s-13.5 2.66699 -18.5 8s-7.5 11.666 -7.5 18.999z" />
    <glyph glyph-name="Zcaron" unicode="&#x17d;" horiz-adv-x="499" 
d="M401 662h-381v-139h-17v156h420v-12l-405 -650h413v137h17v-154h-452v12zM92 895l166 -133l11 10.5l18.5 18l23 23l25.5 24.5l66 64l11 -12l-155 -151l-179 147z" />
    <glyph glyph-name="zcaron" unicode="&#x17e;" horiz-adv-x="420" 
d="M334 483h-298v-120h-16v137h338v-12l-334 -471h329v127h16v-144h-369v13zM35 744l166 -133l11 10.5l18.5 18l23 23l25.5 24.5l66 64l11 -12l-155 -151l-179 147z" />
    <glyph glyph-name="florin" unicode="&#x192;" horiz-adv-x="299" 
d="M-4 486h254v-16h-254v16zM-4 17h229v-17h-229v17zM254 667c-25.333 -2 -47.999 -9.00098 -67.999 -21.001c-17.333 -10.667 -33 -27.167 -47 -49.5s-21 -53.833 -21 -94.5v-499h-17v499c0 22.667 2.16699 42.667 6.5 60s10 32.333 17 45s15.167 23.334 24.5 32.001
s18.666 16 27.999 22c22 13.333 47.667 21 77 23v-17z" />
    <glyph glyph-name="circumflex" unicode="&#x2c6;" horiz-adv-x="364" 
d="M301 719l-125 106l-64.5 -54l-63.5 -54l-12 12l140 119l137 -118z" />
    <glyph glyph-name="caron" unicode="&#x2c7;" horiz-adv-x="431" 
d="M62 674l166 -133l11 10.5l18.5 18l23 23l25.5 24.5l66 64l11 -12l-155 -151l-179 147z" />
    <glyph glyph-name="breve" unicode="&#x2d8;" 
 />
    <glyph glyph-name="dotaccent" unicode="&#x2d9;" horiz-adv-x="273" 
d="M84 568c0 14.667 4.83301 27 14.5 37s21.5 15 35.5 15c14.667 0 27 -5 37 -15s15 -22.333 15 -37c0 -14 -5 -25.833 -15 -35.5s-22.333 -14.5 -37 -14.5c-14 0 -25.833 4.83301 -35.5 14.5s-14.5 21.5 -14.5 35.5z" />
    <glyph glyph-name="ring" unicode="&#x2da;" horiz-adv-x="346" 
d="M89 603c0 12 2.16504 23.167 6.49805 33.5s10.5 19.333 18.5 27s17.167 13.834 27.5 18.501s21.5 7 33.5 7s23.333 -2.33301 34 -7s19.834 -10.834 27.501 -18.501s13.834 -16.667 18.501 -27s7 -21.5 7 -33.5c0 -24 -8.5 -44.333 -25.5 -61s-37.5 -25 -61.5 -25
s-44.333 8.33301 -61 25s-25 37 -25 61zM105.998 603c0 -19.333 6.66699 -35.833 20 -49.5s29.666 -20.5 48.999 -20.5s35.833 6.83301 49.5 20.5s20.5 30.167 20.5 49.5s-6.83301 35.833 -20.5 49.5s-30.167 20.5 -49.5 20.5s-35.666 -6.83301 -48.999 -20.5
s-20 -30.167 -20 -49.5z" />
    <glyph glyph-name="tilde" unicode="&#x2dc;" horiz-adv-x="506" 
d="M413 576c-18 -4.66699 -34.166 -7.83398 -48.499 -9.50098s-27.5 -2.5 -39.5 -2.5c-24 0 -44 2.5 -60 7.5s-30.667 10.167 -44 15.5c-11.333 4.66699 -22.333 8.66699 -33 12s-22.334 5 -35.001 5c-10.667 0 -23.167 -1.66699 -37.5 -5s-30.833 -9.66602 -49.5 -18.999
v18c34.667 15.333 64 23 88 23c14.667 0 27.667 -1.83301 39 -5.5l34 -11.5c14 -5.33301 28.833 -10.5 44.5 -15.5s34.167 -7.5 55.5 -7.5c22 0 50.667 4.33301 86 13v-18z" />
    <glyph glyph-name="endash" unicode="&#x2013;" horiz-adv-x="530" 
d="M70 291h332v-17h-332v17z" />
    <glyph glyph-name="emdash" unicode="&#x2014;" horiz-adv-x="694" 
d="M71 291h528v-17h-528v17z" />
    <glyph glyph-name="quoteleft" unicode="&#x2018;" horiz-adv-x="233" 
d="M97 718h17l-42 -175h-17z" />
    <glyph glyph-name="quoteright" unicode="&#x2019;" horiz-adv-x="212" 
d="M97 718h17l-42 -175h-17z" />
    <glyph glyph-name="quotesinglbase" unicode="&#x201a;" horiz-adv-x="152" 
d="M49 73h18l-42 -175h-18z" />
    <glyph glyph-name="quotedblleft" unicode="&#x201c;" horiz-adv-x="335" 
d="M97 718h18l-42 -175h-18zM205 718h17l-42 -175h-17z" />
    <glyph glyph-name="quotedblright" unicode="&#x201d;" horiz-adv-x="321" 
d="M97 718h18l-42 -175h-18zM205 718h17l-42 -175h-17z" />
    <glyph glyph-name="quotedblbase" unicode="&#x201e;" horiz-adv-x="223" 
d="M50 73h17l-42 -175h-17zM128 73h17l-42 -175h-17z" />
    <glyph glyph-name="dagger" unicode="&#x2020;" horiz-adv-x="295" 
d="M137 763h17v-787h-17v787zM-21 488v17h334v-17h-334z" />
    <glyph glyph-name="daggerdbl" unicode="&#x2021;" horiz-adv-x="295" 
d="M137 685h17v-788h-17v788zM-35 420v17h363v-17h-363zM-35 166v17h363v-17h-363z" />
    <glyph glyph-name="bullet" unicode="&#x2022;" horiz-adv-x="266" 
d="M80 279c0 11.333 3.66699 20.833 11 28.5s16.666 11.5 27.999 11.5s20.833 -3.83301 28.5 -11.5s11.5 -17.167 11.5 -28.5c0 -10.667 -3.83301 -19.834 -11.5 -27.501s-17.167 -11.5 -28.5 -11.5s-20.666 3.83301 -27.999 11.5s-11 16.834 -11 27.501z" />
    <glyph glyph-name="ellipsis" unicode="&#x2026;" horiz-adv-x="399" 
d="M26 71h18v-70h-18v70zM156 71h18v-70h-18v70zM286 71h18v-70h-18v70z" />
    <glyph glyph-name="perthousand" unicode="&#x2030;" horiz-adv-x="1006" 
d="M349 558c0 -20 -3.83301 -39 -11.5 -57s-18.334 -33.833 -32.001 -47.5s-29.5 -24.334 -47.5 -32.001s-37 -11.5 -57 -11.5s-39 3.83301 -57 11.5s-33.667 18.334 -47 32.001s-23.833 29.5 -31.5 47.5s-11.5 37 -11.5 57s3.83301 39 11.5 57s18.167 33.667 31.5 47
s29 23.833 47 31.5s37 11.5 57 11.5s39 -3.83301 57 -11.5s33.833 -18.167 47.5 -31.5s24.334 -29 32.001 -47s11.5 -37 11.5 -57zM201 427c18.667 0 35.832 3.33301 51.499 10s29.5 16 41.5 28c11.333 11.333 20.5 25 27.5 41s10.5 33.333 10.5 52
s-3.5 35.834 -10.5 51.501s-16.167 29.167 -27.5 40.5c-25.333 25.333 -56.333 38 -93 38s-67.667 -12.667 -93 -38c-11.333 -11.333 -20.5 -24.833 -27.5 -40.5s-10.5 -32.834 -10.5 -51.501s3.5 -36 10.5 -52s16.167 -29.667 27.5 -41c12 -12 25.833 -21.333 41.5 -28
s32.834 -10 51.501 -10zM470.998 295c20 0 39 -3.83301 57 -11.5s33.667 -18.167 47 -31.5s23.833 -29 31.5 -47s11.5 -37.333 11.5 -58c0 -20 -3.83301 -39 -11.5 -57s-18.167 -33.667 -31.5 -47s-29 -23.833 -47 -31.5s-37 -11.5 -57 -11.5s-39 3.83301 -57 11.5
s-33.667 18.167 -47 31.5s-23.833 29 -31.5 47s-11.5 37 -11.5 57c0 20.667 3.83301 40 11.5 58s18.167 33.667 31.5 47s29 23.833 47 31.5s37 11.5 57 11.5zM562.998 55c12.667 11.333 22.167 25 28.5 41s9.5 33 9.5 51c0 38.667 -12.667 69.667 -38 93
c-24 25.333 -54.667 38 -92 38c-36.667 0 -67.667 -12.667 -93 -38c-25.333 -24 -38 -55 -38 -93c0 -37.333 12.667 -68 38 -92c25.333 -25.333 56.333 -38 93 -38c37.333 0 68 12.667 92 38zM494.998 699l-306 -692l-16 2l305 692zM772.998 295c20 0 39 -3.83301 57 -11.5
s33.833 -18.167 47.5 -31.5s24.334 -29 32.001 -47s11.5 -37.333 11.5 -58c0 -20 -3.83301 -39 -11.5 -57s-18.334 -33.667 -32.001 -47s-29.5 -23.833 -47.5 -31.5s-37 -11.5 -57 -11.5s-39 3.83301 -57 11.5s-33.5 18.167 -46.5 31.5s-23.333 29 -31 47s-11.5 37 -11.5 57
c0 20.667 3.83301 40 11.5 58s18 33.667 31 47s28.5 23.833 46.5 31.5s37 11.5 57 11.5zM865.998 55c12.667 11.333 22.167 25 28.5 41s9.5 33 9.5 51c0 38.667 -12.667 69.667 -38 93c-24 25.333 -55 38 -93 38c-36 0 -66.667 -12.667 -92 -38
c-12 -11.333 -21.5 -24.833 -28.5 -40.5s-10.5 -33.167 -10.5 -52.5c0 -18 3.5 -35 10.5 -51s16.5 -29.667 28.5 -41c25.333 -25.333 56 -38 92 -38c38 0 69 12.667 93 38z" />
    <glyph glyph-name="guilsinglleft" unicode="&#x2039;" horiz-adv-x="359" 
d="M243 429l-190 -207c4 -4.66699 10 -11.167 18 -19.5l27.5 -28.5l32.5 -34l34 -36l85 -91l-12 -12l-206 221l203 218z" />
    <glyph glyph-name="guilsinglright" unicode="&#x203a;" horiz-adv-x="331" 
d="M33 13l227 226l-221 221l12 11l231 -232l-229 -229z" />
    <glyph glyph-name="fraction" unicode="&#x2044;" horiz-adv-x="295" 
d="M251 725h18l-228 -715h-19z" />
    <glyph glyph-name="Euro" unicode="&#x20ac;" horiz-adv-x="841" 
d="M770 153c-16.667 -26 -36.166 -49.6699 -58.499 -71.0029s-46.5 -39.666 -72.5 -54.999s-53.833 -27.166 -83.5 -35.499s-60.167 -12.5 -91.5 -12.5c-42 0 -81.833 6.83301 -119.5 20.5s-71.834 32.667 -102.501 57s-56.667 53 -78 86s-37 68.833 -47 107.5h-82v17h78
c-2.66699 11.333 -4.5 22.833 -5.5 34.5s-1.5 23.5 -1.5 35.5c0 24.667 2.33301 47.667 7 69h-78v17h81c10 38.667 25.833 74.5 47.5 107.5s47.667 61.667 78 86s64.5 43.333 102.5 57s78 20.5 120 20.5c53.333 0 103.5 -11.167 150.5 -33.5s86.833 -51.833 119.5 -88.5v112
h17v-144h-13c-32 42 -71.667 75.667 -119 101s-99 38 -155 38c-48 0 -92.5 -8.83301 -133.5 -26.5s-77.167 -42.167 -108.5 -73.5c-21.333 -21.333 -39.5 -45.166 -54.5 -71.499s-26.5 -54.5 -34.5 -84.5h539v-17h-542c-2.66699 -11.333 -4.5 -22.833 -5.5 -34.5
s-1.5 -23.167 -1.5 -34.5c0 -12 0.5 -23.833 1.5 -35.5s2.83301 -23.167 5.5 -34.5h542v-17h-538c7.33301 -30 18.5 -58 33.5 -84s33.167 -49.333 54.5 -70c31.333 -31.333 67.5 -55.833 108.5 -73.5s85.5 -26.5 133.5 -26.5c60 0 114.833 14.333 164.5 43
s90.5 66.667 122.5 114h19z" />
    <glyph glyph-name="trademark" unicode="&#x2122;" horiz-adv-x="770" 
d="M323 601h-18v57h-90v-237h42v-17h-99v17h40v237h-90v-57h-17v74h232v-74zM687 658h-41v-237h41v-17h-98v17h41c0 39.333 -0.333008 76 -1 110s-1 71 -1 111l-123 -238h-12l-108 233v-216h40v-17h-99v17h43v237h-43v17h60l114 -245l69 132l60 113h58v-17z" />
    <glyph glyph-name="minus" unicode="&#x2212;" horiz-adv-x="523" 
d="M46 274h406v-16h-406v16z" />
    <glyph glyph-name="fi" unicode="&#xfb01;" horiz-adv-x="572" 
d="M254 667c-25.333 -2 -47.999 -9.00098 -67.999 -21.001c-17.333 -10.667 -33 -27.167 -47 -49.5s-21 -53.833 -21 -94.5v-15h132v-16h-132v-454h107v-17h-229v17h105v454h-105v16h105v15c0 22.667 2.16699 42.667 6.5 60s10 32.333 17 45s15.167 23.334 24.5 32.001
s18.666 16 27.999 22c22 13.333 47.667 21 77 23v-17zM357.001 16.999h105v-17h-230v17h109v454h-108v16h124v-470zM357.001 674.999v-91h-16v91h16z" />
    <glyph glyph-name="fl" unicode="&#xfb02;" horiz-adv-x="564" 
d="M254 667c-25.333 -2 -47.999 -9.00098 -67.999 -21.001c-17.333 -10.667 -33 -27.167 -47 -49.5s-21 -53.833 -21 -94.5v-15h132v-16h-132v-454h107v-17h-229v17h105v454h-105v16h105v15c0 22.667 2.16699 42.667 6.5 60s10 32.333 17 45s15.167 23.334 24.5 32.001
s18.666 16 27.999 22c22 13.333 47.667 21 77 23v-17zM526.001 16.999v-17h-232v17h111v645h-108v17h124v-662h105z" />
    <glyph glyph-name=".null" horiz-adv-x="0" 
 />
    <glyph glyph-name="nonmarkingreturn" horiz-adv-x="295" 
 />
  </font>
</defs>
</svg>
